# Blender v2.90.0 OBJ File: 'LevelDesigns.blend'
# www.blender.org
o Base_Wall-Lab.183_Plane.656
v -40.000004 29.944777 0.000263
v -40.000004 39.944778 0.000263
v -30.000004 29.944777 0.000256
v -30.000004 39.944778 0.000256
v -60.000004 -0.055225 0.000274
v -50.000004 -0.055225 0.000268
v -60.000004 9.944775 0.000275
v -50.000004 9.944775 0.000268
v -50.000004 -0.055225 0.000268
v -50.000004 9.944775 0.000268
v -40.000004 -0.055225 0.000261
v -40.000004 9.944775 0.000262
v -40.000004 -0.055225 0.000261
v -40.000004 9.944775 0.000262
v -30.000004 -0.055225 0.000255
v -30.000004 9.944775 0.000255
v -30.000004 -0.055225 0.000255
v -30.000004 9.944775 0.000255
v -20.000004 -0.055225 0.000248
v -20.000004 9.944775 0.000249
v -20.000004 -0.055225 0.000248
v -20.000004 9.944775 0.000249
v -10.000004 -0.055225 0.000242
v -10.000004 9.944775 0.000242
v 9.999996 -0.055225 0.000229
v 9.999996 9.944775 0.000229
v 19.999996 -0.055225 0.000222
v 19.999996 9.944775 0.000223
v 19.999996 -0.055225 0.000222
v 19.999996 9.944775 0.000223
v 29.999996 -0.055225 0.000216
v 29.999996 9.944775 0.000216
v 29.999996 -0.055225 0.000216
v 29.999996 9.944775 0.000216
v 39.999996 -0.055225 0.000209
v 39.999996 9.944775 0.000210
v 39.999996 -0.055225 0.000209
v 39.999996 9.944775 0.000210
v 49.999996 -0.055225 0.000203
v 49.999996 9.944775 0.000203
v 49.999996 -0.055225 0.000203
v 49.999996 9.944775 0.000203
v 59.999996 -0.055225 0.000196
v 59.999996 9.944775 0.000196
v -60.000004 9.944775 0.000275
v -60.000004 19.944777 0.000275
v -50.000004 9.944775 0.000268
v -50.000004 19.944777 0.000269
v -50.000004 9.944775 0.000268
v -50.000004 19.944777 0.000269
v -40.000004 9.944775 0.000262
v -40.000004 19.944777 0.000262
v -40.000004 9.944775 0.000262
v -40.000004 19.944777 0.000262
v -30.000004 9.944775 0.000255
v -30.000004 19.944777 0.000256
v -30.000004 9.944775 0.000255
v -30.000004 19.944777 0.000256
v -20.000004 9.944775 0.000249
v -20.000004 19.944777 0.000249
v -20.000004 9.944775 0.000249
v -20.000004 19.944777 0.000249
v -10.000004 9.944775 0.000242
v -10.000004 19.944777 0.000243
v 9.999996 9.944775 0.000229
v 9.999996 19.944777 0.000230
v 19.999996 9.944775 0.000223
v 19.999996 19.944777 0.000223
v 19.999996 9.944775 0.000223
v 19.999996 19.944777 0.000223
v 29.999996 9.944775 0.000216
v 29.999996 19.944777 0.000216
v 29.999996 9.944775 0.000216
v 29.999996 19.944777 0.000216
v 39.999996 9.944775 0.000210
v 39.999996 19.944777 0.000210
v 39.999996 9.944775 0.000210
v 39.999996 19.944777 0.000210
v 49.999996 9.944775 0.000203
v 49.999996 19.944777 0.000203
v 49.999996 9.944775 0.000203
v 49.999996 19.944777 0.000203
v 59.999996 9.944775 0.000196
v 59.999996 19.944777 0.000197
v -60.000004 19.944777 0.000275
v -60.000004 29.944777 0.000276
v -50.000004 19.944777 0.000269
v -50.000004 29.944777 0.000269
v -40.000004 19.944777 0.000262
v -40.000004 29.944777 0.000263
v -30.000004 19.944777 0.000256
v -30.000004 29.944777 0.000256
v -30.000004 19.944777 0.000256
v -30.000004 29.944777 0.000256
v -20.000004 19.944777 0.000249
v -20.000004 29.944777 0.000249
v -20.000004 19.944777 0.000249
v -20.000004 29.944777 0.000249
v -10.000004 19.944777 0.000243
v -10.000004 29.944777 0.000243
v -10.000004 19.944777 0.000243
v -10.000004 29.944777 0.000243
v -0.000004 19.944777 0.000236
v -0.000004 29.944777 0.000236
v -0.000004 19.944777 0.000236
v -0.000004 29.944777 0.000236
v 9.999996 19.944777 0.000230
v 9.999996 29.944777 0.000230
v 9.999996 19.944777 0.000230
v 9.999996 29.944777 0.000230
v 19.999996 19.944777 0.000223
v 19.999996 29.944777 0.000223
v 19.999996 19.944777 0.000223
v 19.999996 29.944777 0.000223
v 29.999996 19.944777 0.000216
v 29.999996 29.944777 0.000217
v 29.999996 19.944777 0.000216
v 29.999996 29.944777 0.000217
v 39.999996 19.944777 0.000210
v 39.999996 29.944777 0.000210
v 49.999996 19.944777 0.000203
v 49.999996 29.944777 0.000204
v 59.999996 19.944777 0.000197
v 59.999996 29.944777 0.000197
v -60.000004 29.944777 0.000276
v -60.000004 39.944778 0.000276
v -50.000004 29.944777 0.000269
v -50.000004 39.944778 0.000269
v -50.000004 29.944777 0.000269
v -50.000004 39.944778 0.000269
v -40.000004 29.944777 0.000263
v -40.000004 39.944778 0.000263
v -30.000004 29.944777 0.000256
v -30.000004 39.944778 0.000256
v -20.000004 29.944777 0.000249
v -20.000004 39.944778 0.000250
v -10.000004 29.944777 0.000243
v -10.000004 39.944778 0.000243
v -0.000004 29.944777 0.000236
v -0.000004 39.944778 0.000237
v -0.000004 29.944777 0.000236
v -0.000004 39.944778 0.000237
v 9.999996 29.944777 0.000230
v 9.999996 39.944778 0.000230
v 9.999996 29.944777 0.000230
v 9.999996 39.944778 0.000230
v 19.999996 29.944777 0.000223
v 19.999996 39.944778 0.000224
v 19.999996 29.944777 0.000223
v 19.999996 39.944778 0.000224
v 29.999996 29.944777 0.000217
v 29.999996 39.944778 0.000217
v 29.999996 29.944777 0.000217
v 29.999996 39.944778 0.000217
v 39.999996 29.944777 0.000210
v 39.999996 39.944778 0.000211
v 39.999996 29.944777 0.000210
v 39.999996 39.944778 0.000211
v 49.999996 29.944777 0.000204
v 49.999996 39.944778 0.000204
v 49.999996 29.944777 0.000204
v 49.999996 39.944778 0.000204
v 59.999996 29.944777 0.000197
v 59.999996 39.944778 0.000198
v -60.000004 39.944778 0.000276
v -60.000004 49.944778 0.000276
v -50.000004 39.944778 0.000269
v -50.000004 49.944778 0.000270
v -50.000004 39.944778 0.000269
v -50.000004 49.944778 0.000270
v -40.000004 39.944778 0.000263
v -40.000004 49.944778 0.000263
v -40.000004 39.944778 0.000263
v -40.000004 49.944778 0.000263
v -30.000004 39.944778 0.000256
v -30.000004 49.944778 0.000257
v 9.999996 39.944778 0.000230
v 9.999996 49.944778 0.000231
v 19.999996 39.944778 0.000224
v 19.999996 49.944778 0.000224
v 19.999996 39.944778 0.000224
v 19.999996 49.944778 0.000224
v 29.999996 39.944778 0.000217
v 29.999996 49.944778 0.000218
v 29.999996 39.944778 0.000217
v 29.999996 49.944778 0.000218
v 39.999996 39.944778 0.000211
v 39.999996 49.944778 0.000211
v 39.999996 39.944778 0.000211
v 39.999996 49.944778 0.000211
v 49.999996 39.944778 0.000204
v 49.999996 49.944778 0.000205
v 49.999996 39.944778 0.000204
v 49.999996 49.944778 0.000205
v 59.999996 39.944778 0.000198
v 59.999996 49.944778 0.000198
v -60.000004 49.944778 0.000276
v -60.000004 59.944778 0.000277
v -50.000004 49.944778 0.000270
v -50.000004 59.944778 0.000270
v -50.000004 49.944778 0.000270
v -50.000004 59.944778 0.000270
v -40.000004 49.944778 0.000263
v -40.000004 59.944778 0.000264
v -40.000004 49.944778 0.000263
v -40.000004 59.944778 0.000264
v -30.000004 49.944778 0.000257
v -30.000004 59.944778 0.000257
v -30.000004 49.944778 0.000257
v -30.000004 59.944778 0.000257
v -20.000004 49.944778 0.000250
v -20.000004 59.944778 0.000251
v -20.000004 49.944778 0.000250
v -20.000004 59.944778 0.000251
v -10.000004 49.944778 0.000244
v -10.000004 59.944778 0.000244
v -10.000004 49.944778 0.000244
v -10.000004 59.944778 0.000244
v -0.000004 49.944778 0.000237
v -0.000004 59.944778 0.000238
v -0.000004 49.944778 0.000237
v -0.000004 59.944778 0.000238
v 9.999996 49.944778 0.000231
v 9.999996 59.944778 0.000231
v 9.999996 49.944778 0.000231
v 9.999996 59.944778 0.000231
v 19.999996 49.944778 0.000224
v 19.999996 59.944778 0.000225
v 19.999996 49.944778 0.000224
v 19.999996 59.944778 0.000225
v 29.999996 49.944778 0.000218
v 29.999996 59.944778 0.000218
v 29.999996 49.944778 0.000218
v 29.999996 59.944778 0.000218
v 39.999996 49.944778 0.000211
v 39.999996 59.944778 0.000212
v 39.999996 49.944778 0.000211
v 39.999996 59.944778 0.000212
v 49.999996 49.944778 0.000205
v 49.999996 59.944778 0.000205
v 49.999996 49.944778 0.000205
v 49.999996 59.944778 0.000205
v 59.999996 49.944778 0.000198
v 59.999996 59.944778 0.000199
v 49.999996 19.944777 0.000203
v 49.999996 29.944777 0.000204
v 39.999996 19.944777 0.000210
v 39.999996 29.944777 0.000210
v -50.000004 19.944777 0.000269
v -50.000004 29.944777 0.000269
v -40.000004 19.944777 0.000262
v -40.000004 29.944777 0.000263
v -10.000004 39.944778 0.000243
v -10.000004 49.944778 0.000244
v -0.000004 39.944778 0.000237
v -0.000004 49.944778 0.000237
v -10.000000 39.944778 0.000236
v -10.000000 49.944778 0.000236
v -20.000000 39.944778 0.000246
v -20.000000 49.944778 0.000247
v -20.000000 39.944778 0.000246
v -20.000000 49.944778 0.000247
v -30.000000 39.944778 0.000256
v -30.000000 49.944778 0.000257
v -20.000004 29.944777 0.000249
v -20.000004 39.944778 0.000250
v -10.000004 29.944777 0.000243
v -10.000004 39.944778 0.000243
v -0.000004 39.944778 0.000237
v -0.000004 49.944778 0.000237
v 9.999996 39.944778 0.000230
v 9.999996 49.944778 0.000231
vt 0.480699 0.035000
vt 0.245404 0.500000
vt 0.245404 0.034545
vt 0.723805 0.038636
vt 0.488511 0.503636
vt 0.488511 0.038182
vt 0.723805 0.038636
vt 0.488511 0.503636
vt 0.488511 0.038182
vt 0.723805 0.038636
vt 0.488511 0.503636
vt 0.488511 0.038182
vt 0.723805 0.038636
vt 0.488511 0.503636
vt 0.488511 0.038182
vt 0.723805 0.038636
vt 0.488511 0.503636
vt 0.488511 0.038182
vt 0.723805 0.038636
vt 0.488511 0.503636
vt 0.488511 0.038182
vt 0.723805 0.038636
vt 0.488511 0.503636
vt 0.488511 0.038182
vt 0.723805 0.038636
vt 0.488511 0.503636
vt 0.488511 0.038182
vt 0.723805 0.038636
vt 0.488511 0.503636
vt 0.488511 0.038182
vt 0.723805 0.038636
vt 0.488511 0.503636
vt 0.488511 0.038182
vt 0.239890 0.033182
vt 0.004596 0.498182
vt 0.004596 0.032727
vt 0.239890 0.033182
vt 0.004596 0.498182
vt 0.004596 0.032727
vt 0.239890 0.033182
vt 0.004596 0.498182
vt 0.004596 0.032727
vt 0.239890 0.033182
vt 0.004596 0.498182
vt 0.004596 0.032727
vt 0.239890 0.033182
vt 0.004596 0.498182
vt 0.004596 0.032727
vt 0.239890 0.033182
vt 0.004596 0.498182
vt 0.004596 0.032727
vt 0.239890 0.033182
vt 0.004596 0.498182
vt 0.004596 0.032727
vt 0.239890 0.033182
vt 0.004596 0.498182
vt 0.004596 0.032727
vt 0.239890 0.033182
vt 0.004596 0.498182
vt 0.004596 0.032727
vt 0.239890 0.033182
vt 0.004596 0.498182
vt 0.004596 0.032727
vt 0.480699 0.035000
vt 0.245404 0.500000
vt 0.245404 0.034545
vt 0.480699 0.035000
vt 0.245404 0.500000
vt 0.245404 0.034545
vt 0.480699 0.035000
vt 0.245404 0.500000
vt 0.245404 0.034545
vt 0.480699 0.035000
vt 0.245404 0.500000
vt 0.245404 0.034545
vt 0.480699 0.035000
vt 0.245404 0.500000
vt 0.245404 0.034545
vt 0.480699 0.035000
vt 0.245404 0.500000
vt 0.245404 0.034545
vt 0.480699 0.035000
vt 0.245404 0.500000
vt 0.245404 0.034545
vt 0.480699 0.035000
vt 0.245404 0.500000
vt 0.245404 0.034545
vt 0.480699 0.035000
vt 0.245404 0.500000
vt 0.245404 0.034545
vt 0.480699 0.035000
vt 0.245404 0.500000
vt 0.245404 0.034545
vt 0.480699 0.035000
vt 0.245404 0.500000
vt 0.245404 0.034545
vt 0.480699 0.035000
vt 0.245404 0.500000
vt 0.245404 0.034545
vt 0.480699 0.035000
vt 0.245404 0.500000
vt 0.245404 0.034545
vt 0.480699 0.035000
vt 0.245404 0.500000
vt 0.245404 0.034545
vt 0.480699 0.035000
vt 0.245404 0.500000
vt 0.245404 0.034545
vt 0.480699 0.035000
vt 0.245404 0.500000
vt 0.245404 0.034545
vt 0.480699 0.035000
vt 0.245404 0.500000
vt 0.245404 0.034545
vt 0.480699 0.035000
vt 0.245404 0.500000
vt 0.245404 0.034545
vt 0.480699 0.035000
vt 0.245404 0.500000
vt 0.245404 0.034545
vt 0.480699 0.035000
vt 0.245404 0.500000
vt 0.245404 0.034545
vt 0.480699 0.035000
vt 0.245404 0.500000
vt 0.245404 0.034545
vt 0.480699 0.035000
vt 0.245404 0.500000
vt 0.245404 0.034545
vt 0.480699 0.035000
vt 0.245404 0.500000
vt 0.245404 0.034545
vt 0.480699 0.035000
vt 0.245404 0.500000
vt 0.245404 0.034545
vt 0.480699 0.035000
vt 0.245404 0.500000
vt 0.245404 0.034545
vt 0.480699 0.035000
vt 0.245404 0.500000
vt 0.245404 0.034545
vt 0.480699 0.035000
vt 0.245404 0.500000
vt 0.245404 0.034545
vt 0.480699 0.035000
vt 0.245404 0.500000
vt 0.245404 0.034545
vt 0.720588 0.524091
vt 0.485294 0.989091
vt 0.485294 0.523636
vt 0.480699 0.035000
vt 0.245404 0.500000
vt 0.245404 0.034545
vt 0.480699 0.035000
vt 0.245404 0.500000
vt 0.245404 0.034545
vt 0.480699 0.035000
vt 0.245404 0.500000
vt 0.245404 0.034545
vt 0.480699 0.035000
vt 0.245404 0.500000
vt 0.245404 0.034545
vt 0.480699 0.035000
vt 0.245404 0.500000
vt 0.245404 0.034545
vt 0.480699 0.035000
vt 0.245404 0.500000
vt 0.245404 0.034545
vt 0.480699 0.035000
vt 0.245404 0.500000
vt 0.245404 0.034545
vt 0.480699 0.035000
vt 0.245404 0.500000
vt 0.245404 0.034545
vt 0.480699 0.035000
vt 0.245404 0.500000
vt 0.245404 0.034545
vt 0.480699 0.035000
vt 0.245404 0.500000
vt 0.245404 0.034545
vt 0.485294 0.524091
vt 0.720588 0.989091
vt 0.720588 0.523636
vt 0.965074 0.525909
vt 0.729779 0.990909
vt 0.729779 0.525455
vt 0.965074 0.525909
vt 0.729779 0.990909
vt 0.729779 0.525455
vt 0.240809 0.523636
vt 0.005515 0.988636
vt 0.005515 0.523182
vt 0.480699 0.035000
vt 0.245404 0.500000
vt 0.245404 0.034545
vt 0.480699 0.035000
vt 0.245404 0.500000
vt 0.245404 0.034545
vt 0.480699 0.035000
vt 0.245404 0.500000
vt 0.245404 0.034545
vt 0.475643 0.523636
vt 0.240349 0.988636
vt 0.240349 0.523182
vt 0.480699 0.500000
vt 0.723805 0.503636
vt 0.723805 0.503636
vt 0.723805 0.503636
vt 0.723805 0.503636
vt 0.723805 0.503636
vt 0.723805 0.503636
vt 0.723805 0.503636
vt 0.723805 0.503636
vt 0.723805 0.503636
vt 0.723805 0.503636
vt 0.239890 0.498182
vt 0.239890 0.498182
vt 0.239890 0.498182
vt 0.239890 0.498182
vt 0.239890 0.498182
vt 0.239890 0.498182
vt 0.239890 0.498182
vt 0.239890 0.498182
vt 0.239890 0.498182
vt 0.239890 0.498182
vt 0.480699 0.500000
vt 0.480699 0.500000
vt 0.480699 0.500000
vt 0.480699 0.500000
vt 0.480699 0.500000
vt 0.480699 0.500000
vt 0.480699 0.500000
vt 0.480699 0.500000
vt 0.480699 0.500000
vt 0.480699 0.500000
vt 0.480699 0.500000
vt 0.480699 0.500000
vt 0.480699 0.500000
vt 0.480699 0.500000
vt 0.480699 0.500000
vt 0.480699 0.500000
vt 0.480699 0.500000
vt 0.480699 0.500000
vt 0.480699 0.500000
vt 0.480699 0.500000
vt 0.480699 0.500000
vt 0.480699 0.500000
vt 0.480699 0.500000
vt 0.480699 0.500000
vt 0.480699 0.500000
vt 0.480699 0.500000
vt 0.480699 0.500000
vt 0.480699 0.500000
vt 0.720588 0.989091
vt 0.480699 0.500000
vt 0.480699 0.500000
vt 0.480699 0.500000
vt 0.480699 0.500000
vt 0.480699 0.500000
vt 0.480699 0.500000
vt 0.480699 0.500000
vt 0.480699 0.500000
vt 0.480699 0.500000
vt 0.480699 0.500000
vt 0.485294 0.989091
vt 0.965074 0.990909
vt 0.965074 0.990909
vt 0.240809 0.988636
vt 0.480699 0.500000
vt 0.480699 0.500000
vt 0.480699 0.500000
vt 0.475643 0.988636
vn 0.0000 -0.0000 1.0000
vn -0.0000 0.0000 -1.0000
s off
f 3/1/1 2/2/1 1/3/1
f 6/4/1 7/5/1 5/6/1
f 11/7/1 10/8/1 9/9/1
f 15/10/1 14/11/1 13/12/1
f 19/13/1 18/14/1 17/15/1
f 23/16/1 22/17/1 21/18/1
f 27/19/1 26/20/1 25/21/1
f 31/22/1 30/23/1 29/24/1
f 35/25/1 34/26/1 33/27/1
f 39/28/1 38/29/1 37/30/1
f 43/31/1 42/32/1 41/33/1
f 47/34/1 46/35/1 45/36/1
f 51/37/1 50/38/1 49/39/1
f 55/40/1 54/41/1 53/42/1
f 59/43/1 58/44/1 57/45/1
f 63/46/1 62/47/1 61/48/1
f 67/49/1 66/50/1 65/51/1
f 71/52/1 70/53/1 69/54/1
f 75/55/1 74/56/1 73/57/1
f 79/58/1 78/59/1 77/60/1
f 83/61/1 82/62/1 81/63/1
f 87/64/1 86/65/1 85/66/1
f 91/67/1 90/68/1 89/69/1
f 95/70/1 94/71/1 93/72/1
f 99/73/1 98/74/1 97/75/1
f 103/76/1 102/77/1 101/78/1
f 107/79/1 106/80/1 105/81/1
f 111/82/1 110/83/1 109/84/1
f 115/85/1 114/86/1 113/87/1
f 119/88/1 118/89/1 117/90/1
f 123/91/1 122/92/1 121/93/1
f 127/94/1 126/95/1 125/96/1
f 131/97/1 130/98/1 129/99/1
f 135/100/1 134/101/1 133/102/1
f 139/103/1 138/104/1 137/105/1
f 143/106/1 142/107/1 141/108/1
f 147/109/1 146/110/1 145/111/1
f 151/112/1 150/113/1 149/114/1
f 155/115/1 154/116/1 153/117/1
f 159/118/1 158/119/1 157/120/1
f 163/121/1 162/122/1 161/123/1
f 167/124/1 166/125/1 165/126/1
f 171/127/1 170/128/1 169/129/1
f 175/130/1 174/131/1 173/132/1
f 179/133/1 178/134/1 177/135/1
f 183/136/1 182/137/1 181/138/1
f 187/139/1 186/140/1 185/141/1
f 191/142/1 190/143/1 189/144/1
f 195/145/1 194/146/1 193/147/1
f 199/148/1 198/149/1 197/150/1
f 203/151/1 202/152/1 201/153/1
f 207/154/1 206/155/1 205/156/1
f 211/157/1 210/158/1 209/159/1
f 215/160/1 214/161/1 213/162/1
f 219/163/1 218/164/1 217/165/1
f 223/166/1 222/167/1 221/168/1
f 227/169/1 226/170/1 225/171/1
f 231/172/1 230/173/1 229/174/1
f 235/175/1 234/176/1 233/177/1
f 239/178/1 238/179/1 237/180/1
f 243/181/1 242/182/1 241/183/1
f 247/184/2 246/185/2 245/186/2
f 251/187/1 250/188/1 249/189/1
f 255/190/1 254/191/1 253/192/1
f 259/193/2 258/194/2 257/195/2
f 263/196/2 262/197/2 261/198/2
f 267/199/1 266/200/1 265/201/1
f 271/202/1 270/203/1 269/204/1
f 3/1/1 4/205/1 2/2/1
f 6/4/1 8/206/1 7/5/1
f 11/7/1 12/207/1 10/8/1
f 15/10/1 16/208/1 14/11/1
f 19/13/1 20/209/1 18/14/1
f 23/16/1 24/210/1 22/17/1
f 27/19/1 28/211/1 26/20/1
f 31/22/1 32/212/1 30/23/1
f 35/25/1 36/213/1 34/26/1
f 39/28/1 40/214/1 38/29/1
f 43/31/1 44/215/1 42/32/1
f 47/34/1 48/216/1 46/35/1
f 51/37/1 52/217/1 50/38/1
f 55/40/1 56/218/1 54/41/1
f 59/43/1 60/219/1 58/44/1
f 63/46/1 64/220/1 62/47/1
f 67/49/1 68/221/1 66/50/1
f 71/52/1 72/222/1 70/53/1
f 75/55/1 76/223/1 74/56/1
f 79/58/1 80/224/1 78/59/1
f 83/61/1 84/225/1 82/62/1
f 87/64/1 88/226/1 86/65/1
f 91/67/1 92/227/1 90/68/1
f 95/70/1 96/228/1 94/71/1
f 99/73/1 100/229/1 98/74/1
f 103/76/1 104/230/1 102/77/1
f 107/79/1 108/231/1 106/80/1
f 111/82/1 112/232/1 110/83/1
f 115/85/1 116/233/1 114/86/1
f 119/88/1 120/234/1 118/89/1
f 123/91/1 124/235/1 122/92/1
f 127/94/1 128/236/1 126/95/1
f 131/97/1 132/237/1 130/98/1
f 135/100/1 136/238/1 134/101/1
f 139/103/1 140/239/1 138/104/1
f 143/106/1 144/240/1 142/107/1
f 147/109/1 148/241/1 146/110/1
f 151/112/1 152/242/1 150/113/1
f 155/115/1 156/243/1 154/116/1
f 159/118/1 160/244/1 158/119/1
f 163/121/1 164/245/1 162/122/1
f 167/124/1 168/246/1 166/125/1
f 171/127/1 172/247/1 170/128/1
f 175/130/1 176/248/1 174/131/1
f 179/133/1 180/249/1 178/134/1
f 183/136/1 184/250/1 182/137/1
f 187/139/1 188/251/1 186/140/1
f 191/142/1 192/252/1 190/143/1
f 195/145/1 196/253/1 194/146/1
f 199/148/1 200/254/1 198/149/1
f 203/151/1 204/255/1 202/152/1
f 207/154/1 208/256/1 206/155/1
f 211/157/1 212/257/1 210/158/1
f 215/160/1 216/258/1 214/161/1
f 219/163/1 220/259/1 218/164/1
f 223/166/1 224/260/1 222/167/1
f 227/169/1 228/261/1 226/170/1
f 231/172/1 232/262/1 230/173/1
f 235/175/1 236/263/1 234/176/1
f 239/178/1 240/264/1 238/179/1
f 243/181/1 244/265/1 242/182/1
f 247/184/2 248/266/2 246/185/2
f 251/187/1 252/267/1 250/188/1
f 255/190/1 256/268/1 254/191/1
f 259/193/2 260/269/2 258/194/2
f 263/196/2 264/270/2 262/197/2
f 267/199/1 268/271/1 266/200/1
f 271/202/1 272/272/1 270/203/1
