# Blender v2.92.0 OBJ File: 'LevelDesigns(Final-WithWall).blend'
# www.blender.org
mtllib LevelWall-2.mtl
o Factory-Wall.002_Plane.002
v 40.000000 0.000000 -39.999989
v 40.000000 10.000000 -39.999989
v 40.000000 20.000000 -39.999989
v 39.999996 40.000000 -39.999989
v 40.000000 30.000000 -39.999989
v -40.000000 10.000000 -39.999989
v -40.000000 20.000000 -39.999989
v -40.000000 30.000002 -39.999989
v -40.000000 40.000000 -39.999989
v -30.000008 -0.000005 -40.000000
v -40.000000 -0.000006 -40.000000
v -20.000000 -0.000004 -40.000000
v -10.000004 -0.000003 -40.000000
v 9.999998 9.999998 -40.000000
v -0.000004 9.999997 -40.000000
v -0.000004 -0.000002 -40.000000
v 20.000000 -0.000001 -40.000000
v 9.999998 -0.000002 -40.000000
v 29.999994 9.999999 -40.000000
v 29.999994 -0.000000 -40.000000
v -30.000008 9.999994 -40.000000
v -10.000004 19.999996 -40.000000
v -10.000004 9.999996 -40.000000
v -20.000000 9.999996 -40.000000
v 9.999996 19.999998 -40.000000
v 20.000000 9.999998 -40.000000
v 19.999998 19.999998 -40.000000
v 29.999992 20.000000 -40.000000
v -20.000000 19.999996 -40.000000
v -30.000008 19.999994 -40.000000
v -20.000000 29.999996 -40.000000
v -0.000004 19.999996 -40.000000
v -30.000008 39.999996 -40.000000
v -30.000008 29.999994 -40.000000
v -20.000004 39.999996 -40.000000
v -10.000008 39.999996 -40.000000
v -0.000004 29.999996 -40.000000
v -10.000004 29.999996 -40.000000
v -0.000008 39.999996 -40.000000
v 19.999998 40.000000 -40.000000
v 9.999996 39.999996 -40.000000
v 9.999996 29.999998 -40.000000
v 19.999998 29.999998 -40.000000
v 29.999992 40.000000 -40.000000
v 29.999992 30.000000 -40.000000
vt 0.543091 0.058236
vt 0.963400 0.477830
vt 0.543091 0.478455
vt 0.031686 0.057501
vt 0.454041 0.479208
vt 0.031686 0.479208
vt 0.543091 0.058236
vt 0.963400 0.477830
vt 0.543091 0.478455
vt 0.543091 0.058236
vt 0.963400 0.477830
vt 0.543091 0.478455
vt 0.543091 0.058236
vt 0.963400 0.477830
vt 0.543091 0.478455
vt 0.543091 0.058236
vt 0.963400 0.477830
vt 0.543091 0.478455
vt 0.031686 0.057501
vt 0.454041 0.479208
vt 0.031686 0.479208
vt 0.543091 0.058236
vt 0.963400 0.477830
vt 0.543091 0.478455
vt 0.543091 0.478455
vt 0.963400 0.057611
vt 0.963400 0.477830
vt 0.544905 0.518738
vt 0.967260 0.940445
vt 0.544905 0.940445
vt 0.543091 0.058236
vt 0.963400 0.477830
vt 0.543091 0.478455
vt 0.543091 0.058236
vt 0.963400 0.477830
vt 0.543091 0.478455
vt 0.543091 0.058236
vt 0.963400 0.477830
vt 0.543091 0.478455
vt 0.543091 0.058236
vt 0.963400 0.477830
vt 0.543091 0.478455
vt 0.544905 0.518738
vt 0.967260 0.940445
vt 0.544905 0.940445
vt 0.543091 0.058236
vt 0.963400 0.477830
vt 0.543091 0.478455
vt 0.543091 0.478455
vt 0.963400 0.057611
vt 0.963400 0.477830
vt 0.035458 0.518619
vt 0.457813 0.940326
vt 0.035458 0.940326
vt 0.543091 0.058236
vt 0.963400 0.477830
vt 0.543091 0.478455
vt 0.543091 0.058236
vt 0.963400 0.477830
vt 0.543091 0.478455
vt 0.543091 0.058236
vt 0.963400 0.477830
vt 0.543091 0.478455
vt 0.543091 0.058236
vt 0.963400 0.477830
vt 0.543091 0.478455
vt 0.035458 0.518619
vt 0.457813 0.940326
vt 0.035458 0.940326
vt 0.543091 0.058236
vt 0.963400 0.477830
vt 0.543091 0.478455
vt 0.543091 0.478455
vt 0.963400 0.057611
vt 0.963400 0.477830
vt 0.035458 0.518619
vt 0.457813 0.940326
vt 0.035458 0.940326
vt 0.543091 0.058236
vt 0.963400 0.477830
vt 0.543091 0.478455
vt 0.543091 0.058236
vt 0.963400 0.477830
vt 0.543091 0.478455
vt 0.543091 0.058236
vt 0.963400 0.477830
vt 0.543091 0.478455
vt 0.543091 0.058236
vt 0.963400 0.477830
vt 0.543091 0.478455
vt 0.035458 0.518619
vt 0.457813 0.940326
vt 0.035458 0.940326
vt 0.543091 0.058236
vt 0.963400 0.477830
vt 0.543091 0.478455
vt 0.963400 0.057611
vt 0.454041 0.057501
vt 0.963400 0.057611
vt 0.963400 0.057611
vt 0.963400 0.057611
vt 0.963400 0.057611
vt 0.454041 0.057501
vt 0.963400 0.057611
vt 0.543091 0.058236
vt 0.967260 0.518738
vt 0.963400 0.057611
vt 0.963400 0.057611
vt 0.963400 0.057611
vt 0.963400 0.057611
vt 0.967260 0.518738
vt 0.963400 0.057611
vt 0.543091 0.058236
vt 0.457813 0.518619
vt 0.963400 0.057611
vt 0.963400 0.057611
vt 0.963400 0.057611
vt 0.963400 0.057611
vt 0.457813 0.518619
vt 0.963400 0.057611
vt 0.543091 0.058236
vt 0.457813 0.518619
vt 0.963400 0.057611
vt 0.963400 0.057611
vt 0.963400 0.057611
vt 0.963400 0.057611
vt 0.457813 0.518619
vt 0.963400 0.057611
vn -0.0000 0.0000 -1.0000
usemtl Material.002
s off
f 10/1/1 6/2/1 21/3/1
f 12/4/1 21/5/1 24/6/1
f 13/7/1 24/8/1 23/9/1
f 16/10/1 23/11/1 15/12/1
f 18/13/1 15/14/1 14/15/1
f 17/16/1 14/17/1 26/18/1
f 20/19/1 26/20/1 19/21/1
f 1/22/1 19/23/1 2/24/1
f 30/25/1 6/26/1 7/27/1
f 24/28/1 30/29/1 29/30/1
f 23/31/1 29/32/1 22/33/1
f 15/34/1 22/35/1 32/36/1
f 14/37/1 32/38/1 25/39/1
f 26/40/1 25/41/1 27/42/1
f 19/43/1 27/44/1 28/45/1
f 2/46/1 28/47/1 3/48/1
f 34/49/1 7/50/1 8/51/1
f 29/52/1 34/53/1 31/54/1
f 22/55/1 31/56/1 38/57/1
f 32/58/1 38/59/1 37/60/1
f 25/61/1 37/62/1 42/63/1
f 27/64/1 42/65/1 43/66/1
f 28/67/1 43/68/1 45/69/1
f 3/70/1 45/71/1 5/72/1
f 33/73/1 8/74/1 9/75/1
f 31/76/1 33/77/1 35/78/1
f 38/79/1 35/80/1 36/81/1
f 37/82/1 36/83/1 39/84/1
f 42/85/1 39/86/1 41/87/1
f 43/88/1 41/89/1 40/90/1
f 45/91/1 40/92/1 44/93/1
f 5/94/1 44/95/1 4/96/1
f 10/1/1 11/97/1 6/2/1
f 12/4/1 10/98/1 21/5/1
f 13/7/1 12/99/1 24/8/1
f 16/10/1 13/100/1 23/11/1
f 18/13/1 16/101/1 15/14/1
f 17/16/1 18/102/1 14/17/1
f 20/19/1 17/103/1 26/20/1
f 1/22/1 20/104/1 19/23/1
f 30/25/1 21/105/1 6/26/1
f 24/28/1 21/106/1 30/29/1
f 23/31/1 24/107/1 29/32/1
f 15/34/1 23/108/1 22/35/1
f 14/37/1 15/109/1 32/38/1
f 26/40/1 14/110/1 25/41/1
f 19/43/1 26/111/1 27/44/1
f 2/46/1 19/112/1 28/47/1
f 34/49/1 30/113/1 7/50/1
f 29/52/1 30/114/1 34/53/1
f 22/55/1 29/115/1 31/56/1
f 32/58/1 22/116/1 38/59/1
f 25/61/1 32/117/1 37/62/1
f 27/64/1 25/118/1 42/65/1
f 28/67/1 27/119/1 43/68/1
f 3/70/1 28/120/1 45/71/1
f 33/73/1 34/121/1 8/74/1
f 31/76/1 34/122/1 33/77/1
f 38/79/1 31/123/1 35/80/1
f 37/82/1 38/124/1 36/83/1
f 42/85/1 37/125/1 39/86/1
f 43/88/1 42/126/1 41/89/1
f 45/91/1 43/127/1 40/92/1
f 5/94/1 45/128/1 44/95/1
