# Blender v2.90.0 OBJ File: 'LevelDesigns.blend'
# www.blender.org
o Base_Wall-Lab.183_Plane.656
v 40.139584 30.046160 -0.259702
v 40.139584 40.046158 -0.259703
v 30.139587 30.046160 -0.259699
v 30.139587 40.046158 -0.259699
v 60.139584 0.046158 -0.259708
v 50.139584 0.046158 -0.259704
v 60.139584 10.046158 -0.259708
v 50.139584 10.046158 -0.259705
v 50.139584 0.046158 -0.259704
v 50.139584 10.046158 -0.259705
v 40.139584 0.046158 -0.259701
v 40.139584 10.046158 -0.259701
v 40.139584 0.046158 -0.259701
v 40.139584 10.046158 -0.259701
v 30.139587 0.046158 -0.259698
v 30.139587 10.046158 -0.259698
v 30.139587 0.046158 -0.259698
v 30.139587 10.046158 -0.259698
v 20.139587 0.046158 -0.259694
v 20.139587 10.046158 -0.259695
v 20.139587 0.046158 -0.259694
v 20.139587 10.046158 -0.259695
v 10.139587 0.046158 -0.259691
v 10.139587 10.046158 -0.259692
v -9.860413 0.046158 -0.259685
v -9.860413 10.046158 -0.259685
v -19.860413 0.046158 -0.259681
v -19.860413 10.046158 -0.259682
v -19.860413 0.046158 -0.259681
v -19.860413 10.046158 -0.259682
v -29.860413 0.046158 -0.259678
v -29.860413 10.046158 -0.259679
v -29.860413 0.046158 -0.259678
v -29.860413 10.046158 -0.259679
v -39.860416 0.046158 -0.259675
v -39.860416 10.046158 -0.259675
v -39.860416 0.046158 -0.259675
v -39.860416 10.046158 -0.259675
v -49.860416 0.046158 -0.259672
v -49.860416 10.046158 -0.259672
v -49.860416 0.046158 -0.259672
v -49.860416 10.046158 -0.259672
v -59.860416 0.046158 -0.259668
v -59.860416 10.046158 -0.259669
v 60.139584 10.046158 -0.259708
v 60.139584 20.046160 -0.259708
v 50.139584 10.046158 -0.259705
v 50.139584 20.046160 -0.259705
v 50.139584 10.046158 -0.259705
v 50.139584 20.046160 -0.259705
v 40.139584 10.046158 -0.259701
v 40.139584 20.046160 -0.259702
v 40.139584 10.046158 -0.259701
v 40.139584 20.046160 -0.259702
v 30.139587 10.046158 -0.259698
v 30.139587 20.046160 -0.259699
v 30.139587 10.046158 -0.259698
v 30.139587 20.046160 -0.259699
v 20.139587 10.046158 -0.259695
v 20.139587 20.046160 -0.259695
v 20.139587 10.046158 -0.259695
v 20.139587 20.046160 -0.259695
v 10.139587 10.046158 -0.259692
v 10.139587 20.046160 -0.259692
v -9.860413 10.046158 -0.259685
v -9.860413 20.046160 -0.259686
v -19.860413 10.046158 -0.259682
v -19.860413 20.046160 -0.259682
v -19.860413 10.046158 -0.259682
v -19.860413 20.046160 -0.259682
v -29.860413 10.046158 -0.259679
v -29.860413 20.046160 -0.259679
v -29.860413 10.046158 -0.259679
v -29.860413 20.046160 -0.259679
v -39.860416 10.046158 -0.259675
v -39.860416 20.046160 -0.259676
v -39.860416 10.046158 -0.259675
v -39.860416 20.046160 -0.259676
v -49.860416 10.046158 -0.259672
v -49.860416 20.046160 -0.259673
v -49.860416 10.046158 -0.259672
v -49.860416 20.046160 -0.259673
v -59.860416 10.046158 -0.259669
v -59.860416 20.046160 -0.259669
v 60.139584 20.046160 -0.259708
v 60.139584 30.046160 -0.259709
v 50.139584 20.046160 -0.259705
v 50.139584 30.046160 -0.259706
v 50.139584 20.046160 -0.259705
v 50.139584 30.046160 -0.259706
v 40.139584 20.046160 -0.259702
v 40.139584 30.046160 -0.259702
v 40.139584 20.046160 -0.259702
v 40.139584 30.046160 -0.259702
v 30.139587 20.046160 -0.259699
v 30.139587 30.046160 -0.259699
v 30.139587 20.046160 -0.259699
v 30.139587 30.046160 -0.259699
v 20.139587 20.046160 -0.259695
v 20.139587 30.046160 -0.259696
v 20.139587 20.046160 -0.259695
v 20.139587 30.046160 -0.259696
v 10.139587 20.046160 -0.259692
v 10.139587 30.046160 -0.259693
v 10.139587 20.046160 -0.259692
v 10.139587 30.046160 -0.259693
v 0.139587 20.046160 -0.259689
v 0.139587 30.046160 -0.259689
v 0.139587 20.046160 -0.259689
v 0.139587 30.046160 -0.259689
v -9.860413 20.046160 -0.259686
v -9.860413 30.046160 -0.259686
v -9.860413 20.046160 -0.259686
v -9.860413 30.046160 -0.259686
v -19.860413 20.046160 -0.259682
v -19.860413 30.046160 -0.259683
v -19.860413 20.046160 -0.259682
v -19.860413 30.046160 -0.259683
v -29.860413 20.046160 -0.259679
v -29.860413 30.046160 -0.259680
v -29.860413 20.046160 -0.259679
v -29.860413 30.046160 -0.259680
v -39.860416 20.046160 -0.259676
v -39.860416 30.046160 -0.259676
v -39.860416 20.046160 -0.259676
v -39.860416 30.046160 -0.259676
v -49.860416 20.046160 -0.259673
v -49.860416 30.046160 -0.259673
v -49.860416 20.046160 -0.259673
v -49.860416 30.046160 -0.259673
v -59.860416 20.046160 -0.259669
v -59.860416 30.046160 -0.259670
v 60.139584 30.046160 -0.259709
v 60.139584 40.046158 -0.259709
v 50.139584 30.046160 -0.259706
v 50.139584 40.046158 -0.259706
v 50.139584 30.046160 -0.259706
v 50.139584 40.046158 -0.259706
v 40.139584 30.046160 -0.259702
v 40.139584 40.046158 -0.259703
v 30.139587 30.046160 -0.259699
v 30.139587 40.046158 -0.259699
v 20.139587 30.046160 -0.259696
v 20.139587 40.046158 -0.259696
v 20.139587 30.046160 -0.259696
v 20.139587 40.046158 -0.259696
v 10.139587 30.046160 -0.259693
v 10.139587 40.046158 -0.259693
v 10.139587 30.046160 -0.259693
v 10.139587 40.046158 -0.259693
v 0.139587 30.046160 -0.259689
v 0.139587 40.046158 -0.259690
v 0.139587 30.046160 -0.259689
v 0.139587 40.046158 -0.259690
v -9.860413 30.046160 -0.259686
v -9.860413 40.046158 -0.259686
v -9.860413 30.046160 -0.259686
v -9.860413 40.046158 -0.259686
v -19.860413 30.046160 -0.259683
v -19.860413 40.046158 -0.259683
v -19.860413 30.046160 -0.259683
v -19.860413 40.046158 -0.259683
v -29.860413 30.046160 -0.259680
v -29.860413 40.046158 -0.259680
v -29.860413 30.046160 -0.259680
v -29.860413 40.046158 -0.259680
v -39.860416 30.046160 -0.259676
v -39.860416 40.046158 -0.259677
v -39.860416 30.046160 -0.259676
v -39.860416 40.046158 -0.259677
v -49.860416 30.046160 -0.259673
v -49.860416 40.046158 -0.259673
v -49.860416 30.046160 -0.259673
v -49.860416 40.046158 -0.259673
v -59.860416 30.046160 -0.259670
v -59.860416 40.046158 -0.259670
v 60.139584 40.046158 -0.259709
v 60.139584 50.046158 -0.259710
v 50.139584 40.046158 -0.259706
v 50.139584 50.046158 -0.259706
v 50.139584 40.046158 -0.259706
v 50.139584 50.046158 -0.259706
v 40.139584 40.046158 -0.259703
v 40.139584 50.046158 -0.259703
v 40.139584 40.046158 -0.259703
v 40.139584 50.046158 -0.259703
v 30.139587 40.046158 -0.259699
v 30.139587 50.046158 -0.259700
v 30.139587 40.046158 -0.259699
v 30.139587 50.046158 -0.259700
v 20.139587 40.046158 -0.259696
v 20.139587 50.046158 -0.259697
v 20.139587 40.046158 -0.259696
v 20.139587 50.046158 -0.259697
v 10.139587 40.046158 -0.259693
v 10.139587 50.046158 -0.259693
v 10.139587 40.046158 -0.259693
v 10.139587 50.046158 -0.259693
v 0.139587 40.046158 -0.259690
v 0.139587 50.046158 -0.259690
v 0.139587 40.046158 -0.259690
v 0.139587 50.046158 -0.259690
v -9.860413 40.046158 -0.259686
v -9.860413 50.046158 -0.259687
v -9.860413 40.046158 -0.259686
v -9.860413 50.046158 -0.259687
v -19.860413 40.046158 -0.259683
v -19.860413 50.046158 -0.259684
v -19.860413 40.046158 -0.259683
v -19.860413 50.046158 -0.259684
v -29.860413 40.046158 -0.259680
v -29.860413 50.046158 -0.259680
v -29.860413 40.046158 -0.259680
v -29.860413 50.046158 -0.259680
v -39.860416 40.046158 -0.259677
v -39.860416 50.046158 -0.259677
v -39.860416 40.046158 -0.259677
v -39.860416 50.046158 -0.259677
v -49.860416 40.046158 -0.259673
v -49.860416 50.046158 -0.259674
v -49.860416 40.046158 -0.259673
v -49.860416 50.046158 -0.259674
v -59.860416 40.046158 -0.259670
v -59.860416 50.046158 -0.259671
v 60.139584 50.046158 -0.259710
v 60.139584 60.046158 -0.259710
v 50.139584 50.046158 -0.259706
v 50.139584 60.046158 -0.259707
v 50.139584 50.046158 -0.259706
v 50.139584 60.046158 -0.259707
v 40.139584 50.046158 -0.259703
v 40.139584 60.046158 -0.259704
v 40.139584 50.046158 -0.259703
v 40.139584 60.046158 -0.259704
v 30.139587 50.046158 -0.259700
v 30.139587 60.046158 -0.259700
v 30.139587 50.046158 -0.259700
v 30.139587 60.046158 -0.259700
v 20.139587 50.046158 -0.259697
v 20.139587 60.046158 -0.259697
v 20.139587 50.046158 -0.259697
v 20.139587 60.046158 -0.259697
v 10.139587 50.046158 -0.259693
v 10.139587 60.046158 -0.259694
v 10.139587 50.046158 -0.259693
v 10.139587 60.046158 -0.259694
v 0.139587 50.046158 -0.259690
v 0.139587 60.046158 -0.259691
v 0.139587 50.046158 -0.259690
v 0.139587 60.046158 -0.259691
v -9.860413 50.046158 -0.259687
v -9.860413 60.046158 -0.259687
v -9.860413 50.046158 -0.259687
v -9.860413 60.046158 -0.259687
v -19.860413 50.046158 -0.259684
v -19.860413 60.046158 -0.259684
v -19.860413 50.046158 -0.259684
v -19.860413 60.046158 -0.259684
v -29.860413 50.046158 -0.259680
v -29.860413 60.046158 -0.259681
v -29.860413 50.046158 -0.259680
v -29.860413 60.046158 -0.259681
v -39.860416 50.046158 -0.259677
v -39.860416 60.046158 -0.259678
v -39.860416 50.046158 -0.259677
v -39.860416 60.046158 -0.259678
v -49.860416 50.046158 -0.259674
v -49.860416 60.046158 -0.259674
v -49.860416 50.046158 -0.259674
v -49.860416 60.046158 -0.259674
v -59.860416 50.046158 -0.259671
v -59.860416 60.046158 -0.259671
vt 0.480699 0.035000
vt 0.245404 0.500000
vt 0.245404 0.034545
vt 0.723805 0.038636
vt 0.488511 0.503636
vt 0.488511 0.038182
vt 0.723805 0.038636
vt 0.488511 0.503636
vt 0.488511 0.038182
vt 0.723805 0.038636
vt 0.488511 0.503636
vt 0.488511 0.038182
vt 0.723805 0.038636
vt 0.488511 0.503636
vt 0.488511 0.038182
vt 0.723805 0.038636
vt 0.488511 0.503636
vt 0.488511 0.038182
vt 0.723805 0.038636
vt 0.488511 0.503636
vt 0.488511 0.038182
vt 0.723805 0.038636
vt 0.488511 0.503636
vt 0.488511 0.038182
vt 0.723805 0.038636
vt 0.488511 0.503636
vt 0.488511 0.038182
vt 0.723805 0.038636
vt 0.488511 0.503636
vt 0.488511 0.038182
vt 0.723805 0.038636
vt 0.488511 0.503636
vt 0.488511 0.038182
vt 0.239890 0.033182
vt 0.004596 0.498182
vt 0.004596 0.032727
vt 0.239890 0.033182
vt 0.004596 0.498182
vt 0.004596 0.032727
vt 0.239890 0.033182
vt 0.004596 0.498182
vt 0.004596 0.032727
vt 0.239890 0.033182
vt 0.004596 0.498182
vt 0.004596 0.032727
vt 0.239890 0.033182
vt 0.004596 0.498182
vt 0.004596 0.032727
vt 0.239890 0.033182
vt 0.004596 0.498182
vt 0.004596 0.032727
vt 0.239890 0.033182
vt 0.004596 0.498182
vt 0.004596 0.032727
vt 0.239890 0.033182
vt 0.004596 0.498182
vt 0.004596 0.032727
vt 0.239890 0.033182
vt 0.004596 0.498182
vt 0.004596 0.032727
vt 0.239890 0.033182
vt 0.004596 0.498182
vt 0.004596 0.032727
vt 0.480699 0.035000
vt 0.245404 0.500000
vt 0.245404 0.034545
vt 0.965074 0.525909
vt 0.729779 0.990909
vt 0.729779 0.525455
vt 0.480699 0.035000
vt 0.245404 0.500000
vt 0.245404 0.034545
vt 0.480699 0.035000
vt 0.245404 0.500000
vt 0.245404 0.034545
vt 0.480699 0.035000
vt 0.245404 0.500000
vt 0.245404 0.034545
vt 0.480699 0.035000
vt 0.245404 0.500000
vt 0.245404 0.034545
vt 0.480699 0.035000
vt 0.245404 0.500000
vt 0.245404 0.034545
vt 0.480699 0.035000
vt 0.245404 0.500000
vt 0.245404 0.034545
vt 0.480699 0.035000
vt 0.245404 0.500000
vt 0.245404 0.034545
vt 0.480699 0.035000
vt 0.245404 0.500000
vt 0.245404 0.034545
vt 0.480699 0.035000
vt 0.245404 0.500000
vt 0.245404 0.034545
vt 0.480699 0.035000
vt 0.245404 0.500000
vt 0.245404 0.034545
vt 0.480699 0.035000
vt 0.245404 0.500000
vt 0.245404 0.034545
vt 0.480699 0.035000
vt 0.245404 0.500000
vt 0.245404 0.034545
vt 0.480699 0.035000
vt 0.245404 0.500000
vt 0.245404 0.034545
vt 0.480699 0.035000
vt 0.245404 0.500000
vt 0.245404 0.034545
vt 0.480699 0.035000
vt 0.245404 0.500000
vt 0.245404 0.034545
vt 0.480699 0.035000
vt 0.245404 0.500000
vt 0.245404 0.034545
vt 0.480699 0.035000
vt 0.245404 0.500000
vt 0.245404 0.034545
vt 0.480699 0.035000
vt 0.245404 0.500000
vt 0.245404 0.034545
vt 0.480699 0.035000
vt 0.245404 0.500000
vt 0.245404 0.034545
vt 0.480699 0.035000
vt 0.245404 0.500000
vt 0.245404 0.034545
vt 0.480699 0.035000
vt 0.245404 0.500000
vt 0.245404 0.034545
vt 0.480699 0.035000
vt 0.245404 0.500000
vt 0.245404 0.034545
vt 0.480699 0.035000
vt 0.245404 0.500000
vt 0.245404 0.034545
vt 0.480699 0.035000
vt 0.245404 0.500000
vt 0.245404 0.034545
vt 0.240809 0.523636
vt 0.005515 0.988636
vt 0.005515 0.523182
vt 0.475643 0.523636
vt 0.240349 0.988636
vt 0.240349 0.523182
vt 0.480699 0.035000
vt 0.245404 0.500000
vt 0.245404 0.034545
vt 0.480699 0.035000
vt 0.245404 0.500000
vt 0.245404 0.034545
vt 0.480699 0.035000
vt 0.245404 0.500000
vt 0.245404 0.034545
vt 0.480699 0.035000
vt 0.245404 0.500000
vt 0.245404 0.034545
vt 0.480699 0.035000
vt 0.245404 0.500000
vt 0.245404 0.034545
vt 0.480699 0.035000
vt 0.245404 0.500000
vt 0.245404 0.034545
vt 0.480699 0.035000
vt 0.245404 0.500000
vt 0.245404 0.034545
vt 0.720588 0.524091
vt 0.485294 0.989091
vt 0.485294 0.523636
vt 0.480699 0.035000
vt 0.245404 0.500000
vt 0.245404 0.034545
vt 0.480699 0.035000
vt 0.245404 0.500000
vt 0.245404 0.034545
vt 0.480699 0.035000
vt 0.245404 0.500000
vt 0.245404 0.034545
vt 0.480699 0.035000
vt 0.245404 0.500000
vt 0.245404 0.034545
vt 0.480699 0.035000
vt 0.245404 0.500000
vt 0.245404 0.034545
vt 0.480699 0.035000
vt 0.245404 0.500000
vt 0.245404 0.034545
vt 0.480699 0.035000
vt 0.245404 0.500000
vt 0.245404 0.034545
vt 0.480699 0.035000
vt 0.245404 0.500000
vt 0.245404 0.034545
vt 0.480699 0.035000
vt 0.245404 0.500000
vt 0.245404 0.034545
vt 0.480699 0.035000
vt 0.245404 0.500000
vt 0.245404 0.034545
vt 0.485294 0.524091
vt 0.720588 0.989091
vt 0.720588 0.523636
vt 0.480699 0.500000
vt 0.723805 0.503636
vt 0.723805 0.503636
vt 0.723805 0.503636
vt 0.723805 0.503636
vt 0.723805 0.503636
vt 0.723805 0.503636
vt 0.723805 0.503636
vt 0.723805 0.503636
vt 0.723805 0.503636
vt 0.723805 0.503636
vt 0.239890 0.498182
vt 0.239890 0.498182
vt 0.239890 0.498182
vt 0.239890 0.498182
vt 0.239890 0.498182
vt 0.239890 0.498182
vt 0.239890 0.498182
vt 0.239890 0.498182
vt 0.239890 0.498182
vt 0.239890 0.498182
vt 0.480699 0.500000
vt 0.965074 0.990909
vt 0.480699 0.500000
vt 0.480699 0.500000
vt 0.480699 0.500000
vt 0.480699 0.500000
vt 0.480699 0.500000
vt 0.480699 0.500000
vt 0.480699 0.500000
vt 0.480699 0.500000
vt 0.480699 0.500000
vt 0.480699 0.500000
vt 0.480699 0.500000
vt 0.480699 0.500000
vt 0.480699 0.500000
vt 0.480699 0.500000
vt 0.480699 0.500000
vt 0.480699 0.500000
vt 0.480699 0.500000
vt 0.480699 0.500000
vt 0.480699 0.500000
vt 0.480699 0.500000
vt 0.480699 0.500000
vt 0.480699 0.500000
vt 0.480699 0.500000
vt 0.480699 0.500000
vt 0.240809 0.988636
vt 0.475643 0.988636
vt 0.480699 0.500000
vt 0.480699 0.500000
vt 0.480699 0.500000
vt 0.480699 0.500000
vt 0.480699 0.500000
vt 0.480699 0.500000
vt 0.480699 0.500000
vt 0.720588 0.989091
vt 0.480699 0.500000
vt 0.480699 0.500000
vt 0.480699 0.500000
vt 0.480699 0.500000
vt 0.480699 0.500000
vt 0.480699 0.500000
vt 0.480699 0.500000
vt 0.480699 0.500000
vt 0.480699 0.500000
vt 0.480699 0.500000
vt 0.485294 0.989091
vn -0.0000 -0.0000 -1.0000
s off
f 3/1/1 2/2/1 1/3/1
f 6/4/1 7/5/1 5/6/1
f 11/7/1 10/8/1 9/9/1
f 15/10/1 14/11/1 13/12/1
f 19/13/1 18/14/1 17/15/1
f 23/16/1 22/17/1 21/18/1
f 27/19/1 26/20/1 25/21/1
f 31/22/1 30/23/1 29/24/1
f 35/25/1 34/26/1 33/27/1
f 39/28/1 38/29/1 37/30/1
f 43/31/1 42/32/1 41/33/1
f 47/34/1 46/35/1 45/36/1
f 51/37/1 50/38/1 49/39/1
f 55/40/1 54/41/1 53/42/1
f 59/43/1 58/44/1 57/45/1
f 63/46/1 62/47/1 61/48/1
f 67/49/1 66/50/1 65/51/1
f 71/52/1 70/53/1 69/54/1
f 75/55/1 74/56/1 73/57/1
f 79/58/1 78/59/1 77/60/1
f 83/61/1 82/62/1 81/63/1
f 87/64/1 86/65/1 85/66/1
f 91/67/1 90/68/1 89/69/1
f 95/70/1 94/71/1 93/72/1
f 99/73/1 98/74/1 97/75/1
f 103/76/1 102/77/1 101/78/1
f 107/79/1 106/80/1 105/81/1
f 111/82/1 110/83/1 109/84/1
f 115/85/1 114/86/1 113/87/1
f 119/88/1 118/89/1 117/90/1
f 123/91/1 122/92/1 121/93/1
f 127/94/1 126/95/1 125/96/1
f 131/97/1 130/98/1 129/99/1
f 135/100/1 134/101/1 133/102/1
f 139/103/1 138/104/1 137/105/1
f 143/106/1 142/107/1 141/108/1
f 147/109/1 146/110/1 145/111/1
f 151/112/1 150/113/1 149/114/1
f 155/115/1 154/116/1 153/117/1
f 159/118/1 158/119/1 157/120/1
f 163/121/1 162/122/1 161/123/1
f 167/124/1 166/125/1 165/126/1
f 171/127/1 170/128/1 169/129/1
f 175/130/1 174/131/1 173/132/1
f 179/133/1 178/134/1 177/135/1
f 183/136/1 182/137/1 181/138/1
f 187/139/1 186/140/1 185/141/1
f 191/142/1 190/143/1 189/144/1
f 195/145/1 194/146/1 193/147/1
f 199/148/1 198/149/1 197/150/1
f 203/151/1 202/152/1 201/153/1
f 207/154/1 206/155/1 205/156/1
f 211/157/1 210/158/1 209/159/1
f 215/160/1 214/161/1 213/162/1
f 219/163/1 218/164/1 217/165/1
f 223/166/1 222/167/1 221/168/1
f 227/169/1 226/170/1 225/171/1
f 231/172/1 230/173/1 229/174/1
f 235/175/1 234/176/1 233/177/1
f 239/178/1 238/179/1 237/180/1
f 243/181/1 242/182/1 241/183/1
f 247/184/1 246/185/1 245/186/1
f 251/187/1 250/188/1 249/189/1
f 255/190/1 254/191/1 253/192/1
f 259/193/1 258/194/1 257/195/1
f 263/196/1 262/197/1 261/198/1
f 267/199/1 266/200/1 265/201/1
f 271/202/1 270/203/1 269/204/1
f 3/1/1 4/205/1 2/2/1
f 6/4/1 8/206/1 7/5/1
f 11/7/1 12/207/1 10/8/1
f 15/10/1 16/208/1 14/11/1
f 19/13/1 20/209/1 18/14/1
f 23/16/1 24/210/1 22/17/1
f 27/19/1 28/211/1 26/20/1
f 31/22/1 32/212/1 30/23/1
f 35/25/1 36/213/1 34/26/1
f 39/28/1 40/214/1 38/29/1
f 43/31/1 44/215/1 42/32/1
f 47/34/1 48/216/1 46/35/1
f 51/37/1 52/217/1 50/38/1
f 55/40/1 56/218/1 54/41/1
f 59/43/1 60/219/1 58/44/1
f 63/46/1 64/220/1 62/47/1
f 67/49/1 68/221/1 66/50/1
f 71/52/1 72/222/1 70/53/1
f 75/55/1 76/223/1 74/56/1
f 79/58/1 80/224/1 78/59/1
f 83/61/1 84/225/1 82/62/1
f 87/64/1 88/226/1 86/65/1
f 91/67/1 92/227/1 90/68/1
f 95/70/1 96/228/1 94/71/1
f 99/73/1 100/229/1 98/74/1
f 103/76/1 104/230/1 102/77/1
f 107/79/1 108/231/1 106/80/1
f 111/82/1 112/232/1 110/83/1
f 115/85/1 116/233/1 114/86/1
f 119/88/1 120/234/1 118/89/1
f 123/91/1 124/235/1 122/92/1
f 127/94/1 128/236/1 126/95/1
f 131/97/1 132/237/1 130/98/1
f 135/100/1 136/238/1 134/101/1
f 139/103/1 140/239/1 138/104/1
f 143/106/1 144/240/1 142/107/1
f 147/109/1 148/241/1 146/110/1
f 151/112/1 152/242/1 150/113/1
f 155/115/1 156/243/1 154/116/1
f 159/118/1 160/244/1 158/119/1
f 163/121/1 164/245/1 162/122/1
f 167/124/1 168/246/1 166/125/1
f 171/127/1 172/247/1 170/128/1
f 175/130/1 176/248/1 174/131/1
f 179/133/1 180/249/1 178/134/1
f 183/136/1 184/250/1 182/137/1
f 187/139/1 188/251/1 186/140/1
f 191/142/1 192/252/1 190/143/1
f 195/145/1 196/253/1 194/146/1
f 199/148/1 200/254/1 198/149/1
f 203/151/1 204/255/1 202/152/1
f 207/154/1 208/256/1 206/155/1
f 211/157/1 212/257/1 210/158/1
f 215/160/1 216/258/1 214/161/1
f 219/163/1 220/259/1 218/164/1
f 223/166/1 224/260/1 222/167/1
f 227/169/1 228/261/1 226/170/1
f 231/172/1 232/262/1 230/173/1
f 235/175/1 236/263/1 234/176/1
f 239/178/1 240/264/1 238/179/1
f 243/181/1 244/265/1 242/182/1
f 247/184/1 248/266/1 246/185/1
f 251/187/1 252/267/1 250/188/1
f 255/190/1 256/268/1 254/191/1
f 259/193/1 260/269/1 258/194/1
f 263/196/1 264/270/1 262/197/1
f 267/199/1 268/271/1 266/200/1
f 271/202/1 272/272/1 270/203/1
