# Blender v2.91.2 OBJ File: 'LevelDesigns.blend'
# www.blender.org
mtllib F-FW.mtl
o F-FW_Plane.608
v 30.000000 -20.697676 -0.000001
v 40.000000 -20.697676 -0.000001
v -40.000000 -20.697676 -0.000001
v -40.000000 -10.697676 -0.000000
v -30.000000 -20.697676 -0.000001
v -20.000000 -20.697676 -0.000001
v -20.000000 -10.697676 -0.000000
v -10.000000 -20.697676 -0.000001
v -10.000000 -10.697676 -0.000000
v 10.000000 -20.697676 -0.000001
v 10.000000 -10.697676 -0.000000
v 20.000000 -20.697676 -0.000001
v -30.000000 -10.697676 -0.000000
v -30.000000 -0.697676 -0.000000
v -20.000000 -0.697676 -0.000000
v -10.000000 -0.697676 -0.000000
v 10.000000 -0.697676 -0.000000
v 20.000000 -10.697676 -0.000000
v 20.000000 -0.697676 -0.000000
v 30.000000 -10.697676 -0.000000
v 30.000000 -0.697676 -0.000000
v 40.000000 -10.697676 -0.000000
v 40.000000 -0.697676 -0.000000
v -40.000000 -0.697676 -0.000000
v -40.000000 9.302324 0.000000
v -30.000000 9.302324 0.000000
v -20.000000 9.302324 0.000000
v -10.000000 9.302324 0.000000
v 0.000000 9.302324 0.000000
v 0.000000 -0.697676 -0.000000
v 40.000000 9.302324 0.000000
v -40.000000 19.302326 0.000001
v -30.000000 19.302326 0.000001
v -20.000000 19.302326 0.000001
v -10.000000 19.302326 0.000001
v 0.000000 19.302326 0.000001
v 10.000000 9.302324 0.000000
v 10.000000 19.302326 0.000001
v 20.000000 19.302326 0.000001
v 20.000000 9.302324 0.000000
v 30.000000 9.302324 0.000000
v 30.000000 19.302326 0.000001
v 40.000000 19.302326 0.000001
vt 0.543091 0.058236
vt 0.963400 0.477830
vt 0.543091 0.478455
vt 0.543091 0.058236
vt 0.963400 0.477830
vt 0.543091 0.478455
vt 0.545313 0.940625
vt 0.966875 0.518438
vt 0.966875 0.940625
vt 0.543091 0.058236
vt 0.963400 0.477830
vt 0.543091 0.478455
vt 0.543091 0.058236
vt 0.963400 0.477830
vt 0.543091 0.478455
vt 0.545313 0.940625
vt 0.966875 0.518438
vt 0.966875 0.940625
vt 0.543091 0.058236
vt 0.963400 0.477830
vt 0.543091 0.478455
vt 0.545313 0.940625
vt 0.966875 0.518438
vt 0.966875 0.940625
vt 0.543091 0.058236
vt 0.963400 0.477830
vt 0.543091 0.478455
vt 0.543091 0.058236
vt 0.963400 0.477830
vt 0.543091 0.478455
vt 0.545313 0.940625
vt 0.966875 0.518438
vt 0.966875 0.940625
vt 0.543091 0.058236
vt 0.963400 0.477830
vt 0.543091 0.478455
vt 0.543091 0.058236
vt 0.963400 0.477830
vt 0.543091 0.478455
vt 0.035937 0.940625
vt 0.457500 0.518438
vt 0.457500 0.940625
vt 0.543091 0.058236
vt 0.963400 0.477830
vt 0.543091 0.478455
vt 0.543091 0.058236
vt 0.963400 0.477830
vt 0.543091 0.478455
vt 0.543091 0.058236
vt 0.963400 0.477830
vt 0.543091 0.478455
vt 0.543091 0.058236
vt 0.963400 0.477830
vt 0.543091 0.478455
vt 0.035937 0.940625
vt 0.457500 0.518438
vt 0.457500 0.940625
vt 0.543091 0.058236
vt 0.963400 0.477830
vt 0.543091 0.478455
vt 0.543091 0.058236
vt 0.963400 0.477830
vt 0.543091 0.478455
vt 0.035937 0.940625
vt 0.457500 0.518438
vt 0.457500 0.940625
vt 0.543091 0.058236
vt 0.963400 0.477830
vt 0.543091 0.478455
vt 0.543091 0.058236
vt 0.963400 0.477830
vt 0.543091 0.478455
vt 0.543091 0.058236
vt 0.963400 0.477830
vt 0.543091 0.478455
vt 0.543091 0.058236
vt 0.963400 0.477830
vt 0.543091 0.478455
vt 0.035937 0.940625
vt 0.457500 0.518438
vt 0.457500 0.940625
vt 0.543091 0.058236
vt 0.963400 0.477830
vt 0.543091 0.478455
vt 0.963400 0.057611
vt 0.963400 0.057611
vt 0.545313 0.518438
vt 0.963400 0.057611
vt 0.963400 0.057611
vt 0.545313 0.518438
vt 0.963400 0.057611
vt 0.545313 0.518438
vt 0.963400 0.057611
vt 0.963400 0.057611
vt 0.545313 0.518438
vt 0.963400 0.057611
vt 0.963400 0.057611
vt 0.035937 0.518438
vt 0.963400 0.057611
vt 0.963400 0.057611
vt 0.963400 0.057611
vt 0.963400 0.057611
vt 0.035937 0.518438
vt 0.963400 0.057611
vt 0.963400 0.057611
vt 0.035937 0.518438
vt 0.963400 0.057611
vt 0.963400 0.057611
vt 0.963400 0.057611
vt 0.963400 0.057611
vt 0.035937 0.518438
vt 0.963400 0.057611
vn 0.0000 -0.0000 1.0000
usemtl Material.004
s off
f 2/1/1 20/2/1 1/3/1
f 5/4/1 4/5/1 3/6/1
f 6/7/1 13/8/1 5/9/1
f 8/10/1 7/11/1 6/12/1
f 12/13/1 11/14/1 10/15/1
f 1/16/1 18/17/1 12/18/1
f 13/19/1 24/20/1 4/21/1
f 7/22/1 14/23/1 13/24/1
f 9/25/1 15/26/1 7/27/1
f 18/28/1 17/29/1 11/30/1
f 20/31/1 19/32/1 18/33/1
f 22/34/1 21/35/1 20/36/1
f 14/37/1 25/38/1 24/39/1
f 15/40/1 26/41/1 14/42/1
f 16/43/1 27/44/1 15/45/1
f 30/46/1 28/47/1 16/48/1
f 17/49/1 29/50/1 30/51/1
f 19/52/1 37/53/1 17/54/1
f 21/55/1 40/56/1 19/57/1
f 23/58/1 41/59/1 21/60/1
f 26/61/1 32/62/1 25/63/1
f 27/64/1 33/65/1 26/66/1
f 28/67/1 34/68/1 27/69/1
f 29/70/1 35/71/1 28/72/1
f 37/73/1 36/74/1 29/75/1
f 40/76/1 38/77/1 37/78/1
f 41/79/1 39/80/1 40/81/1
f 31/82/1 42/83/1 41/84/1
f 2/1/1 22/85/1 20/2/1
f 5/4/1 13/86/1 4/5/1
f 6/7/1 7/87/1 13/8/1
f 8/10/1 9/88/1 7/11/1
f 12/13/1 18/89/1 11/14/1
f 1/16/1 20/90/1 18/17/1
f 13/19/1 14/91/1 24/20/1
f 7/22/1 15/92/1 14/23/1
f 9/25/1 16/93/1 15/26/1
f 18/28/1 19/94/1 17/29/1
f 20/31/1 21/95/1 19/32/1
f 22/34/1 23/96/1 21/35/1
f 14/37/1 26/97/1 25/38/1
f 15/40/1 27/98/1 26/41/1
f 16/43/1 28/99/1 27/44/1
f 30/46/1 29/100/1 28/47/1
f 17/49/1 37/101/1 29/50/1
f 19/52/1 40/102/1 37/53/1
f 21/55/1 41/103/1 40/56/1
f 23/58/1 31/104/1 41/59/1
f 26/61/1 33/105/1 32/62/1
f 27/64/1 34/106/1 33/65/1
f 28/67/1 35/107/1 34/68/1
f 29/70/1 36/108/1 35/71/1
f 37/73/1 38/109/1 36/74/1
f 40/76/1 39/110/1 38/77/1
f 41/79/1 42/111/1 39/80/1
f 31/82/1 43/112/1 42/83/1
