# Blender v2.91.2 OBJ File: 'LevelDesign(Final-Version)s.blend'
# www.blender.org
mtllib F-RW.mtl
o F-RW_Plane.671
v 30.000002 -10.000002 -0.000000
v 40.000000 -20.000002 -0.000001
v 40.000000 -10.000002 -0.000000
v -40.000000 -20.000002 -0.000001
v -29.999998 -20.000002 -0.000001
v -19.999998 -20.000002 -0.000001
v -9.999999 -20.000002 -0.000001
v -9.999999 -10.000002 -0.000000
v 0.000001 -20.000002 -0.000001
v 10.000001 -20.000002 -0.000001
v 10.000001 -10.000002 -0.000000
v 20.000002 -20.000002 -0.000001
v 20.000002 -10.000002 -0.000000
v 30.000002 -20.000002 -0.000001
v -40.000000 -10.000002 -0.000000
v -29.999998 -10.000002 -0.000000
v -29.999998 -0.000002 -0.000000
v -19.999998 -10.000002 -0.000000
v -19.999998 -0.000002 -0.000000
v -9.999999 -0.000002 -0.000000
v 0.000001 -10.000002 -0.000000
v -40.000000 -0.000002 -0.000000
v -40.000000 9.999998 0.000000
v -19.999998 9.999998 0.000000
v -9.999999 9.999998 0.000000
v 0.000001 -0.000002 -0.000000
v 0.000001 9.999998 0.000000
v 10.000001 -0.000002 -0.000000
v 20.000002 -0.000002 -0.000000
v 30.000002 -0.000002 -0.000000
v 30.000002 9.999998 0.000000
v 40.000000 -0.000002 -0.000000
v 40.000000 9.999998 0.000000
v -40.000000 20.000000 0.000001
v -29.999998 20.000000 0.000001
v -29.999998 9.999998 0.000000
v -19.999998 20.000000 0.000001
v -9.999999 20.000000 0.000001
v 0.000001 20.000000 0.000001
v 10.000001 20.000000 0.000001
v 10.000001 9.999998 0.000000
v 20.000002 9.999998 0.000000
v 20.000002 20.000000 0.000001
v 30.000002 20.000000 0.000001
v 40.000000 20.000000 0.000001
vt 0.545313 0.940625
vt 0.966875 0.518438
vt 0.966875 0.940625
vt 0.543091 0.058236
vt 0.963400 0.477830
vt 0.543091 0.478455
vt 0.545313 0.940625
vt 0.966875 0.518438
vt 0.966875 0.940625
vt 0.543091 0.058236
vt 0.963400 0.477830
vt 0.543091 0.478455
vt 0.545313 0.940625
vt 0.966875 0.518438
vt 0.966875 0.940625
vt 0.543091 0.058236
vt 0.963400 0.477830
vt 0.543091 0.478455
vt 0.545313 0.940625
vt 0.966875 0.518438
vt 0.966875 0.940625
vt 0.543091 0.058236
vt 0.963400 0.477830
vt 0.543091 0.478455
vt 0.543091 0.058236
vt 0.963400 0.477830
vt 0.543091 0.478455
vt 0.035937 0.940625
vt 0.457500 0.518438
vt 0.457500 0.940625
vt 0.543091 0.058236
vt 0.963400 0.477830
vt 0.543091 0.478455
vt 0.035937 0.940625
vt 0.457500 0.518438
vt 0.457500 0.940625
vt 0.543091 0.058236
vt 0.963400 0.477830
vt 0.543091 0.478455
vt 0.035937 0.940625
vt 0.457500 0.518438
vt 0.457500 0.940625
vt 0.543091 0.058236
vt 0.963400 0.477830
vt 0.543091 0.478455
vt 0.035937 0.940625
vt 0.457500 0.518438
vt 0.457500 0.940625
vt 0.543091 0.058236
vt 0.963400 0.477830
vt 0.543091 0.478455
vt 0.545313 0.940625
vt 0.966875 0.518438
vt 0.966875 0.940625
vt 0.543091 0.058236
vt 0.963400 0.477830
vt 0.543091 0.478455
vt 0.035937 0.940625
vt 0.457500 0.518438
vt 0.457500 0.940625
vt 0.543091 0.058236
vt 0.963400 0.477830
vt 0.543091 0.478455
vt 0.545313 0.940625
vt 0.966875 0.518438
vt 0.966875 0.940625
vt 0.543091 0.058236
vt 0.963400 0.477830
vt 0.543091 0.478455
vt 0.035937 0.940625
vt 0.457500 0.518438
vt 0.457500 0.940625
vt 0.543091 0.058236
vt 0.963400 0.477830
vt 0.543091 0.478455
vt 0.035937 0.940625
vt 0.457500 0.518438
vt 0.457500 0.940625
vt 0.543091 0.058236
vt 0.963400 0.477830
vt 0.543091 0.478455
vt 0.545313 0.940625
vt 0.966875 0.518438
vt 0.966875 0.940625
vt 0.543091 0.058236
vt 0.963400 0.477830
vt 0.543091 0.478455
vt 0.035937 0.940625
vt 0.457500 0.518438
vt 0.457500 0.940625
vt 0.543091 0.058236
vt 0.963400 0.477830
vt 0.543091 0.478455
vt 0.545313 0.940625
vt 0.966875 0.518438
vt 0.966875 0.940625
vt 0.545313 0.518438
vt 0.963400 0.057611
vt 0.545313 0.518438
vt 0.963400 0.057611
vt 0.545313 0.518438
vt 0.963400 0.057611
vt 0.545313 0.518438
vt 0.963400 0.057611
vt 0.963400 0.057611
vt 0.035937 0.518438
vt 0.963400 0.057611
vt 0.035937 0.518438
vt 0.963400 0.057611
vt 0.035937 0.518438
vt 0.963400 0.057611
vt 0.035937 0.518438
vt 0.963400 0.057611
vt 0.545313 0.518438
vt 0.963400 0.057611
vt 0.035937 0.518438
vt 0.963400 0.057611
vt 0.545313 0.518438
vt 0.963400 0.057611
vt 0.035937 0.518438
vt 0.963400 0.057611
vt 0.035937 0.518438
vt 0.963400 0.057611
vt 0.545313 0.518438
vt 0.963400 0.057611
vt 0.035937 0.518438
vt 0.963400 0.057611
vt 0.545313 0.518438
vn 0.0000 -0.0000 1.0000
usemtl Material.005
s off
f 2/1/1 1/2/1 14/3/1
f 5/4/1 15/5/1 4/6/1
f 6/7/1 16/8/1 5/9/1
f 7/10/1 18/11/1 6/12/1
f 9/13/1 8/14/1 7/15/1
f 10/16/1 21/17/1 9/18/1
f 12/19/1 11/20/1 10/21/1
f 14/22/1 13/23/1 12/24/1
f 16/25/1 22/26/1 15/27/1
f 18/28/1 17/29/1 16/30/1
f 8/31/1 19/32/1 18/33/1
f 21/34/1 20/35/1 8/36/1
f 11/37/1 26/38/1 21/39/1
f 13/40/1 28/41/1 11/42/1
f 1/43/1 29/44/1 13/45/1
f 3/46/1 30/47/1 1/48/1
f 17/49/1 23/50/1 22/51/1
f 19/52/1 36/53/1 17/54/1
f 20/55/1 24/56/1 19/57/1
f 26/58/1 25/59/1 20/60/1
f 28/61/1 27/62/1 26/63/1
f 29/64/1 41/65/1 28/66/1
f 30/67/1 42/68/1 29/69/1
f 32/70/1 31/71/1 30/72/1
f 36/73/1 34/74/1 23/75/1
f 24/76/1 35/77/1 36/78/1
f 25/79/1 37/80/1 24/81/1
f 27/82/1 38/83/1 25/84/1
f 41/85/1 39/86/1 27/87/1
f 42/88/1 40/89/1 41/90/1
f 31/91/1 43/92/1 42/93/1
f 33/94/1 44/95/1 31/96/1
f 2/1/1 3/97/1 1/2/1
f 5/4/1 16/98/1 15/5/1
f 6/7/1 18/99/1 16/8/1
f 7/10/1 8/100/1 18/11/1
f 9/13/1 21/101/1 8/14/1
f 10/16/1 11/102/1 21/17/1
f 12/19/1 13/103/1 11/20/1
f 14/22/1 1/104/1 13/23/1
f 16/25/1 17/105/1 22/26/1
f 18/28/1 19/106/1 17/29/1
f 8/31/1 20/107/1 19/32/1
f 21/34/1 26/108/1 20/35/1
f 11/37/1 28/109/1 26/38/1
f 13/40/1 29/110/1 28/41/1
f 1/43/1 30/111/1 29/44/1
f 3/46/1 32/112/1 30/47/1
f 17/49/1 36/113/1 23/50/1
f 19/52/1 24/114/1 36/53/1
f 20/55/1 25/115/1 24/56/1
f 26/58/1 27/116/1 25/59/1
f 28/61/1 41/117/1 27/62/1
f 29/64/1 42/118/1 41/65/1
f 30/67/1 31/119/1 42/68/1
f 32/70/1 33/120/1 31/71/1
f 36/73/1 35/121/1 34/74/1
f 24/76/1 37/122/1 35/77/1
f 25/79/1 38/123/1 37/80/1
f 27/82/1 39/124/1 38/83/1
f 41/85/1 40/125/1 39/86/1
f 42/88/1 43/126/1 40/89/1
f 31/91/1 44/127/1 43/92/1
f 33/94/1 45/128/1 44/95/1
