# Blender v2.91.2 OBJ File: 'LevelDesign(Final-Version)s.blend'
# www.blender.org
mtllib L2-Floor.mtl
o L2-Floor_Plane.271
v 30.000000 0.000000 40.174244
v 40.000000 0.000000 40.174244
v -40.000000 0.000000 40.174244
v -30.000000 0.000000 40.174244
v -20.000000 0.000000 40.174244
v -10.000000 0.000000 40.174244
v -10.000000 0.000000 30.174244
v 0.000000 0.000000 40.174244
v 10.000000 0.000000 40.174244
v 10.000000 0.000000 30.174244
v 20.000000 0.000000 40.174244
v 20.000000 0.000000 30.174244
v -40.000000 0.000000 30.174244
v -40.000000 0.000000 20.174244
v -30.000000 0.000000 30.174244
v -30.000000 0.000000 20.174244
v -20.000000 0.000000 30.174244
v -20.000000 0.000000 20.174244
v 0.000000 0.000000 20.174244
v 0.000000 0.000000 30.174244
v 30.000000 0.000000 30.174244
v 30.000000 0.000000 20.174244
v 40.000000 0.000000 30.174244
v 40.000000 0.000000 20.174244
v -40.000000 0.000000 10.174244
v -30.000000 0.000000 10.174244
v -10.000000 0.000000 20.174244
v -10.000000 0.000000 10.174244
v 10.000000 0.000000 20.174244
v 10.000000 0.000000 10.174244
v 20.000000 0.000000 10.174244
v 20.000000 0.000000 20.174244
v -40.000000 0.000000 0.174244
v -20.000000 0.000000 10.174244
v -20.000000 0.000000 0.174244
v 0.000000 0.000000 10.174244
v 10.000000 0.000000 0.174244
v 30.000000 0.000000 10.174244
v 30.000000 0.000000 0.174244
v 40.000000 0.000000 10.174244
v 40.000000 0.000000 0.174244
v -30.000000 0.000000 0.174244
v -30.000000 0.000000 -9.825756
v -20.000000 0.000000 -9.825756
v -10.000000 0.000000 0.174244
v -10.000000 0.000000 -9.825756
v 0.000000 0.000000 0.174244
v 10.000000 0.000000 -9.825756
v 20.000000 0.000000 -9.825756
v 20.000000 0.000000 0.174244
v 30.000000 0.000000 -9.825756
v 40.000000 0.000000 -9.825756
v -40.000000 0.000000 -9.825756
v 0.000000 0.000000 -9.825756
v 10.000000 0.000000 -19.825756
v 20.000000 0.000000 -19.825756
v 40.000000 0.000000 -19.825756
v -40.000000 0.000000 -19.825756
v -30.000000 0.000000 -19.825756
v -20.000000 0.000000 -19.825756
v -20.000000 0.000000 -29.825756
v -10.000000 0.000000 -19.825756
v -10.000000 0.000000 -29.825756
v 0.000000 0.000000 -19.825756
v 10.000000 0.000000 -29.825756
v 30.000000 0.000000 -19.825756
v 30.000000 0.000000 -29.825756
v -40.000000 0.000000 -29.825756
v -40.000000 0.000000 -39.825756
v -30.000000 0.000000 -39.825756
v -30.000000 0.000000 -29.825756
v -20.000000 0.000000 -39.825756
v -10.000000 0.000000 -39.825756
v 0.000000 0.000000 -39.825756
v 0.000000 0.000000 -29.825756
v 10.000000 0.000000 -39.825756
v 20.000000 0.000000 -29.825756
v 20.000000 0.000000 -39.825756
v 30.000000 0.000000 -39.825756
v 40.000000 0.000000 -29.825756
v 40.000000 0.000000 -39.825756
vt 0.302223 0.449521
vt 0.003361 0.011791
vt 0.302223 0.011791
vt 0.003361 0.971997
vt 0.310755 0.534267
vt 0.003361 0.534267
vt 0.003361 0.971997
vt 0.310755 0.534267
vt 0.003361 0.534267
vt 0.003361 0.971997
vt 0.310755 0.534267
vt 0.003361 0.534267
vt 0.302223 0.449521
vt 0.003361 0.011791
vt 0.302223 0.011791
vt 0.302223 0.011791
vt 0.003361 0.449521
vt 0.003361 0.971997
vt 0.310755 0.534267
vt 0.003361 0.534267
vt 0.003361 0.971997
vt 0.310755 0.534267
vt 0.003361 0.534267
vt 0.346691 0.011422
vt 0.653568 0.446942
vt 0.346691 0.446942
vt 0.699069 0.540162
vt 1.000000 0.972734
vt 0.699328 0.972365
vt 0.351861 0.971997
vt 0.659255 0.534267
vt 0.351861 0.534267
vt 0.302223 0.449521
vt 0.003361 0.011791
vt 0.302223 0.011791
vt 0.302223 0.011791
vt 0.003361 0.449521
vt 0.003361 0.971997
vt 0.310755 0.534267
vt 0.003361 0.534267
vt 0.003361 0.971997
vt 0.310755 0.534267
vt 0.003361 0.534267
vt 0.302223 0.449521
vt 0.003361 0.011791
vt 0.302223 0.011791
vt 0.302223 0.011791
vt 0.003361 0.449521
vt 0.302223 0.449521
vt 0.003361 0.971997
vt 0.310755 0.534267
vt 0.003361 0.534267
vt 0.346691 0.011422
vt 0.653568 0.446942
vt 0.346691 0.446942
vt 0.002585 0.449521
vt 0.309204 0.013633
vt 0.309204 0.449521
vt 0.002585 0.449521
vt 0.309204 0.013633
vt 0.309204 0.449521
vt 0.346691 0.446942
vt 0.653568 0.011422
vt 0.346691 0.011422
vt 0.003361 0.971997
vt 0.310755 0.534267
vt 0.003361 0.534267
vt 0.302223 0.449521
vt 0.003361 0.011791
vt 0.302223 0.011791
vt 0.309204 0.011791
vt 0.003361 0.449521
vt 0.309204 0.449521
vt 0.309204 0.449521
vt 0.003361 0.011791
vt 0.302223 0.011791
vt 0.003361 0.449521
vt 0.302223 0.449521
vt 0.003361 0.971997
vt 0.310755 0.534267
vt 0.003361 0.534267
vt 0.003361 0.971997
vt 0.310755 0.534267
vt 0.003361 0.534267
vt 0.302223 0.449521
vt 0.003361 0.011791
vt 0.302223 0.011791
vt 0.003361 0.971997
vt 0.310755 0.534267
vt 0.003361 0.534267
vt 0.302223 0.449521
vt 0.003361 0.011791
vt 0.302223 0.011791
vt 0.309204 0.011791
vt 0.003361 0.449521
vt 0.309204 0.449521
vt 0.309204 0.449521
vt 0.003361 0.011791
vt 0.302223 0.011791
vt 0.003361 0.449521
vt 0.302223 0.449521
vt 0.351861 0.971997
vt 0.659255 0.534267
vt 0.351861 0.534267
vt 0.003361 0.971997
vt 0.310755 0.534267
vt 0.003361 0.534267
vt 0.302223 0.449521
vt 0.003361 0.011791
vt 0.302223 0.011791
vt 0.003361 0.971997
vt 0.310755 0.534267
vt 0.003361 0.534267
vt 0.302223 0.449521
vt 0.003361 0.011791
vt 0.302223 0.011791
vt 0.653568 0.011422
vt 0.346691 0.446942
vt 0.653568 0.446942
vt 0.653568 0.446942
vt 0.346691 0.011422
vt 0.653568 0.011422
vt 0.346691 0.446942
vt 0.002585 0.013265
vt 0.309204 0.449153
vt 0.309204 0.013265
vt 0.653568 0.446942
vt 0.346691 0.011422
vt 0.653568 0.011422
vt 0.003361 0.971997
vt 0.310755 0.534267
vt 0.003361 0.534267
vt 0.302223 0.449521
vt 0.003361 0.011791
vt 0.302223 0.011791
vt 0.351861 0.971997
vt 0.659255 0.534267
vt 0.351861 0.534267
vt 0.003361 0.971997
vt 0.310755 0.534267
vt 0.003361 0.534267
vt 0.346691 0.011422
vt 0.653568 0.446942
vt 0.002585 0.449521
vt 0.309204 0.013633
vt 0.309204 0.449521
vt 0.002585 0.449521
vt 0.309204 0.013633
vt 0.309204 0.449521
vt 0.346691 0.446942
vt 0.653568 0.011422
vt 0.003361 0.971997
vt 0.310755 0.534267
vt 0.003361 0.534267
vt 0.302223 0.449521
vt 0.003361 0.011791
vt 0.302223 0.011791
vt 0.003361 0.971997
vt 0.310755 0.534267
vt 0.003361 0.534267
vt 0.003361 0.971997
vt 0.310755 0.534267
vt 0.003361 0.534267
vt 0.653568 0.011422
vt 0.346691 0.446942
vt 0.002585 0.013265
vt 0.309204 0.449153
vt 0.309204 0.013265
vt 0.002585 0.013265
vt 0.309204 0.449153
vt 0.309204 0.013265
vt 0.653568 0.446942
vt 0.346691 0.011422
vt 0.351861 0.971997
vt 0.659255 0.534267
vt 0.351861 0.534267
vt 0.692865 0.973102
vt 1.000000 0.535372
vt 0.999483 0.972734
vt 0.003361 0.449521
vt 0.310755 0.971997
vt 0.310755 0.971997
vt 0.310755 0.971997
vt 0.003361 0.011791
vt 0.310755 0.971997
vt 0.310755 0.971997
vt 0.653568 0.011422
vt 0.999741 0.540531
vt 0.659255 0.971997
vt 0.003361 0.011791
vt 0.310755 0.971997
vt 0.310755 0.971997
vt 0.003361 0.449521
vt 0.003361 0.011791
vt 0.310755 0.971997
vt 0.653568 0.011422
vt 0.002585 0.013265
vt 0.002585 0.013265
vt 0.653568 0.446942
vt 0.310755 0.971997
vt 0.003361 0.449521
vt 0.003361 0.011791
vt 0.310755 0.971997
vt 0.310755 0.971997
vt 0.003361 0.449521
vt 0.310755 0.971997
vt 0.003361 0.449521
vt 0.003361 0.011791
vt 0.659255 0.971997
vt 0.310755 0.971997
vt 0.003361 0.449521
vt 0.310755 0.971997
vt 0.003361 0.449521
vt 0.310755 0.971997
vt 0.003361 0.449521
vt 0.659255 0.971997
vt 0.310755 0.971997
vt 0.310755 0.971997
vt 0.003361 0.449521
vt 0.310755 0.971997
vt 0.310755 0.971997
vt 0.346691 0.011422
vt 0.002585 0.449521
vt 0.002585 0.449521
vt 0.346691 0.446942
vt 0.659255 0.971997
vt 0.693382 0.535741
vt 0.002585 0.013265
vt 0.309204 0.449153
vt 0.309204 0.013265
vn 0.0000 1.0000 0.0000
usemtl Material.002
s off
f 2/1/1 21/2/1 1/3/1
f 4/4/1 13/5/1 3/6/1
f 5/7/1 15/8/1 4/9/1
f 6/10/1 17/11/1 5/12/1
f 8/13/1 7/14/1 6/15/1
f 9/16/1 20/17/1 8/13/1
f 11/18/1 10/19/1 9/20/1
f 1/21/1 12/22/1 11/23/1
f 15/24/1 14/25/1 13/26/1
f 17/27/1 16/28/1 15/29/1
f 7/30/1 18/31/1 17/32/1
f 20/33/1 27/34/1 7/35/1
f 10/36/1 19/37/1 20/33/1
f 12/38/1 29/39/1 10/40/1
f 21/41/1 32/42/1 12/43/1
f 23/44/1 22/45/1 21/46/1
f 16/47/1 25/48/1 14/49/1
f 18/50/1 26/51/1 16/52/1
f 27/53/1 34/54/1 18/55/1
f 19/56/1 28/57/1 27/58/1
f 29/59/1 36/60/1 19/61/1
f 32/62/1 30/63/1 29/64/1
f 22/65/1 31/66/1 32/67/1
f 24/68/1 38/69/1 22/70/1
f 26/71/1 33/72/1 25/73/1
f 34/74/1 42/75/1 26/71/1
f 28/76/1 35/77/1 34/78/1
f 36/79/1 45/80/1 28/81/1
f 30/82/1 47/83/1 36/84/1
f 31/85/1 37/86/1 30/87/1
f 38/88/1 50/89/1 31/90/1
f 40/91/1 39/92/1 38/93/1
f 42/94/1 53/95/1 33/96/1
f 35/97/1 43/98/1 42/94/1
f 45/99/1 44/100/1 35/101/1
f 47/102/1 46/103/1 45/104/1
f 37/105/1 54/106/1 47/107/1
f 50/108/1 48/109/1 37/110/1
f 39/111/1 49/112/1 50/113/1
f 41/114/1 51/115/1 39/116/1
f 43/117/1 58/118/1 53/119/1
f 44/120/1 59/121/1 43/117/1
f 46/122/1 60/123/1 44/120/1
f 48/124/1 64/125/1 54/126/1
f 49/127/1 55/128/1 48/129/1
f 51/130/1 56/131/1 49/132/1
f 52/133/1 66/134/1 51/135/1
f 59/136/1 68/137/1 58/138/1
f 60/139/1 71/140/1 59/141/1
f 62/142/1 61/143/1 60/123/1
f 64/144/1 63/145/1 62/146/1
f 55/147/1 75/148/1 64/149/1
f 56/150/1 65/151/1 55/128/1
f 66/152/1 77/153/1 56/154/1
f 57/155/1 67/156/1 66/157/1
f 71/158/1 69/159/1 68/160/1
f 61/161/1 70/162/1 71/163/1
f 63/164/1 72/165/1 61/143/1
f 75/166/1 73/167/1 63/168/1
f 65/169/1 74/170/1 75/171/1
f 77/172/1 76/173/1 65/151/1
f 67/174/1 78/175/1 77/176/1
f 80/177/1 79/178/1 67/179/1
f 2/1/1 23/180/1 21/2/1
f 4/4/1 15/181/1 13/5/1
f 5/7/1 17/182/1 15/8/1
f 6/10/1 7/183/1 17/11/1
f 8/13/1 20/17/1 7/14/1
f 9/16/1 10/184/1 20/17/1
f 11/18/1 12/185/1 10/19/1
f 1/21/1 21/186/1 12/22/1
f 15/24/1 16/187/1 14/25/1
f 17/27/1 18/188/1 16/28/1
f 7/30/1 27/189/1 18/31/1
f 20/33/1 19/37/1 27/34/1
f 10/36/1 29/190/1 19/37/1
f 12/38/1 32/191/1 29/39/1
f 21/41/1 22/192/1 32/42/1
f 23/44/1 24/193/1 22/45/1
f 16/47/1 26/194/1 25/48/1
f 18/50/1 34/195/1 26/51/1
f 27/53/1 28/196/1 34/54/1
f 19/56/1 36/197/1 28/57/1
f 29/59/1 30/198/1 36/60/1
f 32/62/1 31/199/1 30/63/1
f 22/65/1 38/200/1 31/66/1
f 24/68/1 40/201/1 38/69/1
f 26/71/1 42/75/1 33/72/1
f 34/74/1 35/77/1 42/75/1
f 28/76/1 45/202/1 35/77/1
f 36/79/1 47/203/1 45/80/1
f 30/82/1 37/204/1 47/83/1
f 31/85/1 50/205/1 37/86/1
f 38/88/1 39/206/1 50/89/1
f 40/91/1 41/207/1 39/92/1
f 42/94/1 43/98/1 53/95/1
f 35/97/1 44/100/1 43/98/1
f 45/99/1 46/208/1 44/100/1
f 47/102/1 54/209/1 46/103/1
f 37/105/1 48/210/1 54/106/1
f 50/108/1 49/211/1 48/109/1
f 39/111/1 51/212/1 49/112/1
f 41/114/1 52/213/1 51/115/1
f 43/117/1 59/121/1 58/118/1
f 44/120/1 60/123/1 59/121/1
f 46/122/1 62/142/1 60/123/1
f 48/124/1 55/147/1 64/125/1
f 49/127/1 56/150/1 55/128/1
f 51/130/1 66/214/1 56/131/1
f 52/133/1 57/215/1 66/134/1
f 59/136/1 71/216/1 68/137/1
f 60/139/1 61/217/1 71/140/1
f 62/142/1 63/164/1 61/143/1
f 64/144/1 75/166/1 63/145/1
f 55/147/1 65/169/1 75/148/1
f 56/150/1 77/172/1 65/151/1
f 66/152/1 67/218/1 77/153/1
f 57/155/1 80/219/1 67/156/1
f 71/158/1 70/220/1 69/159/1
f 61/161/1 72/221/1 70/162/1
f 63/164/1 73/222/1 72/165/1
f 75/166/1 74/223/1 73/167/1
f 65/169/1 76/224/1 74/170/1
f 77/172/1 78/225/1 76/173/1
f 67/174/1 79/226/1 78/175/1
f 80/177/1 81/227/1 79/178/1
s 1
f 54/228/1 62/229/1 46/230/1
f 54/228/1 64/144/1 62/229/1
