# Blender v2.90.0 OBJ File: ''
# www.blender.org
o Factory-Wall.001_Plane.001
v 30.000008 -19.999989 0.000001
v 40.000000 -9.999987 0.000002
v 30.000004 -9.999990 0.000001
v 20.000008 -19.999992 0.000001
v 20.000004 -9.999994 0.000001
v 10.000007 -19.999996 0.000000
v 10.000005 -9.999996 0.000000
v 0.000007 -20.000000 0.000000
v 0.000005 -10.000000 0.000000
v -9.999993 -20.000004 -0.000000
v -9.999995 -10.000004 -0.000000
v -19.999992 -20.000008 -0.000001
v -19.999996 -10.000006 -0.000001
v -29.999992 -20.000011 -0.000001
v -29.999996 -10.000010 -0.000001
v -39.999992 -20.000011 -0.000002
v -40.000000 -10.000013 -0.000002
v 40.000000 0.000014 0.000002
v 30.000000 0.000010 0.000001
v 20.000000 0.000006 0.000001
v 10.000001 0.000004 0.000000
v 0.000001 0.000000 0.000000
v -9.999999 -0.000004 -0.000000
v -20.000000 -0.000006 -0.000001
v -30.000000 -0.000010 -0.000001
v -40.000000 -0.000014 -0.000002
v 40.000000 10.000015 0.000002
v 29.999996 10.000011 0.000001
v 19.999996 10.000008 0.000001
v 9.999997 10.000006 0.000000
v -0.000003 10.000002 -0.000000
v -10.000003 9.999998 -0.000000
v -20.000004 9.999996 -0.000001
v -30.000004 9.999992 -0.000001
v -40.000000 9.999989 -0.000002
v 39.999992 20.000011 0.000002
v 29.999992 20.000011 0.000001
v 19.999992 20.000008 0.000001
v 9.999995 20.000004 0.000000
v -0.000005 20.000000 -0.000000
v -10.000005 19.999996 -0.000000
v -20.000008 19.999992 -0.000001
v -30.000008 19.999989 -0.000001
v -40.000008 19.999989 -0.000002
v 40.000019 -19.999994 0.000002
vt 0.543091 0.058236
vt 0.963400 0.477830
vt 0.543091 0.478455
vt 0.031686 0.057501
vt 0.454041 0.479208
vt 0.031686 0.479208
vt 0.543091 0.058236
vt 0.963400 0.477830
vt 0.543091 0.478455
vt 0.031686 0.057501
vt 0.454041 0.479208
vt 0.031686 0.479208
vt 0.543091 0.058236
vt 0.963400 0.477830
vt 0.543091 0.478455
vt 0.031686 0.057501
vt 0.454041 0.479208
vt 0.031686 0.479208
vt 0.543091 0.058236
vt 0.963400 0.477830
vt 0.543091 0.478455
vt 0.031686 0.057501
vt 0.454041 0.479208
vt 0.031686 0.479208
vt 0.543091 0.058236
vt 0.963400 0.477830
vt 0.543091 0.478455
vt 0.544905 0.518738
vt 0.967260 0.940445
vt 0.544905 0.940445
vt 0.543091 0.058236
vt 0.963400 0.477830
vt 0.543091 0.478455
vt 0.035458 0.518619
vt 0.457813 0.940326
vt 0.035458 0.940326
vt 0.543091 0.058236
vt 0.963400 0.477830
vt 0.543091 0.478455
vt 0.544905 0.518738
vt 0.967260 0.940445
vt 0.544905 0.940445
vt 0.543091 0.058236
vt 0.963400 0.477830
vt 0.543091 0.478455
vt 0.035458 0.518619
vt 0.457813 0.940326
vt 0.035458 0.940326
vt 0.543091 0.058236
vt 0.963400 0.477830
vt 0.543091 0.478455
vt 0.035458 0.518619
vt 0.457813 0.940326
vt 0.035458 0.940326
vt 0.543091 0.058236
vt 0.963400 0.477830
vt 0.543091 0.478455
vt 0.035458 0.518619
vt 0.457813 0.940326
vt 0.035458 0.940326
vt 0.543091 0.058236
vt 0.963400 0.477830
vt 0.543091 0.478455
vt 0.035458 0.518619
vt 0.457813 0.940326
vt 0.035458 0.940326
vt 0.543091 0.058236
vt 0.963400 0.477830
vt 0.543091 0.478455
vt 0.035458 0.518619
vt 0.457813 0.940326
vt 0.035458 0.940326
vt 0.543091 0.058236
vt 0.963400 0.477830
vt 0.543091 0.478455
vt 0.544905 0.518738
vt 0.967260 0.940445
vt 0.544905 0.940445
vt 0.543091 0.058236
vt 0.963400 0.477830
vt 0.543091 0.478455
vt 0.035458 0.518619
vt 0.457813 0.940326
vt 0.035458 0.940326
vt 0.543091 0.058236
vt 0.963400 0.477830
vt 0.543091 0.478455
vt 0.544905 0.518738
vt 0.967260 0.940445
vt 0.544905 0.940445
vt 0.543091 0.058236
vt 0.963400 0.477830
vt 0.543091 0.478455
vt 0.035458 0.518619
vt 0.457813 0.940326
vt 0.035458 0.940326
vt 0.963400 0.057611
vt 0.454041 0.057501
vt 0.963400 0.057611
vt 0.454041 0.057501
vt 0.963400 0.057611
vt 0.454041 0.057501
vt 0.963400 0.057611
vt 0.454041 0.057501
vt 0.963400 0.057611
vt 0.967260 0.518738
vt 0.963400 0.057611
vt 0.457813 0.518619
vt 0.963400 0.057611
vt 0.967260 0.518738
vt 0.963400 0.057611
vt 0.457813 0.518619
vt 0.963400 0.057611
vt 0.457813 0.518619
vt 0.963400 0.057611
vt 0.457813 0.518619
vt 0.963400 0.057611
vt 0.457813 0.518619
vt 0.963400 0.057611
vt 0.457813 0.518619
vt 0.963400 0.057611
vt 0.967260 0.518738
vt 0.963400 0.057611
vt 0.457813 0.518619
vt 0.963400 0.057611
vt 0.967260 0.518738
vt 0.963400 0.057611
vt 0.457813 0.518619
vn -0.0000 -0.0000 1.0000
s 1
f 1/1/1 2/2/1 3/3/1
f 4/4/1 3/5/1 5/6/1
f 6/7/1 5/8/1 7/9/1
f 8/10/1 7/11/1 9/12/1
f 10/13/1 9/14/1 11/15/1
f 12/16/1 11/17/1 13/18/1
f 14/19/1 13/20/1 15/21/1
f 16/22/1 15/23/1 17/24/1
f 3/25/1 18/26/1 19/27/1
f 5/28/1 19/29/1 20/30/1
f 7/31/1 20/32/1 21/33/1
f 9/34/1 21/35/1 22/36/1
f 11/37/1 22/38/1 23/39/1
f 13/40/1 23/41/1 24/42/1
f 15/43/1 24/44/1 25/45/1
f 17/46/1 25/47/1 26/48/1
f 19/49/1 27/50/1 28/51/1
f 20/52/1 28/53/1 29/54/1
f 21/55/1 29/56/1 30/57/1
f 22/58/1 30/59/1 31/60/1
f 23/61/1 31/62/1 32/63/1
f 24/64/1 32/65/1 33/66/1
f 25/67/1 33/68/1 34/69/1
f 26/70/1 34/71/1 35/72/1
f 28/73/1 36/74/1 37/75/1
f 29/76/1 37/77/1 38/78/1
f 30/79/1 38/80/1 39/81/1
f 31/82/1 39/83/1 40/84/1
f 32/85/1 40/86/1 41/87/1
f 33/88/1 41/89/1 42/90/1
f 34/91/1 42/92/1 43/93/1
f 35/94/1 43/95/1 44/96/1
f 1/1/1 45/97/1 2/2/1
f 4/4/1 1/98/1 3/5/1
f 6/7/1 4/99/1 5/8/1
f 8/10/1 6/100/1 7/11/1
f 10/13/1 8/101/1 9/14/1
f 12/16/1 10/102/1 11/17/1
f 14/19/1 12/103/1 13/20/1
f 16/22/1 14/104/1 15/23/1
f 3/25/1 2/105/1 18/26/1
f 5/28/1 3/106/1 19/29/1
f 7/31/1 5/107/1 20/32/1
f 9/34/1 7/108/1 21/35/1
f 11/37/1 9/109/1 22/38/1
f 13/40/1 11/110/1 23/41/1
f 15/43/1 13/111/1 24/44/1
f 17/46/1 15/112/1 25/47/1
f 19/49/1 18/113/1 27/50/1
f 20/52/1 19/114/1 28/53/1
f 21/55/1 20/115/1 29/56/1
f 22/58/1 21/116/1 30/59/1
f 23/61/1 22/117/1 31/62/1
f 24/64/1 23/118/1 32/65/1
f 25/67/1 24/119/1 33/68/1
f 26/70/1 25/120/1 34/71/1
f 28/73/1 27/121/1 36/74/1
f 29/76/1 28/122/1 37/77/1
f 30/79/1 29/123/1 38/80/1
f 31/82/1 30/124/1 39/83/1
f 32/85/1 31/125/1 40/86/1
f 33/88/1 32/126/1 41/89/1
f 34/91/1 33/127/1 42/92/1
f 35/94/1 34/128/1 43/95/1
