# Blender v2.92.0 OBJ File: 'LevelDesigns(Final-WithWall).blend'
# www.blender.org
mtllib LevelFloor3.mtl
o LevelTwo-Floor_Plane.525
v -39.965488 0.000000 39.999992
v -29.965490 0.000000 39.999992
v -39.965488 0.000000 29.999998
v -29.965490 0.000000 29.999998
v -19.965485 0.000000 39.999992
v -9.965488 0.000000 39.999992
v 0.034512 0.000000 39.999992
v 10.034512 0.000000 29.999996
v 10.034508 0.000000 39.999992
v 20.034508 0.000000 39.999992
v 20.034508 0.000000 29.999996
v 30.034500 0.000000 39.999992
v 40.034492 0.000000 39.999992
v 40.034492 0.000000 29.999996
v -39.965488 -0.000000 20.000000
v -29.965490 -0.000000 20.000000
v -39.965488 -0.000000 10.000004
v -29.965490 -0.000000 10.000004
v -39.965488 -0.000000 0.000004
v -29.965490 -0.000000 0.000004
v -39.965488 -0.000000 -9.999992
v -29.965490 -0.000000 -9.999992
v -39.965488 -0.000000 -19.999992
v -29.965490 -0.000000 -19.999992
v -39.965488 -0.000000 -29.999985
v -29.965490 -0.000000 -29.999985
v -39.965488 -0.000000 -39.999985
v -29.965490 -0.000000 -39.999985
v -19.965485 0.000000 29.999996
v -9.965485 0.000000 29.999996
v -19.965485 -0.000000 20.000000
v -19.965485 -0.000000 10.000004
v -19.972416 -0.000000 0.000004
v -19.972416 -0.000000 -9.999996
v -9.965485 -0.000000 -9.999992
v -19.965485 -0.000000 -19.999992
v -19.965485 -0.000000 -29.999985
v -19.965485 -0.000000 -39.999985
v -9.965488 -0.000000 20.000000
v -9.965488 -0.000000 10.000004
v -9.965488 -0.000000 0.000004
v 0.034512 -0.000000 -9.999992
v -9.965488 -0.000000 -19.999992
v 0.034512 -0.000000 -19.999992
v -9.965488 -0.000000 -29.999992
v 0.034512 -0.000000 -29.999985
v -9.965488 -0.000000 -39.999985
v 0.034512 -0.000000 -39.999985
v 0.034512 0.000000 29.999996
v 0.034512 -0.000000 20.000000
v 10.034512 -0.000000 20.000000
v 0.034512 -0.000000 10.000004
v 10.034512 -0.000000 10.000004
v 0.034512 -0.000000 0.000004
v 10.034512 -0.000000 0.000004
v 10.034512 -0.000000 -29.999985
v 10.034512 -0.000000 -39.999985
v 20.034508 0.000000 19.999996
v 20.034508 0.000000 10.000000
v 20.034508 0.000000 -10.000000
v 10.034508 0.000000 -10.000000
v 10.034508 0.000000 -20.000000
v 20.034508 0.000000 -20.000000
v 20.034508 0.000000 -30.000000
v 20.034508 0.000000 -40.000000
v 30.034508 0.000000 29.999996
v 30.034508 0.000000 19.999996
v 20.034508 0.000000 0.000000
v 40.034492 0.000000 19.999996
v 30.034500 0.000000 10.000000
v 40.034492 0.000000 10.000000
v 40.034492 0.000000 0.000000
v 30.034500 0.000000 0.000000
v 30.034500 0.000000 -10.000000
v 40.034492 0.000000 -10.000000
v 30.034500 0.000000 -20.000000
v 40.034492 0.000000 -20.000000
v 40.034492 0.000000 -30.000000
v 30.034500 0.000000 -30.000000
v 30.034500 0.000000 -40.000000
v 40.034492 0.000000 -40.000000
vt 0.003361 0.971997
vt 0.310755 0.534267
vt 0.003361 0.534267
vt 0.003361 0.971997
vt 0.310755 0.534267
vt 0.003361 0.534267
vt 0.003361 0.971997
vt 0.310755 0.534267
vt 0.003361 0.534267
vt 0.002327 0.012159
vt 0.309462 0.449889
vt 0.309462 0.012159
vt 0.309462 0.449889
vt 0.002327 0.012159
vt 0.002327 0.449889
vt 0.003361 0.971997
vt 0.310755 0.534267
vt 0.003361 0.534267
vt 0.003361 0.971997
vt 0.310755 0.534267
vt 0.003361 0.534267
vt 0.002327 0.012159
vt 0.309462 0.449889
vt 0.309462 0.012159
vt 0.652792 0.448047
vt 0.347466 0.010685
vt 0.347208 0.448047
vt 0.309462 0.449889
vt 0.002327 0.012159
vt 0.002327 0.449889
vt 0.309462 0.449889
vt 0.002327 0.012159
vt 0.002327 0.449889
vt 0.309462 0.449889
vt 0.002327 0.012159
vt 0.002327 0.449889
vt 0.346613 0.447235
vt 0.653564 0.011740
vt 0.346628 0.011642
vt 0.351861 0.971997
vt 0.659255 0.534267
vt 0.351861 0.534267
vt 0.003361 0.971997
vt 0.310755 0.534267
vt 0.003361 0.534267
vt 1.000000 0.972734
vt 0.692865 0.535372
vt 0.692865 0.972734
vt 0.003361 0.971997
vt 0.310755 0.534267
vt 0.003361 0.534267
vt 0.309462 0.012159
vt 0.002327 0.449889
vt 0.309462 0.449889
vt 0.002327 0.012159
vt 0.309462 0.449889
vt 0.309462 0.012159
vt 0.347208 0.010685
vt 0.653051 0.448047
vt 0.653051 0.010317
vt 0.003361 0.971997
vt 0.310755 0.534267
vt 0.003361 0.534267
vt 0.003361 0.971997
vt 0.310755 0.534267
vt 0.003361 0.534267
vt 0.351861 0.971997
vt 0.659255 0.534267
vt 0.351861 0.534267
vt 0.652792 0.448047
vt 0.347466 0.010685
vt 0.347208 0.448047
vt 0.002327 0.449889
vt 0.309462 0.012159
vt 0.002327 0.012159
vt 0.309462 0.449889
vt 0.002327 0.012159
vt 0.346613 0.447235
vt 0.653564 0.011740
vt 0.346628 0.011642
vt 0.652792 0.448047
vt 0.347466 0.010685
vt 0.347208 0.448047
vt 0.346613 0.447235
vt 0.653564 0.011740
vt 0.346628 0.011642
vt 0.002327 0.012159
vt 0.309462 0.012159
vt 0.309462 0.012159
vt 0.002327 0.449889
vt 0.309462 0.449889
vt 0.003361 0.971997
vt 0.310755 0.534267
vt 0.003361 0.534267
vt 0.352120 0.971629
vt 0.658997 0.534635
vt 0.352120 0.534635
vt 0.002327 0.012159
vt 0.309462 0.449889
vt 0.309462 0.012159
vt 0.309462 0.449889
vt 0.002327 0.012159
vt 0.002327 0.449889
vt 0.002327 0.012159
vt 0.309462 0.449889
vt 0.309462 0.012159
vt 0.309462 0.449889
vt 0.002327 0.012159
vt 0.002327 0.449889
vt 0.309462 0.012159
vt 0.002327 0.449889
vt 0.003361 0.971997
vt 0.310755 0.534267
vt 0.003361 0.534267
vt 0.003361 0.971997
vt 0.310755 0.534267
vt 0.003361 0.534267
vt 0.309462 0.012159
vt 0.002327 0.012159
vt 0.002327 0.449889
vt 0.002327 0.449889
vt 0.309462 0.012159
vt 0.003361 0.971997
vt 0.310755 0.534267
vt 0.003361 0.534267
vt 0.653826 0.011791
vt 0.346949 0.447310
vt 0.653826 0.447310
vt 0.002327 0.012159
vt 0.309462 0.449889
vt 0.309462 0.012159
vt 0.309462 0.012159
vt 0.002327 0.449889
vt 0.309462 0.449889
vt 0.347208 0.010685
vt 0.653051 0.448047
vt 0.653051 0.010317
vt 0.653826 0.011791
vt 0.346949 0.447310
vt 0.653826 0.447310
vt 0.347208 0.010685
vt 0.653051 0.448047
vt 0.653051 0.010317
vt 0.003361 0.971997
vt 0.310755 0.534267
vt 0.003361 0.534267
vt 0.003361 0.534267
vt 0.310755 0.971997
vt 0.310755 0.534267
vt 0.003361 0.971997
vt 0.310755 0.534267
vt 0.003361 0.534267
vt 0.003361 0.971997
vt 0.310755 0.534267
vt 0.003361 0.534267
vt 0.003361 0.971997
vt 0.310755 0.534267
vt 0.003361 0.534267
vt 0.003361 0.971997
vt 0.310755 0.534267
vt 0.003361 0.534267
vt 0.351861 0.971997
vt 0.659255 0.534267
vt 0.351861 0.534267
vt 0.002327 0.012159
vt 0.309462 0.449889
vt 0.309462 0.012159
vt 0.309462 0.012159
vt 0.002327 0.449889
vt 0.309462 0.449889
vt 0.002327 0.012159
vt 0.309462 0.449889
vt 0.309462 0.012159
vt 0.002327 0.012159
vt 0.309462 0.449889
vt 0.309462 0.012159
vt 0.002327 0.012159
vt 0.309462 0.449889
vt 0.309462 0.012159
vt 0.002327 0.012159
vt 0.309462 0.449889
vt 0.309462 0.012159
vt 1.000000 0.535372
vt 0.692865 0.973102
vt 0.999741 0.973102
vt 0.310755 0.971997
vt 0.310755 0.971997
vt 0.310755 0.971997
vt 0.309462 0.012159
vt 0.310755 0.971997
vt 0.310755 0.971997
vt 0.002327 0.449889
vt 0.652792 0.010685
vt 0.309462 0.012159
vt 0.653460 0.447231
vt 0.659255 0.971997
vt 0.310755 0.971997
vt 1.000000 0.535372
vt 0.310755 0.971997
vt 0.002327 0.449889
vt 0.347466 0.448047
vt 0.310755 0.971997
vt 0.310755 0.971997
vt 0.659255 0.971997
vt 0.652792 0.010685
vt 0.309462 0.012159
vt 0.653460 0.447231
vt 0.652792 0.010685
vt 0.653460 0.447231
vt 0.002327 0.012159
vt 0.310755 0.971997
vt 0.658997 0.971629
vt 0.002327 0.449889
vt 0.309462 0.012159
vt 0.002327 0.449889
vt 0.309462 0.012159
vt 0.002327 0.012159
vt 0.310755 0.971997
vt 0.310755 0.971997
vt 0.309462 0.449889
vt 0.002327 0.012159
vt 0.309462 0.449889
vt 0.310755 0.971997
vt 0.346691 0.011791
vt 0.002327 0.449889
vt 0.002327 0.012159
vt 0.347466 0.448047
vt 0.346691 0.011791
vt 0.347466 0.448047
vt 0.310755 0.971997
vt 0.003361 0.971997
vt 0.310755 0.971997
vt 0.310755 0.971997
vt 0.310755 0.971997
vt 0.310755 0.971997
vt 0.659255 0.971997
vt 0.002327 0.449889
vt 0.002327 0.012159
vt 0.002327 0.449889
vt 0.002327 0.449889
vt 0.002327 0.449889
vt 0.002327 0.449889
vt 0.692865 0.535372
vn 0.0000 -1.0000 0.0000
usemtl Floor
s 1
f 3/1/1 2/2/1 1/3/1
f 4/4/1 5/5/1 2/6/1
f 29/7/1 6/8/1 5/9/1
f 30/10/1 7/11/1 6/12/1
f 49/13/1 9/14/1 7/15/1
f 8/16/1 10/17/1 9/18/1
f 11/19/1 12/20/1 10/21/1
f 66/22/1 13/23/1 12/24/1
f 15/25/1 4/26/1 3/27/1
f 17/28/1 16/29/1 15/30/1
f 19/31/1 18/32/1 17/33/1
f 21/34/1 20/35/1 19/36/1
f 23/37/1 22/38/1 21/39/1
f 25/40/1 24/41/1 23/42/1
f 27/43/1 26/44/1 25/45/1
f 16/46/1 29/47/1 4/48/1
f 18/49/1 31/50/1 16/51/1
f 18/52/1 33/53/1 32/54/1
f 22/55/1 33/56/1 20/57/1
f 24/58/1 34/59/1 22/60/1
f 26/61/1 36/62/1 24/63/1
f 28/64/1 37/65/1 26/66/1
f 31/67/1 30/68/1 29/69/1
f 32/70/1 39/71/1 31/72/1
f 32/73/1 41/74/1 40/75/1
f 34/76/1 41/77/1 33/53/1
f 36/78/1 35/79/1 34/80/1
f 37/81/1 43/82/1 36/83/1
f 38/84/1 45/85/1 37/86/1
f 39/87/1 49/13/1 30/88/1
f 40/89/1 50/90/1 39/91/1
f 41/92/1 52/93/1 40/94/1
f 35/95/1 54/96/1 41/97/1
f 35/98/1 44/99/1 42/100/1
f 43/101/1 46/102/1 44/103/1
f 45/104/1 48/105/1 46/106/1
f 50/107/1 8/108/1 49/109/1
f 52/110/1 51/111/1 50/107/1
f 54/112/1 53/113/1 52/114/1
f 42/115/1 55/116/1 54/117/1
f 44/103/1 61/118/1 42/119/1
f 46/106/1 62/120/1 44/99/1
f 48/121/1 56/122/1 46/102/1
f 51/123/1 11/124/1 8/125/1
f 53/126/1 58/127/1 51/128/1
f 55/129/1 59/130/1 53/131/1
f 55/132/1 60/133/1 68/134/1
f 62/135/1 60/136/1 61/137/1
f 56/138/1 63/139/1 62/140/1
f 57/141/1 64/142/1 56/143/1
f 58/144/1 66/145/1 11/146/1
f 58/147/1 70/148/1 67/149/1
f 68/150/1 70/151/1 59/152/1
f 60/153/1 73/154/1 68/155/1
f 63/156/1 74/157/1 60/158/1
f 64/159/1 76/160/1 63/161/1
f 65/162/1 79/163/1 64/164/1
f 67/165/1 14/166/1 66/167/1
f 67/168/1 71/169/1 69/170/1
f 73/171/1 71/172/1 70/173/1
f 74/174/1 72/175/1 73/176/1
f 76/177/1 75/178/1 74/179/1
f 79/180/1 77/181/1 76/182/1
f 80/183/1 78/184/1 79/185/1
f 3/1/1 4/186/1 2/2/1
f 4/4/1 29/187/1 5/5/1
f 29/7/1 30/188/1 6/8/1
f 30/10/1 49/109/1 7/11/1
f 49/13/1 8/189/1 9/14/1
f 8/16/1 11/190/1 10/17/1
f 11/19/1 66/191/1 12/20/1
f 66/22/1 14/192/1 13/23/1
f 15/25/1 16/193/1 4/26/1
f 17/28/1 18/52/1 16/29/1
f 19/31/1 20/57/1 18/32/1
f 21/34/1 22/194/1 20/35/1
f 23/37/1 24/195/1 22/38/1
f 25/40/1 26/196/1 24/41/1
f 27/43/1 28/197/1 26/44/1
f 16/46/1 31/198/1 29/47/1
f 18/49/1 32/199/1 31/50/1
f 18/52/1 20/35/1 33/53/1
f 22/55/1 34/200/1 33/56/1
f 24/58/1 36/201/1 34/59/1
f 26/61/1 37/202/1 36/62/1
f 28/64/1 38/203/1 37/65/1
f 31/67/1 39/204/1 30/68/1
f 32/70/1 40/205/1 39/71/1
f 32/73/1 33/56/1 41/74/1
f 34/76/1 35/206/1 41/77/1
f 36/78/1 43/207/1 35/79/1
f 37/81/1 45/208/1 43/82/1
f 38/84/1 47/209/1 45/85/1
f 39/87/1 50/90/1 49/13/1
f 40/89/1 52/210/1 50/90/1
f 41/92/1 54/211/1 52/93/1
f 35/95/1 42/212/1 54/96/1
f 35/98/1 43/213/1 44/99/1
f 43/101/1 45/214/1 46/102/1
f 45/104/1 47/215/1 48/105/1
f 50/107/1 51/216/1 8/108/1
f 52/110/1 53/217/1 51/111/1
f 54/112/1 55/218/1 53/113/1
f 42/115/1 61/219/1 55/116/1
f 44/103/1 62/220/1 61/118/1
f 46/106/1 56/221/1 62/120/1
f 48/121/1 57/222/1 56/122/1
f 51/123/1 58/223/1 11/124/1
f 53/126/1 59/224/1 58/127/1
f 55/129/1 68/225/1 59/130/1
f 55/132/1 61/226/1 60/133/1
f 62/135/1 63/227/1 60/136/1
f 56/138/1 64/228/1 63/139/1
f 57/141/1 65/229/1 64/142/1
f 58/144/1 67/230/1 66/145/1
f 58/147/1 59/231/1 70/148/1
f 68/150/1 73/232/1 70/151/1
f 60/153/1 74/233/1 73/154/1
f 63/156/1 76/234/1 74/157/1
f 64/159/1 79/235/1 76/160/1
f 65/162/1 80/236/1 79/163/1
f 67/165/1 69/237/1 14/166/1
f 67/168/1 70/238/1 71/169/1
f 73/171/1 72/239/1 71/172/1
f 74/174/1 75/240/1 72/175/1
f 76/177/1 77/241/1 75/178/1
f 79/180/1 78/242/1 77/181/1
f 80/183/1 81/243/1 78/184/1
