# Blender v2.90.0 OBJ File: 'LevelDesigns.blend'
# www.blender.org
o Plane.170_Plane.174
v -38.734547 51.646065 -51.646088
v -51.646065 51.646065 -51.646084
v -38.734543 38.734547 -51.646088
v -51.646061 38.734547 -51.646084
v -38.734516 12.911511 -51.646088
v -38.734512 -0.000008 -51.646088
v -51.646034 12.911510 -51.646084
v -51.646030 -0.000008 -51.646084
v -25.822996 12.911512 -51.646088
v -38.734516 12.911511 -51.646088
v -25.822996 -0.000006 -51.646088
v -38.734512 -0.000008 -51.646088
v -12.911480 12.911513 -51.646088
v -25.822996 12.911512 -51.646088
v -12.911479 -0.000006 -51.646088
v -25.822996 -0.000006 -51.646088
v 0.000039 12.911514 -51.646088
v -12.911480 12.911513 -51.646088
v 0.000039 -0.000004 -51.646088
v -12.911479 -0.000006 -51.646088
v 12.911556 12.911515 -51.646088
v 0.000039 12.911514 -51.646088
v 12.911557 -0.000002 -51.646088
v 0.000039 -0.000004 -51.646088
v 25.823076 12.911516 -51.646088
v 12.911556 12.911515 -51.646088
v 25.823076 -0.000002 -51.646088
v 12.911557 -0.000002 -51.646088
v 38.734592 12.911517 -51.646088
v 25.823076 12.911516 -51.646088
v 38.734596 0.000000 -51.646088
v 25.823076 -0.000002 -51.646088
v 51.646111 12.911518 -51.646091
v 38.734592 12.911517 -51.646088
v 51.646114 0.000000 -51.646091
v 38.734596 0.000000 -51.646088
v -38.734516 25.823029 -51.646088
v -51.646034 25.823029 -51.646084
v -38.734516 12.911511 -51.646088
v -51.646034 12.911510 -51.646084
v -25.822998 25.823030 -51.646088
v -38.734516 25.823029 -51.646088
v -25.822996 12.911512 -51.646088
v -38.734516 12.911511 -51.646088
v -12.911481 25.823030 -51.646088
v -25.822998 25.823030 -51.646088
v -12.911480 12.911513 -51.646088
v -25.822996 12.911512 -51.646088
v 0.000038 25.823032 -51.646088
v -12.911481 25.823030 -51.646088
v 0.000039 12.911514 -51.646088
v -12.911480 12.911513 -51.646088
v 12.911555 25.823034 -51.646088
v 0.000038 25.823032 -51.646088
v 12.911556 12.911515 -51.646088
v 0.000039 12.911514 -51.646088
v 25.823074 25.823034 -51.646088
v 12.911555 25.823034 -51.646088
v 25.823076 12.911516 -51.646088
v 12.911556 12.911515 -51.646088
v 38.734592 25.823036 -51.646088
v 25.823074 25.823034 -51.646088
v 38.734592 12.911517 -51.646088
v 25.823076 12.911516 -51.646088
v 51.646111 25.823036 -51.646091
v 38.734592 25.823036 -51.646088
v 51.646111 12.911518 -51.646091
v 38.734592 12.911517 -51.646088
v -38.734516 38.734547 -51.646088
v -51.646034 38.734547 -51.646084
v -38.734516 25.823029 -51.646088
v -51.646034 25.823029 -51.646084
v -25.823000 38.734550 -51.646088
v -38.734516 38.734547 -51.646088
v -25.822998 25.823030 -51.646088
v -38.734516 25.823029 -51.646088
v -12.911482 38.734550 -51.646088
v -25.823000 38.734550 -51.646088
v -12.911481 25.823030 -51.646088
v -25.822998 25.823030 -51.646088
v 0.000037 38.734550 -51.646088
v -12.911482 38.734550 -51.646088
v 0.000038 25.823032 -51.646088
v -12.911481 25.823030 -51.646088
v 12.911554 38.734550 -51.646088
v 0.000037 38.734550 -51.646088
v 12.911555 25.823034 -51.646088
v 0.000038 25.823032 -51.646088
v 25.823072 38.734550 -51.646088
v 12.911554 38.734550 -51.646088
v 25.823074 25.823034 -51.646088
v 12.911555 25.823034 -51.646088
v 38.734592 38.734554 -51.646088
v 25.823072 38.734550 -51.646088
v 38.734592 25.823036 -51.646088
v 25.823074 25.823034 -51.646088
v 51.646111 38.734554 -51.646091
v 38.734592 38.734554 -51.646088
v 51.646111 25.823036 -51.646091
v 38.734592 25.823036 -51.646088
v -25.823000 51.646065 -51.646088
v -38.734520 51.646065 -51.646088
v -25.823000 38.734550 -51.646088
v -38.734516 38.734547 -51.646088
v -12.911483 51.646065 -51.646088
v -25.823000 51.646065 -51.646088
v -12.911482 38.734550 -51.646088
v -25.823000 38.734550 -51.646088
v 0.000036 51.646069 -51.646088
v -12.911483 51.646065 -51.646088
v 0.000037 38.734550 -51.646088
v -12.911482 38.734550 -51.646088
v 12.911553 51.646072 -51.646088
v 0.000036 51.646069 -51.646088
v 12.911554 38.734550 -51.646088
v 0.000037 38.734550 -51.646088
v 25.823072 51.646072 -51.646088
v 12.911553 51.646072 -51.646088
v 25.823072 38.734550 -51.646088
v 12.911554 38.734550 -51.646088
v 38.734589 51.646072 -51.646088
v 25.823072 51.646072 -51.646088
v 38.734592 38.734554 -51.646088
v 25.823072 38.734550 -51.646088
v 51.646107 51.646072 -51.646091
v 38.734589 51.646072 -51.646088
v 51.646111 38.734554 -51.646091
v 38.734592 38.734554 -51.646088
vt 0.035458 0.518619
vt 0.457813 0.940326
vt 0.035458 0.940326
vt 0.543091 0.058236
vt 0.963400 0.477830
vt 0.543091 0.478455
vt 0.543091 0.058236
vt 0.963400 0.477830
vt 0.543091 0.478455
vt 0.543091 0.058236
vt 0.963400 0.477830
vt 0.543091 0.478455
vt 0.543091 0.058236
vt 0.963400 0.477830
vt 0.543091 0.478455
vt 0.543091 0.058236
vt 0.963400 0.477830
vt 0.543091 0.478455
vt 0.543091 0.058236
vt 0.963400 0.477830
vt 0.543091 0.478455
vt 0.543091 0.058236
vt 0.963400 0.477830
vt 0.543091 0.478455
vt 0.543091 0.058236
vt 0.963400 0.477830
vt 0.543091 0.478455
vt 0.031686 0.057501
vt 0.454041 0.479208
vt 0.031686 0.479208
vt 0.031686 0.057501
vt 0.454041 0.479208
vt 0.031686 0.479208
vt 0.031686 0.057501
vt 0.454041 0.479208
vt 0.031686 0.479208
vt 0.031686 0.057501
vt 0.454041 0.479208
vt 0.031686 0.479208
vt 0.031686 0.057501
vt 0.454041 0.479208
vt 0.031686 0.479208
vt 0.031686 0.057501
vt 0.454041 0.479208
vt 0.031686 0.479208
vt 0.031686 0.057501
vt 0.454041 0.479208
vt 0.031686 0.479208
vt 0.031686 0.057501
vt 0.454041 0.479208
vt 0.031686 0.479208
vt 0.544905 0.518738
vt 0.967260 0.940445
vt 0.544905 0.940445
vt 0.035458 0.518619
vt 0.457813 0.940326
vt 0.035458 0.940326
vt 0.544905 0.518738
vt 0.967260 0.940445
vt 0.544905 0.940445
vt 0.035458 0.518619
vt 0.457813 0.940326
vt 0.035458 0.940326
vt 0.544905 0.518738
vt 0.967260 0.940445
vt 0.544905 0.940445
vt 0.035458 0.518619
vt 0.457813 0.940326
vt 0.035458 0.940326
vt 0.544905 0.518738
vt 0.967260 0.940445
vt 0.544905 0.940445
vt 0.035458 0.518619
vt 0.457813 0.940326
vt 0.035458 0.940326
vt 0.035458 0.518619
vt 0.457813 0.940326
vt 0.035458 0.940326
vt 0.035458 0.518619
vt 0.457813 0.940326
vt 0.035458 0.940326
vt 0.035458 0.518619
vt 0.457813 0.940326
vt 0.035458 0.940326
vt 0.035458 0.518619
vt 0.457813 0.940326
vt 0.035458 0.940326
vt 0.035458 0.518619
vt 0.457813 0.940326
vt 0.035458 0.940326
vt 0.035458 0.518619
vt 0.457813 0.940326
vt 0.035458 0.940326
vt 0.035458 0.518619
vt 0.457813 0.940326
vt 0.035458 0.940326
vt 0.457813 0.518619
vt 0.963400 0.057611
vt 0.963400 0.057611
vt 0.963400 0.057611
vt 0.963400 0.057611
vt 0.963400 0.057611
vt 0.963400 0.057611
vt 0.963400 0.057611
vt 0.963400 0.057611
vt 0.454041 0.057501
vt 0.454041 0.057501
vt 0.454041 0.057501
vt 0.454041 0.057501
vt 0.454041 0.057501
vt 0.454041 0.057501
vt 0.454041 0.057501
vt 0.454041 0.057501
vt 0.967260 0.518738
vt 0.457813 0.518619
vt 0.967260 0.518738
vt 0.457813 0.518619
vt 0.967260 0.518738
vt 0.457813 0.518619
vt 0.967260 0.518738
vt 0.457813 0.518619
vt 0.457813 0.518619
vt 0.457813 0.518619
vt 0.457813 0.518619
vt 0.457813 0.518619
vt 0.457813 0.518619
vt 0.457813 0.518619
vt 0.457813 0.518619
vn 0.0000 -0.0000 -1.0000
s off
f 3/1/1 2/2/1 1/3/1
f 6/4/1 7/5/1 5/6/1
f 11/7/1 10/8/1 9/9/1
f 15/10/1 14/11/1 13/12/1
f 19/13/1 18/14/1 17/15/1
f 23/16/1 22/17/1 21/18/1
f 27/19/1 26/20/1 25/21/1
f 31/22/1 30/23/1 29/24/1
f 35/25/1 34/26/1 33/27/1
f 39/28/1 38/29/1 37/30/1
f 43/31/1 42/32/1 41/33/1
f 47/34/1 46/35/1 45/36/1
f 51/37/1 50/38/1 49/39/1
f 55/40/1 54/41/1 53/42/1
f 59/43/1 58/44/1 57/45/1
f 63/46/1 62/47/1 61/48/1
f 67/49/1 66/50/1 65/51/1
f 71/52/1 70/53/1 69/54/1
f 75/55/1 74/56/1 73/57/1
f 79/58/1 78/59/1 77/60/1
f 83/61/1 82/62/1 81/63/1
f 87/64/1 86/65/1 85/66/1
f 91/67/1 90/68/1 89/69/1
f 95/70/1 94/71/1 93/72/1
f 99/73/1 98/74/1 97/75/1
f 103/76/1 102/77/1 101/78/1
f 107/79/1 106/80/1 105/81/1
f 111/82/1 110/83/1 109/84/1
f 115/85/1 114/86/1 113/87/1
f 119/88/1 118/89/1 117/90/1
f 123/91/1 122/92/1 121/93/1
f 127/94/1 126/95/1 125/96/1
f 3/1/1 4/97/1 2/2/1
f 6/4/1 8/98/1 7/5/1
f 11/7/1 12/99/1 10/8/1
f 15/10/1 16/100/1 14/11/1
f 19/13/1 20/101/1 18/14/1
f 23/16/1 24/102/1 22/17/1
f 27/19/1 28/103/1 26/20/1
f 31/22/1 32/104/1 30/23/1
f 35/25/1 36/105/1 34/26/1
f 39/28/1 40/106/1 38/29/1
f 43/31/1 44/107/1 42/32/1
f 47/34/1 48/108/1 46/35/1
f 51/37/1 52/109/1 50/38/1
f 55/40/1 56/110/1 54/41/1
f 59/43/1 60/111/1 58/44/1
f 63/46/1 64/112/1 62/47/1
f 67/49/1 68/113/1 66/50/1
f 71/52/1 72/114/1 70/53/1
f 75/55/1 76/115/1 74/56/1
f 79/58/1 80/116/1 78/59/1
f 83/61/1 84/117/1 82/62/1
f 87/64/1 88/118/1 86/65/1
f 91/67/1 92/119/1 90/68/1
f 95/70/1 96/120/1 94/71/1
f 99/73/1 100/121/1 98/74/1
f 103/76/1 104/122/1 102/77/1
f 107/79/1 108/123/1 106/80/1
f 111/82/1 112/124/1 110/83/1
f 115/85/1 116/125/1 114/86/1
f 119/88/1 120/126/1 118/89/1
f 123/91/1 124/127/1 122/92/1
f 127/94/1 128/128/1 126/95/1
