# Blender v2.90.0 OBJ File: ''
# www.blender.org
o Plane.196_Plane.137
v -39.793846 -0.000007 40.000000
v -39.793846 -0.000005 30.000000
v -29.793837 -0.000005 29.999998
v -29.793846 -0.000007 40.000000
v -19.793837 -0.000005 29.999998
v -19.793837 -0.000007 39.999996
v -9.793837 -0.000005 29.999998
v -9.793837 -0.000007 39.999996
v 0.206161 -0.000005 29.999998
v 0.206161 -0.000007 39.999996
v 10.206161 -0.000005 29.999998
v 10.206161 -0.000007 39.999996
v 20.206161 -0.000005 29.999998
v 20.206161 -0.000007 39.999996
v 30.206146 -0.000005 29.999998
v 30.206146 -0.000007 39.999996
v 40.206146 -0.000005 29.999998
v 40.206146 -0.000007 39.999996
v -39.793842 -0.000003 20.000000
v -29.793844 -0.000003 20.000000
v -39.793842 -0.000002 10.000004
v -29.793844 -0.000002 10.000002
v -39.793842 -0.000000 0.000004
v -29.793844 -0.000000 0.000004
v -39.793842 0.000002 -9.999992
v -29.793844 0.000002 -9.999992
v -39.793842 0.000003 -19.999992
v -29.793844 0.000003 -19.999992
v -39.793842 0.000005 -29.999985
v -29.793844 0.000005 -29.999985
v -39.793842 0.000007 -39.999985
v -29.793844 0.000007 -39.999985
v -19.793837 -0.000003 20.000000
v -19.793837 -0.000002 10.000002
v -19.800770 -0.000000 0.000004
v -19.800770 0.000002 -9.999996
v -19.793837 0.000003 -19.999992
v -19.793837 0.000005 -29.999985
v -19.793837 0.000007 -39.999985
v -9.793837 -0.000003 20.000000
v -9.793837 -0.000002 10.000004
v -9.800770 -0.000000 0.000004
v -9.793837 0.000002 -9.999992
v -9.793837 0.000003 -19.999992
v -9.793837 0.000005 -29.999985
v -9.793837 0.000007 -39.999985
v 0.206161 -0.000003 19.999998
v 0.206161 -0.000002 10.000004
v 0.206161 -0.000000 0.000004
v 0.206161 0.000002 -9.999992
v 0.206161 0.000003 -19.999992
v 0.206161 0.000005 -29.999985
v 0.206161 0.000007 -39.999985
v 10.206161 -0.000003 19.999998
v 10.206161 -0.000002 10.000004
v 10.206161 -0.000000 0.000004
v 10.206161 0.000002 -9.999996
v 10.206161 0.000003 -19.999992
v 10.206161 0.000005 -29.999992
v 10.206161 0.000007 -40.000000
v 20.206161 -0.000003 20.000000
v 20.206161 -0.000002 10.000000
v 20.206161 0.000000 0.000000
v 20.206161 0.000002 -10.000000
v 20.206161 0.000003 -20.000000
v 20.206161 0.000005 -30.000000
v 20.206161 0.000007 -40.000000
v 30.206161 -0.000003 19.999998
v 30.206146 -0.000002 10.000000
v 30.206161 0.000000 0.000000
v 30.206146 0.000002 -10.000000
v 30.206146 0.000003 -20.000000
v 30.206146 0.000005 -30.000000
v 30.206146 0.000007 -40.000000
v 40.206146 -0.000003 19.999998
v 40.206146 -0.000002 10.000000
v 40.206146 0.000000 0.000000
v 40.206146 0.000002 -10.000000
v 40.206146 0.000003 -20.000000
v 40.206146 0.000005 -30.000000
v 40.206146 0.000007 -40.000000
vt 0.652792 0.448047
vt 0.347466 0.010685
vt 0.347208 0.448047
vt 0.653826 0.011791
vt 0.346949 0.447310
vt 0.653826 0.447310
vt 0.003361 0.971997
vt 0.310755 0.534267
vt 0.003361 0.534267
vt 0.003361 0.971997
vt 0.310755 0.534267
vt 0.003361 0.534267
vt 0.003361 0.971997
vt 0.310755 0.534267
vt 0.003361 0.534267
vt 0.652792 0.448047
vt 0.347466 0.010685
vt 0.347208 0.448047
vt 0.309462 0.012159
vt 0.002327 0.449889
vt 0.309462 0.449889
vt 0.309462 0.012159
vt 0.002327 0.449889
vt 0.309462 0.449889
vt 0.309462 0.449889
vt 0.002327 0.012159
vt 0.002327 0.449889
vt 0.309462 0.449889
vt 0.002327 0.012159
vt 0.002327 0.449889
vt 0.309462 0.449889
vt 0.002327 0.012159
vt 0.002327 0.449889
vt 0.309462 0.449889
vt 0.002327 0.012159
vt 0.002327 0.449889
vt 0.346613 0.447235
vt 0.653564 0.011740
vt 0.346628 0.011642
vt 0.003361 0.971997
vt 0.310755 0.534267
vt 0.003361 0.534267
vt 0.003361 0.971997
vt 0.310755 0.534267
vt 0.003361 0.534267
vt 0.309462 0.012159
vt 0.002327 0.449889
vt 0.309462 0.449889
vt 0.309462 0.449889
vt 0.309462 0.012159
vt 0.309462 0.012159
vt 0.002327 0.449889
vt 0.309462 0.449889
vt 0.002327 0.012159
vt 0.309462 0.449889
vt 0.309462 0.012159
vt 0.347208 0.010685
vt 0.653051 0.448047
vt 0.653051 0.010317
vt 0.652792 0.448047
vt 0.347466 0.010685
vt 0.347208 0.448047
vt 0.346613 0.447235
vt 0.653564 0.011740
vt 0.346628 0.011642
vt 0.003361 0.971997
vt 0.310755 0.534267
vt 0.003361 0.534267
vt 0.003361 0.971997
vt 0.310755 0.534267
vt 0.003361 0.534267
vt 0.003361 0.534267
vt 0.310755 0.971997
vt 0.310755 0.534267
vt 0.003361 0.971997
vt 0.310755 0.534267
vt 0.003361 0.534267
vt 0.003361 0.971997
vt 0.310755 0.534267
vt 0.003361 0.534267
vt 0.653826 0.011791
vt 0.346949 0.447310
vt 0.653826 0.447310
vt 0.347208 0.010685
vt 0.653051 0.448047
vt 0.653051 0.010317
vt 0.351861 0.971997
vt 0.659255 0.534267
vt 0.351861 0.534267
vt 0.692865 0.535372
vt 0.999741 0.973102
vt 1.000000 0.535372
vt 0.347208 0.448047
vt 0.652792 0.010685
vt 0.347466 0.010685
vt 0.346613 0.447235
vt 0.653564 0.011740
vt 0.346628 0.011642
vt 0.003361 0.971997
vt 0.310755 0.534267
vt 0.003361 0.534267
vt 0.003361 0.971997
vt 0.310755 0.534267
vt 0.003361 0.534267
vt 0.003361 0.971997
vt 0.310755 0.534267
vt 0.003361 0.534267
vt 0.003361 0.971997
vt 0.310755 0.534267
vt 0.003361 0.534267
vt 0.002327 0.449889
vt 0.309462 0.012159
vt 0.002327 0.012159
vt 0.309462 0.012159
vt 0.002327 0.449889
vt 0.309462 0.449889
vt 0.002327 0.449889
vt 0.309462 0.012159
vt 0.002327 0.012159
vt 0.003361 0.971997
vt 0.310755 0.534267
vt 0.003361 0.534267
vt 0.652792 0.448047
vt 0.347466 0.010685
vt 0.347208 0.448047
vt 0.309462 0.449889
vt 0.002327 0.012159
vt 0.002327 0.449889
vt 0.346613 0.447235
vt 0.653564 0.011740
vt 0.346628 0.011642
vt 0.309462 0.012159
vt 0.002327 0.012159
vt 0.002327 0.449889
vt 0.309462 0.449889
vt 0.002327 0.449889
vt 0.309462 0.012159
vt 0.002327 0.012159
vt 0.003361 0.971997
vt 0.310755 0.534267
vt 0.003361 0.534267
vt 0.309462 0.012159
vt 0.002327 0.449889
vt 0.309462 0.449889
vt 0.351861 0.971997
vt 0.659255 0.534267
vt 0.351861 0.534267
vt 0.002327 0.449889
vt 0.002327 0.012159
vt 0.002327 0.012159
vt 0.309462 0.449889
vt 0.309462 0.012159
vt 0.002327 0.449889
vt 0.309462 0.449889
vt 0.002327 0.012159
vt 0.309462 0.449889
vt 0.309462 0.012159
vt 0.003361 0.971997
vt 0.310755 0.534267
vt 0.003361 0.534267
vt 0.309462 0.012159
vt 0.002327 0.449889
vt 0.309462 0.449889
vt 0.003361 0.971997
vt 0.310755 0.534267
vt 0.003361 0.534267
vt 0.002327 0.449889
vt 0.309462 0.012159
vt 0.002327 0.012159
vt 0.003361 0.534267
vt 0.310755 0.971997
vt 0.310755 0.534267
vt 0.653826 0.011791
vt 0.346949 0.447310
vt 0.653826 0.447310
vt 0.653051 0.010317
vt 0.347466 0.448047
vt 0.653051 0.448047
vt 0.003361 0.971997
vt 0.310755 0.534267
vt 0.003361 0.534267
vt 1.000000 0.972734
vt 0.692865 0.535372
vt 0.692865 0.972734
vt 0.003361 0.971997
vt 0.310755 0.534267
vt 0.003361 0.534267
vt 0.652792 0.010685
vt 0.346691 0.011791
vt 0.310755 0.971997
vt 0.310755 0.971997
vt 0.310755 0.971997
vt 0.652792 0.010685
vt 0.002327 0.012159
vt 0.309462 0.012159
vt 0.653460 0.447231
vt 0.310755 0.971997
vt 0.310755 0.971997
vt 0.002327 0.449889
vt 0.002327 0.449889
vt 0.347466 0.448047
vt 0.652792 0.010685
vt 0.653460 0.447231
vt 0.310755 0.971997
vt 0.310755 0.971997
vt 0.003361 0.971997
vt 0.310755 0.971997
vt 0.310755 0.971997
vt 0.346691 0.011791
vt 0.347466 0.448047
vt 0.659255 0.971997
vt 0.692865 0.973102
vt 0.652792 0.448047
vt 0.653460 0.447231
vt 0.310755 0.971997
vt 0.310755 0.971997
vt 0.310755 0.971997
vt 0.310755 0.971997
vt 0.309462 0.449889
vt 0.310755 0.971997
vt 0.652792 0.010685
vt 0.309462 0.012159
vt 0.653460 0.447231
vt 0.309462 0.449889
vt 0.310755 0.971997
vt 0.002327 0.012159
vt 0.659255 0.971997
vt 0.309462 0.449889
vt 0.002327 0.012159
vt 0.002327 0.449889
vt 0.310755 0.971997
vt 0.002327 0.012159
vt 0.310755 0.971997
vt 0.309462 0.449889
vt 0.003361 0.971997
vt 0.346691 0.011791
vt 0.347208 0.010685
vt 0.310755 0.971997
vt 1.000000 0.535372
vt 0.310755 0.971997
vn 0.0000 -1.0000 -0.0000
s 1
f 2/1/1 4/2/1 1/3/1
f 3/4/1 6/5/1 4/6/1
f 5/7/1 8/8/1 6/9/1
f 7/10/1 10/11/1 8/12/1
f 9/13/1 12/14/1 10/15/1
f 11/16/1 14/17/1 12/18/1
f 13/19/1 16/20/1 14/21/1
f 15/22/1 18/23/1 16/24/1
f 19/25/1 3/26/1 2/27/1
f 21/28/1 20/29/1 19/30/1
f 23/31/1 22/32/1 21/33/1
f 25/34/1 24/35/1 23/36/1
f 27/37/1 26/38/1 25/39/1
f 29/40/1 28/41/1 27/42/1
f 31/43/1 30/44/1 29/45/1
f 3/46/1 33/47/1 5/48/1
f 22/32/1 33/49/1 20/50/1
f 22/51/1 35/52/1 34/53/1
f 26/54/1 35/55/1 24/56/1
f 28/57/1 36/58/1 26/59/1
f 30/60/1 37/61/1 28/62/1
f 32/63/1 38/64/1 30/65/1
f 33/66/1 7/67/1 5/68/1
f 34/69/1 40/70/1 33/71/1
f 34/72/1 42/73/1 41/74/1
f 36/75/1 42/76/1 35/77/1
f 37/78/1 43/79/1 36/80/1
f 38/81/1 44/82/1 37/83/1
f 39/84/1 45/85/1 38/86/1
f 40/87/1 9/88/1 7/89/1
f 41/90/1 47/91/1 40/92/1
f 41/93/1 49/94/1 48/95/1
f 43/96/1 49/97/1 42/98/1
f 44/99/1 50/100/1 43/101/1
f 45/102/1 51/103/1 44/104/1
f 46/105/1 52/106/1 45/107/1
f 47/108/1 11/109/1 9/110/1
f 48/111/1 54/112/1 47/113/1
f 49/114/1 55/115/1 48/116/1
f 50/117/1 56/118/1 49/119/1
f 51/120/1 57/121/1 50/122/1
f 52/123/1 58/124/1 51/125/1
f 53/126/1 59/127/1 52/128/1
f 54/129/1 13/130/1 11/131/1
f 55/115/1 61/132/1 54/133/1
f 56/118/1 62/134/1 55/135/1
f 57/136/1 63/137/1 56/138/1
f 58/139/1 64/140/1 57/141/1
f 59/142/1 65/143/1 58/144/1
f 60/145/1 66/146/1 59/147/1
f 61/148/1 15/22/1 13/149/1
f 61/150/1 69/151/1 68/152/1
f 63/137/1 69/153/1 62/154/1
f 63/155/1 71/156/1 70/157/1
f 65/158/1 71/159/1 64/160/1
f 66/161/1 72/162/1 65/163/1
f 67/164/1 73/165/1 66/166/1
f 68/167/1 17/168/1 15/169/1
f 68/170/1 76/171/1 75/172/1
f 70/173/1 76/174/1 69/175/1
f 70/176/1 78/177/1 77/178/1
f 72/179/1 78/180/1 71/181/1
f 73/182/1 79/183/1 72/184/1
f 74/185/1 80/186/1 73/187/1
f 2/1/1 3/188/1 4/2/1
f 3/4/1 5/189/1 6/5/1
f 5/7/1 7/190/1 8/8/1
f 7/10/1 9/191/1 10/11/1
f 9/13/1 11/192/1 12/14/1
f 11/16/1 13/193/1 14/17/1
f 13/19/1 15/169/1 16/20/1
f 15/22/1 17/194/1 18/23/1
f 19/25/1 20/50/1 3/26/1
f 21/28/1 22/51/1 20/29/1
f 23/31/1 24/56/1 22/32/1
f 25/34/1 26/195/1 24/35/1
f 27/37/1 28/196/1 26/38/1
f 29/40/1 30/197/1 28/41/1
f 31/43/1 32/198/1 30/44/1
f 3/46/1 20/29/1 33/47/1
f 22/32/1 34/199/1 33/49/1
f 22/51/1 24/35/1 35/52/1
f 26/54/1 36/200/1 35/55/1
f 28/57/1 37/201/1 36/58/1
f 30/60/1 38/202/1 37/61/1
f 32/63/1 39/203/1 38/64/1
f 33/66/1 40/204/1 7/67/1
f 34/69/1 41/205/1 40/70/1
f 34/72/1 35/206/1 42/73/1
f 36/75/1 43/207/1 42/76/1
f 37/78/1 44/208/1 43/79/1
f 38/81/1 45/209/1 44/82/1
f 39/84/1 46/210/1 45/85/1
f 40/87/1 47/211/1 9/88/1
f 41/90/1 48/212/1 47/91/1
f 41/93/1 42/213/1 49/94/1
f 43/96/1 50/214/1 49/97/1
f 44/99/1 51/215/1 50/100/1
f 45/102/1 52/216/1 51/103/1
f 46/105/1 53/217/1 52/106/1
f 47/108/1 54/218/1 11/109/1
f 48/111/1 55/135/1 54/112/1
f 49/114/1 56/138/1 55/115/1
f 50/117/1 57/219/1 56/118/1
f 51/120/1 58/220/1 57/121/1
f 52/123/1 59/221/1 58/124/1
f 53/126/1 60/222/1 59/127/1
f 54/129/1 61/223/1 13/130/1
f 55/115/1 62/154/1 61/132/1
f 56/118/1 63/155/1 62/134/1
f 57/136/1 64/224/1 63/137/1
f 58/139/1 65/225/1 64/140/1
f 59/142/1 66/226/1 65/143/1
f 60/145/1 67/227/1 66/146/1
f 61/148/1 68/228/1 15/22/1
f 61/150/1 62/134/1 69/151/1
f 63/137/1 70/229/1 69/153/1
f 63/155/1 64/230/1 71/156/1
f 65/158/1 72/231/1 71/159/1
f 66/161/1 73/232/1 72/162/1
f 67/164/1 74/233/1 73/165/1
f 68/167/1 75/234/1 17/168/1
f 68/170/1 69/235/1 76/171/1
f 70/173/1 77/236/1 76/174/1
f 70/176/1 71/237/1 78/177/1
f 72/179/1 79/238/1 78/180/1
f 73/182/1 80/239/1 79/183/1
f 74/185/1 81/240/1 80/186/1
