# Blender v2.90.0 OBJ File: 'LevelDesigns.blend'
# www.blender.org
o Factory-Wall.040_Plane.1437
v -39.763187 41.245846 -0.059970
v -29.763187 41.245846 -0.059970
v -39.763187 31.245848 -0.059970
v -29.763186 31.245850 -0.059970
v 30.236816 11.245854 -0.059967
v 30.236816 1.245854 -0.059967
v 40.236816 11.245855 -0.059967
v 40.236816 21.245855 -0.059967
v 30.236814 21.245853 -0.059967
v 40.236813 31.245855 -0.059967
v 10.236814 21.245852 -0.059968
v 20.236814 21.245853 -0.059968
v 40.236813 41.245853 -0.059967
v 30.236814 31.245853 -0.059967
v 20.236813 41.245850 -0.059968
v 30.236813 41.245853 -0.059967
v 10.236813 41.245850 -0.059968
v 10.236814 31.245852 -0.059968
v 20.236814 31.245853 -0.059968
v 40.236824 1.245850 -0.059967
v 30.236816 11.245854 -0.059967
v 30.236816 1.245854 -0.059967
v 20.236816 11.245854 -0.059968
v 20.236816 1.245853 -0.059968
v 30.236816 11.245854 -0.059967
v 20.236816 11.245854 -0.059968
v 30.236814 21.245853 -0.059967
v 20.236814 21.245853 -0.059968
v 30.236814 21.245853 -0.059967
v 20.236814 21.245853 -0.059968
v 30.236814 31.245853 -0.059967
v 20.236814 31.245853 -0.059968
v 30.236814 31.245853 -0.059967
v 20.236813 41.245850 -0.059968
v 30.236813 41.245853 -0.059967
v 20.236814 31.245853 -0.059968
v 0.236815 11.245852 -0.059969
v 0.236815 1.245852 -0.059969
v -9.763186 11.245852 -0.059969
v -9.763185 1.245851 -0.059969
v 0.236815 11.245852 -0.059969
v -9.763186 11.245852 -0.059969
v 0.236814 21.245852 -0.059969
v -9.763186 21.245852 -0.059969
v 0.236814 21.245852 -0.059969
v -9.763186 21.245852 -0.059969
v -9.763186 31.245852 -0.059969
v 0.236813 31.245852 -0.059969
v 0.236812 41.245850 -0.059969
v -9.763187 41.245850 -0.059969
v -9.763186 31.245852 -0.059969
v 0.236813 31.245852 -0.059969
v 10.236814 21.245852 -0.059968
v 0.236814 21.245852 -0.059969
v 10.236814 31.245852 -0.059968
v 0.236813 31.245852 -0.059969
v 10.236813 41.245850 -0.059968
v 10.236814 31.245852 -0.059968
v 0.236812 41.245850 -0.059969
v 0.236813 31.245852 -0.059969
v -29.763184 11.245851 -0.059970
v -29.763184 1.245849 -0.059970
v -19.763186 1.245850 -0.059969
v -19.763186 11.245851 -0.059969
v -29.763184 11.245851 -0.059970
v -29.763186 21.245850 -0.059970
v -19.763186 11.245851 -0.059969
v -19.763187 21.245850 -0.059969
v -29.763186 21.245850 -0.059970
v -19.763187 31.245850 -0.059969
v -19.763187 21.245850 -0.059969
v -29.763186 31.245850 -0.059970
v -19.763187 31.245850 -0.059969
v -19.763189 41.245850 -0.059969
v -29.763187 41.245846 -0.059970
v -29.763186 31.245850 -0.059970
v -9.763186 11.245852 -0.059969
v -9.763185 1.245851 -0.059969
v -19.763186 1.245850 -0.059969
v -19.763186 11.245851 -0.059969
v -9.763186 11.245852 -0.059969
v -19.763186 11.245851 -0.059969
v -9.763186 21.245852 -0.059969
v -19.763187 21.245850 -0.059969
v -9.763186 21.245852 -0.059969
v -19.763187 31.245850 -0.059969
v -19.763187 21.245850 -0.059969
v -9.763186 31.245852 -0.059969
v -19.763187 31.245850 -0.059969
v -9.763187 41.245850 -0.059969
v -9.763186 31.245852 -0.059969
v -19.763189 41.245850 -0.059969
v -29.763184 11.245851 -0.059970
v -29.763184 1.245849 -0.059970
v -39.763184 1.245849 -0.059970
v -39.763184 11.245850 -0.059970
v -29.763184 11.245851 -0.059970
v -29.763186 21.245850 -0.059970
v -39.763184 21.245848 -0.059970
v -39.763184 11.245850 -0.059970
v -29.763186 21.245850 -0.059970
v -39.763184 21.245848 -0.059970
v -39.763187 31.245848 -0.059970
v -29.763186 31.245850 -0.059970
vt 0.543091 0.058236
vt 0.963400 0.477830
vt 0.543091 0.478455
vt 0.543091 0.058236
vt 0.963400 0.477830
vt 0.543091 0.478455
vt 0.543091 0.058236
vt 0.963400 0.477830
vt 0.543091 0.478455
vt 0.543091 0.058236
vt 0.963400 0.477830
vt 0.543091 0.478455
vt 0.543091 0.058236
vt 0.963400 0.477830
vt 0.543091 0.478455
vt 0.543091 0.058236
vt 0.963400 0.477830
vt 0.543091 0.478455
vt 0.543091 0.058236
vt 0.963400 0.477830
vt 0.543091 0.478455
vt 0.031686 0.057501
vt 0.454041 0.479208
vt 0.031686 0.479208
vt 0.544905 0.518738
vt 0.967260 0.940445
vt 0.544905 0.940445
vt 0.035458 0.518619
vt 0.457813 0.940326
vt 0.035458 0.940326
vt 0.544905 0.518738
vt 0.967260 0.940445
vt 0.544905 0.940445
vt 0.031686 0.057501
vt 0.454041 0.479208
vt 0.031686 0.479208
vt 0.031686 0.057501
vt 0.454041 0.479208
vt 0.031686 0.479208
vt 0.031686 0.057501
vt 0.454041 0.479208
vt 0.031686 0.479208
vt 0.031686 0.057501
vt 0.454041 0.479208
vt 0.031686 0.479208
vt 0.543091 0.058236
vt 0.963400 0.477830
vt 0.543091 0.478455
vt 0.543091 0.058236
vt 0.963400 0.477830
vt 0.543091 0.478455
vt 0.031686 0.057501
vt 0.454041 0.479208
vt 0.031686 0.479208
vt 0.031686 0.057501
vt 0.454041 0.479208
vt 0.031686 0.479208
vt 0.031686 0.057501
vt 0.454041 0.479208
vt 0.031686 0.479208
vt 0.031686 0.057501
vt 0.454041 0.479208
vt 0.031686 0.479208
vt 0.543091 0.058236
vt 0.963400 0.477830
vt 0.543091 0.478455
vt 0.543091 0.058236
vt 0.963400 0.477830
vt 0.543091 0.478455
vt 0.543091 0.058236
vt 0.963400 0.477830
vt 0.543091 0.478455
vt 0.543091 0.058236
vt 0.963400 0.477830
vt 0.543091 0.478455
vt 0.543091 0.058236
vt 0.963400 0.477830
vt 0.543091 0.478455
vt 0.543091 0.058236
vt 0.963400 0.477830
vt 0.543091 0.478455
vt 0.543091 0.058236
vt 0.963400 0.477830
vt 0.543091 0.478455
vt 0.963400 0.057611
vt 0.963400 0.057611
vt 0.963400 0.057611
vt 0.963400 0.057611
vt 0.963400 0.057611
vt 0.963400 0.057611
vt 0.963400 0.057611
vt 0.454041 0.057501
vt 0.967260 0.518738
vt 0.457813 0.518619
vt 0.967260 0.518738
vt 0.454041 0.057501
vt 0.454041 0.057501
vt 0.454041 0.057501
vt 0.454041 0.057501
vt 0.963400 0.057611
vt 0.963400 0.057611
vt 0.454041 0.057501
vt 0.454041 0.057501
vt 0.454041 0.057501
vt 0.454041 0.057501
vt 0.963400 0.057611
vt 0.963400 0.057611
vt 0.963400 0.057611
vt 0.963400 0.057611
vt 0.963400 0.057611
vt 0.963400 0.057611
vt 0.963400 0.057611
vn -0.0000 0.0000 1.0000
s off
f 3/1/1 2/2/1 1/3/1
f 6/4/1 7/5/1 5/6/1
f 5/7/1 8/8/1 9/9/1
f 9/10/1 10/11/1 14/12/1
f 11/13/1 19/14/1 18/15/1
f 14/16/1 13/17/1 16/18/1
f 18/19/1 15/20/1 17/21/1
f 24/22/1 21/23/1 23/24/1
f 26/25/1 27/26/1 28/27/1
f 30/28/1 31/29/1 32/30/1
f 36/31/1 35/32/1 34/33/1
f 40/34/1 37/35/1 39/36/1
f 42/37/1 43/38/1 44/39/1
f 46/40/1 48/41/1 47/42/1
f 51/43/1 49/44/1 50/45/1
f 54/46/1 55/47/1 56/48/1
f 60/49/1 57/50/1 59/51/1
f 62/52/1 64/53/1 61/54/1
f 65/55/1 68/56/1 66/57/1
f 69/58/1 70/59/1 72/60/1
f 76/61/1 74/62/1 75/63/1
f 79/64/1 77/65/1 80/66/1
f 82/67/1 83/68/1 84/69/1
f 87/70/1 88/71/1 86/72/1
f 89/73/1 90/74/1 92/75/1
f 95/76/1 93/77/1 96/78/1
f 100/79/1 98/80/1 99/81/1
f 102/82/1 104/83/1 103/84/1
f 3/1/1 4/85/1 2/2/1
f 6/4/1 20/86/1 7/5/1
f 5/7/1 7/87/1 8/8/1
f 9/10/1 8/88/1 10/11/1
f 11/13/1 12/89/1 19/14/1
f 14/16/1 10/90/1 13/17/1
f 18/19/1 19/91/1 15/20/1
f 24/22/1 22/92/1 21/23/1
f 26/25/1 25/93/1 27/26/1
f 30/28/1 29/94/1 31/29/1
f 36/31/1 33/95/1 35/32/1
f 40/34/1 38/96/1 37/35/1
f 42/37/1 41/97/1 43/38/1
f 46/40/1 45/98/1 48/41/1
f 51/43/1 52/99/1 49/44/1
f 54/46/1 53/100/1 55/47/1
f 60/49/1 58/101/1 57/50/1
f 62/52/1 63/102/1 64/53/1
f 65/55/1 67/103/1 68/56/1
f 69/58/1 71/104/1 70/59/1
f 76/61/1 73/105/1 74/62/1
f 79/64/1 78/106/1 77/65/1
f 82/67/1 81/107/1 83/68/1
f 87/70/1 85/108/1 88/71/1
f 89/73/1 91/109/1 90/74/1
f 95/76/1 94/110/1 93/77/1
f 100/79/1 97/111/1 98/80/1
f 102/82/1 101/112/1 104/83/1
