# Blender v2.91.2 OBJ File: 'LevelDesign(Final-Version)s.blend'
# www.blender.org
mtllib MainMenu-Floor.mtl
o MainMenu-Floor_Plane.655
v -40.000000 -0.000006 40.000004
v -30.000000 -0.000006 40.000004
v -40.000000 -0.000006 30.000004
v -30.000000 -0.000006 30.000004
v -30.000000 -0.000006 40.000004
v -30.000000 -0.000006 30.000004
v -20.000000 -0.000006 40.000004
v -20.000000 -0.000006 30.000004
v -20.000000 -0.000006 40.000004
v -20.000000 -0.000006 30.000004
v -10.000000 -0.000006 40.000004
v -10.000000 -0.000006 30.000004
v -10.000000 -0.000006 40.000004
v -10.000000 -0.000006 30.000004
v 0.000000 -0.000006 40.000004
v 0.000000 -0.000006 30.000004
v 0.000000 -0.000006 40.000004
v 0.000000 -0.000006 30.000004
v 10.000000 -0.000006 40.000004
v 10.000000 -0.000006 30.000004
v 10.000000 -0.000006 40.000004
v 10.000000 -0.000006 30.000004
v 20.000000 -0.000006 40.000004
v 20.000000 -0.000006 30.000004
v 20.000000 -0.000006 40.000004
v 20.000000 -0.000006 30.000004
v 30.000000 -0.000006 40.000004
v 30.000000 -0.000006 30.000004
v 30.000000 -0.000006 40.000004
v 30.000000 -0.000006 30.000004
v 40.000000 -0.000006 40.000004
v 40.000000 -0.000006 30.000004
v -40.000000 -0.000006 30.000004
v -40.000000 -0.000006 20.000004
v -30.000000 -0.000006 30.000004
v -30.000000 -0.000006 20.000004
v -30.000000 -0.000006 30.000004
v -30.000000 -0.000006 20.000004
v -20.000000 -0.000006 30.000004
v -20.000000 -0.000006 20.000004
v -20.000000 -0.000006 30.000004
v -20.000000 -0.000006 20.000004
v -10.000000 -0.000006 30.000004
v -10.000000 -0.000006 20.000004
v -10.000000 -0.000006 30.000004
v -10.000000 -0.000006 20.000004
v 0.000000 -0.000006 30.000004
v 0.000000 -0.000006 20.000004
v 0.000000 -0.000006 30.000004
v 0.000000 -0.000006 20.000004
v 10.000000 -0.000006 30.000004
v 10.000000 -0.000006 20.000004
v 10.000000 -0.000006 30.000004
v 10.000000 -0.000006 20.000004
v 20.000000 -0.000006 30.000004
v 20.000000 -0.000006 20.000004
v 20.000000 -0.000006 30.000004
v 20.000000 -0.000006 20.000004
v 30.000000 -0.000006 30.000004
v 30.000000 -0.000006 20.000004
v 30.000000 -0.000006 30.000004
v 30.000000 -0.000006 20.000004
v 40.000000 -0.000006 30.000004
v 40.000000 -0.000006 20.000004
v -40.000000 -0.000006 20.000004
v -40.000000 -0.000006 10.000004
v -30.000000 -0.000006 20.000004
v -30.000000 -0.000006 10.000004
v -30.000000 -0.000006 20.000004
v -30.000000 -0.000006 10.000004
v -20.000000 -0.000006 20.000004
v -20.000000 -0.000006 10.000004
v -20.000000 -0.000006 20.000004
v -20.000000 -0.000006 10.000004
v -10.000000 -0.000006 20.000004
v -10.000000 -0.000006 10.000004
v -10.000000 -0.000006 20.000004
v -10.000000 -0.000006 10.000004
v 0.000000 -0.000006 20.000004
v 0.000000 -0.000006 10.000004
v 0.000000 -0.000006 20.000004
v 0.000000 -0.000006 10.000004
v 10.000000 -0.000006 20.000004
v 10.000000 -0.000006 10.000004
v 10.000000 -0.000006 20.000004
v 10.000000 -0.000006 10.000004
v 20.000000 -0.000006 20.000004
v 20.000000 -0.000006 10.000004
v 20.000000 -0.000006 20.000004
v 20.000000 -0.000006 10.000004
v 30.000000 -0.000006 20.000004
v 30.000000 -0.000006 10.000004
v 30.000000 -0.000006 20.000004
v 30.000000 -0.000006 10.000004
v 40.000000 -0.000006 20.000004
v 40.000000 -0.000006 10.000004
v -40.000000 -0.000006 10.000004
v -40.000000 -0.000006 0.000004
v -30.000000 -0.000006 10.000004
v -30.000000 -0.000006 0.000004
v -30.000000 -0.000006 10.000004
v -30.000000 -0.000006 0.000004
v -20.000000 -0.000006 10.000004
v -20.000000 -0.000006 0.000004
v -20.000000 -0.000006 10.000004
v -20.000000 -0.000006 0.000004
v -10.000000 -0.000006 10.000004
v -10.000000 -0.000006 0.000004
v -10.000000 -0.000006 10.000004
v -10.000000 -0.000006 0.000004
v 0.000000 -0.000006 10.000004
v 0.000000 -0.000006 0.000004
v 0.000000 -0.000006 10.000004
v 0.000000 -0.000006 0.000004
v 10.000000 -0.000006 10.000004
v 10.000000 -0.000006 0.000004
v 10.000000 -0.000006 10.000004
v 10.000000 -0.000006 0.000004
v 20.000000 -0.000006 10.000004
v 20.000000 -0.000006 0.000004
v 20.000000 -0.000006 10.000004
v 20.000000 -0.000006 0.000004
v 30.000000 -0.000006 10.000004
v 30.000000 -0.000006 0.000004
v 30.000000 -0.000006 10.000004
v 30.000000 -0.000006 0.000004
v 40.000000 -0.000006 10.000004
v 40.000000 -0.000006 0.000004
v -40.000000 -0.000006 0.000004
v -40.000000 -0.000006 -9.999996
v -30.000000 -0.000006 0.000004
v -30.000000 -0.000006 -9.999996
v -30.000000 -0.000006 0.000004
v -30.000000 -0.000006 -9.999996
v -20.000000 -0.000006 0.000004
v -20.000000 -0.000006 -9.999996
v -20.000000 -0.000006 0.000004
v -20.000000 -0.000006 -9.999996
v -10.000000 -0.000006 0.000004
v -10.000000 -0.000006 -9.999996
v -10.000000 -0.000006 0.000004
v -10.000000 -0.000006 -9.999996
v 0.000000 -0.000006 0.000004
v 0.000000 -0.000006 -9.999996
v 0.000000 -0.000006 0.000004
v 0.000000 -0.000006 -9.999996
v 10.000000 -0.000006 0.000004
v 10.000000 -0.000006 -9.999996
v 10.000000 -0.000006 0.000004
v 10.000000 -0.000006 -9.999996
v 20.000000 -0.000006 0.000004
v 20.000000 -0.000006 -9.999996
v 20.000000 -0.000006 0.000004
v 20.000000 -0.000006 -9.999996
v 30.000000 -0.000006 0.000004
v 30.000000 -0.000006 -9.999996
v 30.000000 -0.000006 0.000004
v 30.000000 -0.000006 -9.999996
v 40.000000 -0.000006 0.000004
v 40.000000 -0.000006 -9.999996
v -40.000000 -0.000006 -9.999996
v -40.000000 -0.000006 -19.999996
v -30.000000 -0.000006 -9.999996
v -30.000000 -0.000006 -19.999996
v -30.000000 -0.000006 -9.999996
v -30.000000 -0.000006 -19.999996
v -20.000000 -0.000006 -9.999996
v -20.000000 -0.000006 -19.999996
v -20.000000 -0.000006 -9.999996
v -20.000000 -0.000006 -19.999996
v -10.000000 -0.000006 -9.999996
v -10.000000 -0.000006 -19.999996
v -10.000000 -0.000006 -9.999996
v -10.000000 -0.000006 -19.999996
v 0.000000 -0.000006 -9.999996
v 0.000000 -0.000006 -19.999996
v 0.000000 -0.000006 -9.999996
v 0.000000 -0.000006 -19.999996
v 10.000000 -0.000006 -9.999996
v 10.000000 -0.000006 -19.999996
v 10.000000 -0.000006 -9.999996
v 10.000000 -0.000006 -19.999996
v 20.000000 -0.000006 -9.999996
v 20.000000 -0.000006 -19.999996
v 20.000000 -0.000006 -9.999996
v 20.000000 -0.000006 -19.999996
v 30.000000 -0.000006 -9.999996
v 30.000000 -0.000006 -19.999996
v 30.000000 -0.000006 -9.999996
v 30.000000 -0.000006 -19.999996
v 40.000000 -0.000006 -9.999996
v 40.000000 -0.000006 -19.999996
v -40.000000 -0.000006 -19.999996
v -40.000000 -0.000006 -29.999996
v -30.000000 -0.000006 -19.999996
v -30.000000 -0.000006 -29.999996
v -30.000000 -0.000006 -19.999996
v -30.000000 -0.000006 -29.999996
v -20.000000 -0.000006 -19.999996
v -20.000000 -0.000006 -29.999996
v -20.000000 -0.000006 -19.999996
v -20.000000 -0.000006 -29.999996
v -10.000000 -0.000006 -19.999996
v -10.000000 -0.000006 -29.999996
v -10.000000 -0.000006 -19.999996
v -10.000000 -0.000006 -29.999996
v 0.000000 -0.000006 -19.999996
v 0.000000 -0.000006 -29.999996
v 0.000000 -0.000006 -19.999996
v 0.000000 -0.000006 -29.999996
v 10.000000 -0.000006 -19.999996
v 10.000000 -0.000006 -29.999996
v 10.000000 -0.000006 -19.999996
v 10.000000 -0.000006 -29.999996
v 20.000000 -0.000006 -19.999996
v 20.000000 -0.000006 -29.999996
v 20.000000 -0.000006 -19.999996
v 20.000000 -0.000006 -29.999996
v 30.000000 -0.000006 -19.999996
v 30.000000 -0.000006 -29.999996
v 30.000000 -0.000006 -19.999996
v 30.000000 -0.000006 -29.999996
v 40.000000 -0.000006 -19.999996
v 40.000000 -0.000006 -29.999996
v -40.000000 -0.000006 -29.999996
v -40.000000 -0.000006 -39.999996
v -30.000000 -0.000006 -29.999996
v -30.000000 -0.000006 -39.999996
v -30.000000 -0.000006 -29.999996
v -30.000000 -0.000006 -39.999996
v -20.000000 -0.000006 -29.999996
v -20.000000 -0.000006 -39.999996
v -20.000000 -0.000006 -29.999996
v -20.000000 -0.000006 -39.999996
v -10.000000 -0.000006 -29.999996
v -10.000000 -0.000006 -39.999996
v -10.000000 -0.000006 -29.999996
v -10.000000 -0.000006 -39.999996
v 0.000000 -0.000006 -29.999996
v 0.000000 -0.000006 -39.999996
v 0.000000 -0.000006 -29.999996
v 0.000000 -0.000006 -39.999996
v 10.000000 -0.000006 -29.999996
v 10.000000 -0.000006 -39.999996
v 10.000000 -0.000006 -29.999996
v 10.000000 -0.000006 -39.999996
v 20.000000 -0.000006 -29.999996
v 20.000000 -0.000006 -39.999996
v 20.000000 -0.000006 -29.999996
v 20.000000 -0.000006 -39.999996
v 30.000000 -0.000006 -29.999996
v 30.000000 -0.000006 -39.999996
v 30.000000 -0.000006 -29.999996
v 30.000000 -0.000006 -39.999996
v 40.000000 -0.000006 -29.999996
v 40.000000 -0.000006 -39.999996
vt 0.003361 0.971997
vt 0.310755 0.534267
vt 0.003361 0.534267
vt 0.003361 0.971997
vt 0.310755 0.534267
vt 0.003361 0.534267
vt 0.003361 0.971997
vt 0.310755 0.534267
vt 0.003361 0.534267
vt 0.003361 0.971997
vt 0.310755 0.534267
vt 0.003361 0.534267
vt 0.003361 0.971997
vt 0.310755 0.534267
vt 0.003361 0.534267
vt 0.003361 0.971997
vt 0.310755 0.534267
vt 0.003361 0.534267
vt 0.003361 0.971997
vt 0.310755 0.534267
vt 0.003361 0.534267
vt 0.003361 0.971997
vt 0.310755 0.534267
vt 0.003361 0.534267
vt 0.003361 0.971997
vt 0.310755 0.534267
vt 0.003361 0.534267
vt 0.003361 0.971997
vt 0.310755 0.534267
vt 0.003361 0.534267
vt 0.003361 0.971997
vt 0.310755 0.534267
vt 0.003361 0.534267
vt 0.003361 0.971997
vt 0.310755 0.534267
vt 0.003361 0.534267
vt 0.003361 0.971997
vt 0.310755 0.534267
vt 0.003361 0.534267
vt 0.003361 0.971997
vt 0.310755 0.534267
vt 0.003361 0.534267
vt 0.003361 0.971997
vt 0.310755 0.534267
vt 0.003361 0.534267
vt 0.003361 0.971997
vt 0.310755 0.534267
vt 0.003361 0.534267
vt 0.003361 0.971997
vt 0.310755 0.534267
vt 0.003361 0.534267
vt 0.003361 0.971997
vt 0.310755 0.534267
vt 0.003361 0.534267
vt 0.003361 0.971997
vt 0.310755 0.534267
vt 0.003361 0.534267
vt 0.003361 0.971997
vt 0.310755 0.534267
vt 0.003361 0.534267
vt 0.003361 0.971997
vt 0.310755 0.534267
vt 0.003361 0.534267
vt 0.003361 0.971997
vt 0.310755 0.534267
vt 0.003361 0.534267
vt 0.003361 0.971997
vt 0.310755 0.534267
vt 0.003361 0.534267
vt 0.003361 0.971997
vt 0.310755 0.534267
vt 0.003361 0.534267
vt 0.003361 0.971997
vt 0.310755 0.534267
vt 0.003361 0.534267
vt 0.003361 0.971997
vt 0.310755 0.534267
vt 0.003361 0.534267
vt 0.003361 0.971997
vt 0.310755 0.534267
vt 0.003361 0.534267
vt 0.003361 0.971997
vt 0.310755 0.534267
vt 0.003361 0.534267
vt 0.003361 0.971997
vt 0.310755 0.534267
vt 0.003361 0.534267
vt 0.003361 0.971997
vt 0.310755 0.534267
vt 0.003361 0.534267
vt 0.003361 0.971997
vt 0.310755 0.534267
vt 0.003361 0.534267
vt 0.003361 0.971997
vt 0.310755 0.534267
vt 0.003361 0.534267
vt 0.003361 0.971997
vt 0.310755 0.534267
vt 0.003361 0.534267
vt 0.003361 0.971997
vt 0.310755 0.534267
vt 0.003361 0.534267
vt 0.003361 0.971997
vt 0.310755 0.534267
vt 0.003361 0.534267
vt 0.003361 0.971997
vt 0.310755 0.534267
vt 0.003361 0.534267
vt 0.003361 0.971997
vt 0.310755 0.534267
vt 0.003361 0.534267
vt 0.003361 0.971997
vt 0.310755 0.534267
vt 0.003361 0.534267
vt 0.003361 0.971997
vt 0.310755 0.534267
vt 0.003361 0.534267
vt 0.003361 0.971997
vt 0.310755 0.534267
vt 0.003361 0.534267
vt 0.003361 0.971997
vt 0.310755 0.534267
vt 0.003361 0.534267
vt 0.003361 0.971997
vt 0.310755 0.534267
vt 0.003361 0.534267
vt 0.003361 0.971997
vt 0.310755 0.534267
vt 0.003361 0.534267
vt 0.003361 0.971997
vt 0.310755 0.534267
vt 0.003361 0.534267
vt 0.003361 0.971997
vt 0.310755 0.534267
vt 0.003361 0.534267
vt 0.003361 0.971997
vt 0.310755 0.534267
vt 0.003361 0.534267
vt 0.003361 0.971997
vt 0.310755 0.534267
vt 0.003361 0.534267
vt 0.003361 0.971997
vt 0.310755 0.534267
vt 0.003361 0.534267
vt 0.003361 0.971997
vt 0.310755 0.534267
vt 0.003361 0.534267
vt 0.003361 0.971997
vt 0.310755 0.534267
vt 0.003361 0.534267
vt 0.003361 0.971997
vt 0.310755 0.534267
vt 0.003361 0.534267
vt 0.003361 0.971997
vt 0.310755 0.534267
vt 0.003361 0.534267
vt 0.003361 0.971997
vt 0.310755 0.534267
vt 0.003361 0.534267
vt 0.003361 0.971997
vt 0.310755 0.534267
vt 0.003361 0.534267
vt 0.003361 0.971997
vt 0.310755 0.534267
vt 0.003361 0.534267
vt 0.003361 0.971997
vt 0.310755 0.534267
vt 0.003361 0.534267
vt 0.003361 0.971997
vt 0.310755 0.534267
vt 0.003361 0.534267
vt 0.003361 0.971997
vt 0.310755 0.534267
vt 0.003361 0.534267
vt 0.003361 0.971997
vt 0.310755 0.534267
vt 0.003361 0.534267
vt 0.003361 0.971997
vt 0.310755 0.534267
vt 0.003361 0.534267
vt 0.003361 0.971997
vt 0.310755 0.534267
vt 0.003361 0.534267
vt 0.003361 0.971997
vt 0.310755 0.534267
vt 0.003361 0.534267
vt 0.003361 0.971997
vt 0.310755 0.534267
vt 0.003361 0.534267
vt 0.003361 0.971997
vt 0.310755 0.534267
vt 0.003361 0.534267
vt 0.310755 0.971997
vt 0.310755 0.971997
vt 0.310755 0.971997
vt 0.310755 0.971997
vt 0.310755 0.971997
vt 0.310755 0.971997
vt 0.310755 0.971997
vt 0.310755 0.971997
vt 0.310755 0.971997
vt 0.310755 0.971997
vt 0.310755 0.971997
vt 0.310755 0.971997
vt 0.310755 0.971997
vt 0.310755 0.971997
vt 0.310755 0.971997
vt 0.310755 0.971997
vt 0.310755 0.971997
vt 0.310755 0.971997
vt 0.310755 0.971997
vt 0.310755 0.971997
vt 0.310755 0.971997
vt 0.310755 0.971997
vt 0.310755 0.971997
vt 0.310755 0.971997
vt 0.310755 0.971997
vt 0.310755 0.971997
vt 0.310755 0.971997
vt 0.310755 0.971997
vt 0.310755 0.971997
vt 0.310755 0.971997
vt 0.310755 0.971997
vt 0.310755 0.971997
vt 0.310755 0.971997
vt 0.310755 0.971997
vt 0.310755 0.971997
vt 0.310755 0.971997
vt 0.310755 0.971997
vt 0.310755 0.971997
vt 0.310755 0.971997
vt 0.310755 0.971997
vt 0.310755 0.971997
vt 0.310755 0.971997
vt 0.310755 0.971997
vt 0.310755 0.971997
vt 0.310755 0.971997
vt 0.310755 0.971997
vt 0.310755 0.971997
vt 0.310755 0.971997
vt 0.310755 0.971997
vt 0.310755 0.971997
vt 0.310755 0.971997
vt 0.310755 0.971997
vt 0.310755 0.971997
vt 0.310755 0.971997
vt 0.310755 0.971997
vt 0.310755 0.971997
vt 0.310755 0.971997
vt 0.310755 0.971997
vt 0.310755 0.971997
vt 0.310755 0.971997
vt 0.310755 0.971997
vt 0.310755 0.971997
vt 0.310755 0.971997
vt 0.310755 0.971997
vn 0.0000 1.0000 0.0000
usemtl Material.002
s off
f 2/1/1 3/2/1 1/3/1
f 7/4/1 6/5/1 5/6/1
f 11/7/1 10/8/1 9/9/1
f 15/10/1 14/11/1 13/12/1
f 19/13/1 18/14/1 17/15/1
f 23/16/1 22/17/1 21/18/1
f 27/19/1 26/20/1 25/21/1
f 31/22/1 30/23/1 29/24/1
f 35/25/1 34/26/1 33/27/1
f 39/28/1 38/29/1 37/30/1
f 43/31/1 42/32/1 41/33/1
f 47/34/1 46/35/1 45/36/1
f 51/37/1 50/38/1 49/39/1
f 55/40/1 54/41/1 53/42/1
f 59/43/1 58/44/1 57/45/1
f 63/46/1 62/47/1 61/48/1
f 67/49/1 66/50/1 65/51/1
f 71/52/1 70/53/1 69/54/1
f 75/55/1 74/56/1 73/57/1
f 79/58/1 78/59/1 77/60/1
f 83/61/1 82/62/1 81/63/1
f 87/64/1 86/65/1 85/66/1
f 91/67/1 90/68/1 89/69/1
f 95/70/1 94/71/1 93/72/1
f 99/73/1 98/74/1 97/75/1
f 103/76/1 102/77/1 101/78/1
f 107/79/1 106/80/1 105/81/1
f 111/82/1 110/83/1 109/84/1
f 115/85/1 114/86/1 113/87/1
f 119/88/1 118/89/1 117/90/1
f 123/91/1 122/92/1 121/93/1
f 127/94/1 126/95/1 125/96/1
f 131/97/1 130/98/1 129/99/1
f 135/100/1 134/101/1 133/102/1
f 139/103/1 138/104/1 137/105/1
f 143/106/1 142/107/1 141/108/1
f 147/109/1 146/110/1 145/111/1
f 151/112/1 150/113/1 149/114/1
f 155/115/1 154/116/1 153/117/1
f 159/118/1 158/119/1 157/120/1
f 163/121/1 162/122/1 161/123/1
f 167/124/1 166/125/1 165/126/1
f 171/127/1 170/128/1 169/129/1
f 175/130/1 174/131/1 173/132/1
f 179/133/1 178/134/1 177/135/1
f 183/136/1 182/137/1 181/138/1
f 187/139/1 186/140/1 185/141/1
f 191/142/1 190/143/1 189/144/1
f 195/145/1 194/146/1 193/147/1
f 199/148/1 198/149/1 197/150/1
f 203/151/1 202/152/1 201/153/1
f 207/154/1 206/155/1 205/156/1
f 211/157/1 210/158/1 209/159/1
f 215/160/1 214/161/1 213/162/1
f 219/163/1 218/164/1 217/165/1
f 223/166/1 222/167/1 221/168/1
f 227/169/1 226/170/1 225/171/1
f 231/172/1 230/173/1 229/174/1
f 235/175/1 234/176/1 233/177/1
f 239/178/1 238/179/1 237/180/1
f 243/181/1 242/182/1 241/183/1
f 247/184/1 246/185/1 245/186/1
f 251/187/1 250/188/1 249/189/1
f 255/190/1 254/191/1 253/192/1
f 2/1/1 4/193/1 3/2/1
f 7/4/1 8/194/1 6/5/1
f 11/7/1 12/195/1 10/8/1
f 15/10/1 16/196/1 14/11/1
f 19/13/1 20/197/1 18/14/1
f 23/16/1 24/198/1 22/17/1
f 27/19/1 28/199/1 26/20/1
f 31/22/1 32/200/1 30/23/1
f 35/25/1 36/201/1 34/26/1
f 39/28/1 40/202/1 38/29/1
f 43/31/1 44/203/1 42/32/1
f 47/34/1 48/204/1 46/35/1
f 51/37/1 52/205/1 50/38/1
f 55/40/1 56/206/1 54/41/1
f 59/43/1 60/207/1 58/44/1
f 63/46/1 64/208/1 62/47/1
f 67/49/1 68/209/1 66/50/1
f 71/52/1 72/210/1 70/53/1
f 75/55/1 76/211/1 74/56/1
f 79/58/1 80/212/1 78/59/1
f 83/61/1 84/213/1 82/62/1
f 87/64/1 88/214/1 86/65/1
f 91/67/1 92/215/1 90/68/1
f 95/70/1 96/216/1 94/71/1
f 99/73/1 100/217/1 98/74/1
f 103/76/1 104/218/1 102/77/1
f 107/79/1 108/219/1 106/80/1
f 111/82/1 112/220/1 110/83/1
f 115/85/1 116/221/1 114/86/1
f 119/88/1 120/222/1 118/89/1
f 123/91/1 124/223/1 122/92/1
f 127/94/1 128/224/1 126/95/1
f 131/97/1 132/225/1 130/98/1
f 135/100/1 136/226/1 134/101/1
f 139/103/1 140/227/1 138/104/1
f 143/106/1 144/228/1 142/107/1
f 147/109/1 148/229/1 146/110/1
f 151/112/1 152/230/1 150/113/1
f 155/115/1 156/231/1 154/116/1
f 159/118/1 160/232/1 158/119/1
f 163/121/1 164/233/1 162/122/1
f 167/124/1 168/234/1 166/125/1
f 171/127/1 172/235/1 170/128/1
f 175/130/1 176/236/1 174/131/1
f 179/133/1 180/237/1 178/134/1
f 183/136/1 184/238/1 182/137/1
f 187/139/1 188/239/1 186/140/1
f 191/142/1 192/240/1 190/143/1
f 195/145/1 196/241/1 194/146/1
f 199/148/1 200/242/1 198/149/1
f 203/151/1 204/243/1 202/152/1
f 207/154/1 208/244/1 206/155/1
f 211/157/1 212/245/1 210/158/1
f 215/160/1 216/246/1 214/161/1
f 219/163/1 220/247/1 218/164/1
f 223/166/1 224/248/1 222/167/1
f 227/169/1 228/249/1 226/170/1
f 231/172/1 232/250/1 230/173/1
f 235/175/1 236/251/1 234/176/1
f 239/178/1 240/252/1 238/179/1
f 243/181/1 244/253/1 242/182/1
f 247/184/1 248/254/1 246/185/1
f 251/187/1 252/255/1 250/188/1
f 255/190/1 256/256/1 254/191/1
