# Blender v2.90.0 OBJ File: 'LevelDesigns.blend'
# www.blender.org
o Factory-Wall.006_Plane.1526
v -32.370014 50.000000 0.024386
v -32.370014 60.000000 0.024386
v -22.370008 60.000004 0.024385
v -22.370008 50.000004 0.024385
v -12.370010 60.000004 0.024385
v -12.370009 50.000004 0.024385
v -2.370010 60.000004 0.024385
v -12.370010 60.000004 0.024385
v -2.370010 50.000004 0.024385
v -12.370009 50.000004 0.024385
v 7.629991 50.000004 0.024384
v 7.629990 60.000004 0.024384
v 17.629988 60.000004 0.024384
v 17.629988 50.000004 0.024384
v -32.370014 50.000000 0.024386
v -32.370014 60.000000 0.024386
v -42.370014 60.000000 0.024386
v -42.370014 50.000000 0.024386
v 7.629991 50.000004 0.024384
v -2.370010 60.000004 0.024385
v -2.370010 50.000004 0.024385
v 7.629990 60.000004 0.024384
v 27.629986 50.000008 0.024383
v 17.629988 60.000004 0.024384
v 17.629988 50.000004 0.024384
v 27.629986 60.000008 0.024383
v 37.629986 50.000008 0.024383
v 27.629986 50.000008 0.024383
v 37.629986 60.000008 0.024383
v 27.629986 60.000008 0.024383
v 17.629997 10.000000 0.024381
v 17.629997 0.000000 0.024381
v 27.629995 10.000001 0.024381
v 27.629995 0.000001 0.024381
v -32.370007 29.999998 0.024380
v -22.370001 19.999998 0.024380
v -32.370003 19.999998 0.024380
v -22.370001 29.999998 0.024380
v -2.370003 20.000000 0.024379
v -12.370003 20.000000 0.024380
v -2.370003 30.000000 0.024379
v -12.370003 30.000000 0.024380
v -22.370001 19.999998 0.024380
v -12.370003 20.000000 0.024380
v -22.370001 29.999998 0.024380
v -12.370003 30.000000 0.024380
v 7.629998 10.000000 0.024379
v 17.629997 10.000000 0.024378
v 17.629997 0.000000 0.024378
v 7.629999 -0.000000 0.024379
v 7.629998 10.000000 0.024379
v 17.629997 10.000000 0.024378
v 7.629998 20.000000 0.024379
v 17.629995 20.000002 0.024378
v 7.629998 20.000000 0.024379
v 17.629995 20.000002 0.024378
v 7.629997 30.000000 0.024379
v 17.629995 30.000002 0.024378
v -32.370003 9.999996 0.024380
v -32.370003 -0.000003 0.024380
v -42.370003 -0.000004 0.024381
v -42.370003 9.999996 0.024381
v -32.370003 9.999996 0.024380
v -42.370003 9.999996 0.024381
v -42.370003 19.999996 0.024381
v -32.370003 19.999998 0.024380
v -42.370003 19.999996 0.024381
v -32.370007 29.999998 0.024380
v -32.370003 19.999998 0.024380
v -42.370007 29.999996 0.024381
v -32.370003 9.999996 0.024380
v -32.370003 -0.000003 0.024380
v -22.369999 -0.000003 0.024380
v -22.369999 9.999997 0.024380
v -32.370003 9.999996 0.024380
v -22.369999 9.999997 0.024380
v -22.370001 19.999998 0.024380
v -32.370003 19.999998 0.024380
v 7.629998 20.000000 0.024379
v -2.370003 20.000000 0.024379
v 7.629997 30.000000 0.024379
v -2.370003 30.000000 0.024379
v -2.370002 -0.000001 0.024379
v 7.629996 -0.000000 0.024379
v -2.370003 9.999999 0.024379
v 7.629995 10.000000 0.024379
v -2.370002 9.999999 0.024379
v 7.629998 10.000000 0.024379
v -2.370003 20.000000 0.024379
v 7.629998 20.000000 0.024379
v 17.629997 10.000000 0.024378
v 27.629995 10.000001 0.024378
v 17.629995 20.000002 0.024378
v 27.629993 20.000002 0.024378
v 17.629995 20.000002 0.024378
v 27.629993 20.000002 0.024378
v 27.629993 30.000002 0.024378
v 17.629995 30.000002 0.024378
v 27.629995 10.000001 0.024378
v 27.629995 0.000001 0.024378
v 37.629997 10.000002 0.024377
v 37.629997 0.000002 0.024377
v 27.629995 10.000001 0.024378
v 37.629997 10.000002 0.024377
v 37.629997 20.000002 0.024377
v 27.629993 20.000002 0.024378
v 37.629997 20.000002 0.024377
v 27.629993 20.000002 0.024378
v 37.629993 30.000002 0.024377
v 27.629993 30.000002 0.024378
v -32.370007 29.999998 0.024380
v -32.370007 39.999996 0.024380
v -22.370003 40.000000 0.024380
v -22.370001 29.999998 0.024380
v -12.370004 40.000000 0.024380
v -12.370003 30.000000 0.024380
v -2.370004 40.000000 0.024379
v -12.370004 40.000000 0.024380
v -2.370003 30.000000 0.024379
v -12.370003 30.000000 0.024380
v 7.629997 30.000000 0.024379
v 7.629996 40.000000 0.024379
v 17.629993 40.000000 0.024378
v 17.629995 30.000002 0.024378
v -32.370007 29.999998 0.024380
v -32.370007 39.999996 0.024380
v -42.370007 39.999996 0.024381
v -42.370007 29.999996 0.024381
v 7.629997 30.000000 0.024379
v -2.370004 40.000000 0.024379
v -2.370003 30.000000 0.024379
v 7.629996 40.000000 0.024379
v 27.629993 30.000002 0.024378
v 17.629993 40.000000 0.024378
v 17.629995 30.000002 0.024378
v 27.629992 40.000004 0.024378
v 37.629993 30.000002 0.024377
v 27.629993 30.000002 0.024378
v 37.629993 40.000004 0.024377
v 27.629992 40.000004 0.024378
v -32.370007 39.999996 0.024383
v -32.370007 50.000000 0.024383
v -22.370008 50.000004 0.024383
v -22.370008 40.000000 0.024383
v -12.370008 50.000004 0.024382
v -12.370007 40.000000 0.024382
v -2.370007 50.000004 0.024382
v -12.370008 50.000004 0.024382
v -2.370007 40.000000 0.024382
v -12.370007 40.000000 0.024382
v 7.629993 40.000000 0.024381
v 7.629992 50.000004 0.024381
v 17.629990 50.000004 0.024381
v 17.629990 40.000000 0.024381
v -32.370007 39.999996 0.024383
v -32.370007 50.000000 0.024383
v -42.370014 50.000000 0.024384
v -42.370014 39.999996 0.024384
v 7.629993 40.000000 0.024381
v -2.370007 50.000004 0.024382
v -2.370007 40.000000 0.024382
v 7.629992 50.000004 0.024381
v 27.629992 40.000004 0.024381
v 17.629990 50.000004 0.024381
v 17.629990 40.000000 0.024381
v 27.629992 50.000008 0.024381
v 37.629993 40.000004 0.024380
v 27.629992 40.000004 0.024381
v 37.629993 50.000008 0.024380
v 27.629992 50.000008 0.024381
vt 0.035458 0.518619
vt 0.457813 0.940326
vt 0.035458 0.940326
vt 0.543091 0.058236
vt 0.963400 0.477830
vt 0.543091 0.478455
vt 0.543091 0.058236
vt 0.963400 0.477830
vt 0.543091 0.478455
vt 0.543091 0.058236
vt 0.963400 0.477830
vt 0.543091 0.478455
vt 0.543091 0.058236
vt 0.963400 0.477830
vt 0.543091 0.478455
vt 0.031686 0.057501
vt 0.454041 0.479208
vt 0.031686 0.479208
vt 0.031686 0.057501
vt 0.454041 0.479208
vt 0.031686 0.479208
vt 0.543091 0.058236
vt 0.963400 0.477830
vt 0.543091 0.478455
vt 0.031686 0.057501
vt 0.454041 0.479208
vt 0.031686 0.479208
vt 0.544905 0.518738
vt 0.967260 0.940445
vt 0.544905 0.940445
vt 0.543091 0.058236
vt 0.963400 0.477830
vt 0.543091 0.478455
vt 0.543091 0.058236
vt 0.963400 0.477830
vt 0.543091 0.478455
vt 0.543091 0.058236
vt 0.963400 0.477830
vt 0.543091 0.478455
vt 0.543091 0.058236
vt 0.963400 0.477830
vt 0.543091 0.478455
vt 0.543091 0.058236
vt 0.963400 0.477830
vt 0.543091 0.478455
vt 0.543091 0.058236
vt 0.963400 0.477830
vt 0.543091 0.478455
vt 0.543091 0.058236
vt 0.963400 0.477830
vt 0.543091 0.478455
vt 0.543091 0.058236
vt 0.963400 0.477830
vt 0.543091 0.478455
vt 0.031686 0.057501
vt 0.454041 0.479208
vt 0.031686 0.479208
vt 0.035458 0.518619
vt 0.457813 0.940326
vt 0.035458 0.940326
vt 0.031686 0.057501
vt 0.454041 0.479208
vt 0.031686 0.479208
vt 0.031686 0.057501
vt 0.454041 0.479208
vt 0.031686 0.479208
vt 0.031686 0.057501
vt 0.454041 0.479208
vt 0.031686 0.479208
vt 0.031686 0.057501
vt 0.454041 0.479208
vt 0.031686 0.479208
vt 0.031686 0.057501
vt 0.454041 0.479208
vt 0.031686 0.479208
vt 0.543091 0.058236
vt 0.963400 0.477830
vt 0.543091 0.478455
vt 0.543091 0.058236
vt 0.963400 0.477830
vt 0.543091 0.478455
vt 0.543091 0.058236
vt 0.963400 0.477830
vt 0.543091 0.478455
vt 0.035458 0.518619
vt 0.457813 0.940326
vt 0.035458 0.940326
vt 0.543091 0.058236
vt 0.963400 0.477830
vt 0.543091 0.478455
vt 0.543091 0.058236
vt 0.963400 0.477830
vt 0.543091 0.478455
vt 0.543091 0.058236
vt 0.963400 0.477830
vt 0.543091 0.478455
vt 0.543091 0.058236
vt 0.963400 0.477830
vt 0.543091 0.478455
vt 0.031686 0.057501
vt 0.454041 0.479208
vt 0.031686 0.479208
vt 0.031686 0.057501
vt 0.454041 0.479208
vt 0.031686 0.479208
vt 0.543091 0.058236
vt 0.963400 0.477830
vt 0.543091 0.478455
vt 0.035458 0.518619
vt 0.457813 0.940326
vt 0.035458 0.940326
vt 0.543091 0.058236
vt 0.963400 0.477830
vt 0.543091 0.478455
vt 0.543091 0.058236
vt 0.963400 0.477830
vt 0.543091 0.478455
vt 0.543091 0.058236
vt 0.963400 0.477830
vt 0.543091 0.478455
vt 0.543091 0.058236
vt 0.963400 0.477830
vt 0.543091 0.478455
vt 0.031686 0.057501
vt 0.454041 0.479208
vt 0.031686 0.479208
vt 0.031686 0.057501
vt 0.454041 0.479208
vt 0.031686 0.479208
vt 0.543091 0.058236
vt 0.963400 0.477830
vt 0.543091 0.478455
vt 0.457813 0.518619
vt 0.963400 0.057611
vt 0.963400 0.057611
vt 0.963400 0.057611
vt 0.963400 0.057611
vt 0.454041 0.057501
vt 0.454041 0.057501
vt 0.963400 0.057611
vt 0.454041 0.057501
vt 0.967260 0.518738
vt 0.963400 0.057611
vt 0.963400 0.057611
vt 0.963400 0.057611
vt 0.963400 0.057611
vt 0.963400 0.057611
vt 0.963400 0.057611
vt 0.963400 0.057611
vt 0.963400 0.057611
vt 0.454041 0.057501
vt 0.457813 0.518619
vt 0.454041 0.057501
vt 0.454041 0.057501
vt 0.454041 0.057501
vt 0.454041 0.057501
vt 0.454041 0.057501
vt 0.963400 0.057611
vt 0.963400 0.057611
vt 0.963400 0.057611
vt 0.457813 0.518619
vt 0.963400 0.057611
vt 0.963400 0.057611
vt 0.963400 0.057611
vt 0.963400 0.057611
vt 0.454041 0.057501
vt 0.454041 0.057501
vt 0.963400 0.057611
vt 0.457813 0.518619
vt 0.963400 0.057611
vt 0.963400 0.057611
vt 0.963400 0.057611
vt 0.963400 0.057611
vt 0.454041 0.057501
vt 0.454041 0.057501
vt 0.963400 0.057611
vn -0.0000 0.0000 -1.0000
s off
f 4/1/1 2/2/1 3/3/1
f 6/4/1 3/5/1 5/6/1
f 9/7/1 8/8/1 7/9/1
f 14/10/1 12/11/1 13/12/1
f 15/13/1 17/14/1 16/15/1
f 19/16/1 20/17/1 22/18/1
f 23/19/1 24/20/1 26/21/1
f 27/22/1 30/23/1 29/24/1
f 34/25/1 31/26/1 33/27/1
f 36/28/1 35/29/1 38/30/1
f 39/31/1 42/32/1 41/33/1
f 44/34/1 45/35/1 46/36/1
f 49/37/1 47/38/1 48/39/1
f 52/40/1 53/41/1 54/42/1
f 56/43/1 57/44/1 58/45/1
f 60/46/1 62/47/1 59/48/1
f 63/49/1 65/50/1 66/51/1
f 69/52/1 70/53/1 68/54/1
f 73/55/1 71/56/1 74/57/1
f 76/58/1 78/59/1 77/60/1
f 79/61/1 82/62/1 81/63/1
f 84/64/1 85/65/1 86/66/1
f 88/67/1 89/68/1 90/69/1
f 92/70/1 93/71/1 94/72/1
f 96/73/1 98/74/1 97/75/1
f 102/76/1 99/77/1 101/78/1
f 104/79/1 106/80/1 105/81/1
f 107/82/1 110/83/1 109/84/1
f 114/85/1 112/86/1 113/87/1
f 116/88/1 113/89/1 115/90/1
f 119/91/1 118/92/1 117/93/1
f 124/94/1 122/95/1 123/96/1
f 125/97/1 127/98/1 126/99/1
f 129/100/1 130/101/1 132/102/1
f 133/103/1 134/104/1 136/105/1
f 137/106/1 140/107/1 139/108/1
f 144/109/1 142/110/1 143/111/1
f 146/112/1 143/113/1 145/114/1
f 149/115/1 148/116/1 147/117/1
f 154/118/1 152/119/1 153/120/1
f 155/121/1 157/122/1 156/123/1
f 159/124/1 160/125/1 162/126/1
f 163/127/1 164/128/1 166/129/1
f 167/130/1 170/131/1 169/132/1
f 4/1/1 1/133/1 2/2/1
f 6/4/1 4/134/1 3/5/1
f 9/7/1 10/135/1 8/8/1
f 14/10/1 11/136/1 12/11/1
f 15/13/1 18/137/1 17/14/1
f 19/16/1 21/138/1 20/17/1
f 23/19/1 25/139/1 24/20/1
f 27/22/1 28/140/1 30/23/1
f 34/25/1 32/141/1 31/26/1
f 36/28/1 37/142/1 35/29/1
f 39/31/1 40/143/1 42/32/1
f 44/34/1 43/144/1 45/35/1
f 49/37/1 50/145/1 47/38/1
f 52/40/1 51/146/1 53/41/1
f 56/43/1 55/147/1 57/44/1
f 60/46/1 61/148/1 62/47/1
f 63/49/1 64/149/1 65/50/1
f 69/52/1 67/150/1 70/53/1
f 73/55/1 72/151/1 71/56/1
f 76/58/1 75/152/1 78/59/1
f 79/61/1 80/153/1 82/62/1
f 84/64/1 83/154/1 85/65/1
f 88/67/1 87/155/1 89/68/1
f 92/70/1 91/156/1 93/71/1
f 96/73/1 95/157/1 98/74/1
f 102/76/1 100/158/1 99/77/1
f 104/79/1 103/159/1 106/80/1
f 107/82/1 108/160/1 110/83/1
f 114/85/1 111/161/1 112/86/1
f 116/88/1 114/162/1 113/89/1
f 119/91/1 120/163/1 118/92/1
f 124/94/1 121/164/1 122/95/1
f 125/97/1 128/165/1 127/98/1
f 129/100/1 131/166/1 130/101/1
f 133/103/1 135/167/1 134/104/1
f 137/106/1 138/168/1 140/107/1
f 144/109/1 141/169/1 142/110/1
f 146/112/1 144/170/1 143/113/1
f 149/115/1 150/171/1 148/116/1
f 154/118/1 151/172/1 152/119/1
f 155/121/1 158/173/1 157/122/1
f 159/124/1 161/174/1 160/125/1
f 163/127/1 165/175/1 164/128/1
f 167/130/1 168/176/1 170/131/1
