# Blender v2.90.0 OBJ File: 'LevelDesigns.blend'
# www.blender.org
o Cube.001_Cube.001
v -0.593330 2.763467 3.249483
v -0.593330 3.413360 3.249483
v -0.593330 3.413361 -3.249443
v -0.593330 2.763468 -3.249443
v -0.593330 3.126190 -3.702844
v -0.593330 3.866763 -3.702844
v 0.129469 3.866763 -3.702844
v 0.129469 3.126190 -3.702844
v 0.129469 -2.526119 3.362537
v 0.129469 -3.198621 3.362537
v -0.187535 -3.198621 3.362537
v -0.187535 -2.526119 3.362537
v 0.129469 3.126189 3.702884
v 0.129469 3.866761 3.702884
v -0.593330 3.866761 3.702884
v -0.593330 3.126189 3.702884
v -0.593330 -3.538966 -3.702845
v 0.129469 -3.538966 -3.702845
v 0.129469 -3.538967 3.702883
v -0.593330 -3.538967 3.702883
v 0.129469 -2.526118 -3.362499
v 0.129469 -3.198620 -3.362499
v 0.129469 -2.798394 -3.702845
v 0.129469 3.526417 3.362538
v 0.129469 3.526418 -3.362499
v 0.129469 2.853913 3.362538
v -0.187535 -3.198620 -3.362499
v -0.187535 3.526417 3.362538
v -0.187535 3.526418 -3.362499
v 0.129469 2.853914 -3.362499
v -0.187535 2.853914 -3.362499
v -0.593330 -3.085566 3.249482
v -0.593330 -3.085565 -3.249444
v -0.593330 -2.435673 3.249482
v -0.593330 -2.798395 3.702883
v -0.593330 -2.435672 -3.249444
v -0.593330 -2.798394 -3.702845
v -0.593330 -1.785782 -3.249444
v -0.593330 -2.057820 -3.702845
v -0.593330 -1.135888 -3.249444
v -0.593330 -1.317248 -3.702845
v -0.593330 -0.485995 -3.249444
v -0.593330 -0.576674 -3.702845
v -0.593330 0.163898 -3.249444
v -0.593330 0.163898 -3.702845
v -0.593330 0.813791 -3.249443
v -0.593330 0.904470 -3.702845
v -0.593330 1.463686 -3.249443
v -0.593330 1.645044 -3.702845
v -0.593330 2.113575 -3.249443
v -0.593330 2.385617 -3.702844
v -0.593330 2.113574 3.249483
v -0.593330 2.385615 3.702884
v -0.593330 1.463685 3.249483
v -0.593330 1.645043 3.702884
v -0.593330 0.813790 3.249483
v -0.593330 0.904469 3.702884
v -0.593330 0.163897 3.249482
v -0.593330 0.163897 3.702883
v -0.593330 -0.485996 3.249482
v -0.593330 -0.576675 3.702883
v -0.593330 -1.135889 3.249482
v -0.593330 -1.317249 3.702883
v -0.593330 -1.785783 3.249482
v -0.593330 -2.057821 3.702883
v -0.187535 -2.526118 -3.362499
v 0.129469 -1.853614 -3.362499
v -0.187535 -1.853614 -3.362499
v 0.129469 -1.181112 -3.362499
v -0.187535 -1.181112 -3.362499
v 0.129469 -0.508604 -3.362499
v -0.187535 -0.508604 -3.362499
v 0.129469 0.163898 -3.362499
v -0.187535 0.163898 -3.362499
v 0.129469 0.836402 -3.362499
v -0.187535 0.836402 -3.362499
v 0.129469 1.508905 -3.362499
v -0.187535 1.508905 -3.362499
v 0.129469 2.181412 -3.362499
v -0.187535 2.181412 -3.362499
v 0.129469 -2.798395 3.702883
v 0.129469 -1.853615 3.362538
v 0.129469 -2.057821 3.702883
v 0.129469 -1.181113 3.362538
v 0.129469 -1.317249 3.702883
v 0.129469 -0.508605 3.362538
v 0.129469 -0.576675 3.702883
v 0.129469 0.163897 3.362538
v 0.129469 0.163897 3.702883
v 0.129469 0.836401 3.362538
v 0.129469 0.904469 3.702884
v 0.129469 1.508903 3.362538
v 0.129469 1.645043 3.702884
v 0.129469 2.181411 3.362538
v 0.129469 2.385615 3.702884
v 0.129469 2.385617 -3.702844
v 0.129469 1.645044 -3.702845
v 0.129469 0.904470 -3.702845
v 0.129469 0.163898 -3.702845
v 0.129469 -0.576674 -3.702845
v 0.129469 -1.317248 -3.702845
v 0.129469 -2.057820 -3.702845
v -0.187535 2.853913 3.362538
v -0.187535 2.181411 3.362538
v -0.187535 1.508903 3.362538
v -0.187535 0.836401 3.362538
v -0.187535 0.163897 3.362538
v -0.187535 -0.508605 3.362538
v -0.187535 -1.181113 3.362538
v -0.187535 -1.853615 3.362538
v 0.925684 1.922002 3.249483
v 0.925684 1.922003 -3.249443
v 0.978206 2.016815 -3.249443
v 0.978206 2.016814 3.249483
v 0.925684 1.272109 3.249483
v -0.540808 2.208389 3.249483
v 0.978206 1.366921 3.249483
v -0.540808 -0.391184 -3.249444
v -0.540808 -0.391185 3.249482
v 0.925684 1.272110 -3.249443
v 0.978206 1.366922 -3.249443
v 0.925684 -3.277136 -3.249444
v 0.978206 -3.182325 -3.249444
v -0.540808 -2.340859 -3.249444
v -0.540808 -1.041073 -3.249444
v -0.540808 -1.041074 3.249482
v 0.925684 0.622217 -3.249444
v 0.925684 0.622216 3.249482
v 0.978206 0.717032 3.249482
v 0.978206 0.717033 -3.249444
v 0.925684 -3.277137 3.249482
v -0.540808 -2.340860 3.249482
v 0.978206 -3.182326 3.249482
v -0.540808 -1.690966 -3.249444
v -0.540808 -1.690967 3.249482
v -0.540808 2.858284 -3.249443
v -0.540808 2.858284 3.249483
v -0.540808 0.908603 3.249483
v -0.540808 0.908604 -3.249443
v 0.978206 0.067138 -3.249444
v 0.978206 0.067137 3.249482
v 0.978206 -1.882537 -3.249444
v 0.978206 -1.882538 3.249482
v -0.540808 1.558496 3.249483
v -0.540808 1.558497 -3.249443
v 0.978206 -1.232648 -3.249444
v 0.978206 -1.232649 3.249482
v -0.540808 2.208390 -3.249443
v -0.540808 0.258710 3.249482
v -0.540808 0.258711 -3.249444
v 0.978206 -0.582755 -3.249444
v 0.978206 -0.582756 3.249482
v 0.978206 -2.532430 -3.249444
v 0.978206 -2.532431 3.249482
v 0.925684 -0.677567 3.249482
v 0.925684 -0.677566 -3.249444
v 0.925684 -0.027677 3.249482
v 0.925684 -2.627247 3.249482
v 0.925684 -0.027676 -3.249444
v 0.925684 -2.627246 -3.249444
v 0.925684 -1.977354 3.249482
v 0.925684 -1.977353 -3.249444
v 0.925684 -1.327460 -3.249444
v 0.925684 -1.327461 3.249482
vt 0.472109 0.472111
vt 0.072351 0.432136
vt 0.472109 0.432135
vt 0.044462 0.500002
vt 0.000001 0.454448
vt 0.044461 0.454448
vt 0.422006 0.947033
vt 0.404790 0.910510
vt 0.422006 0.910510
vt 0.544459 0.500000
vt 0.499999 0.454446
vt 0.544459 0.454446
vt 0.044462 0.000000
vt 0.499999 0.044463
vt 0.044462 0.044461
vt 0.499999 0.544460
vt 0.044462 0.544462
vt 0.563170 0.579852
vt 0.581700 0.601643
vt 0.563170 0.616467
vt 0.474276 0.589922
vt 0.492822 0.974922
vt 0.474277 0.956376
vt 0.527381 0.579852
vt 0.545911 0.964527
vt 0.527381 0.945997
vt 0.422006 0.581805
vt 0.440490 0.603541
vt 0.422006 0.618328
vt 0.457002 0.589922
vt 0.510121 0.579852
vt 0.563170 0.945998
vt 0.545911 0.909383
vt 0.563170 0.909383
vt 0.072351 0.072350
vt 0.472110 0.072352
vt 0.499999 0.090017
vt 0.472109 0.112328
vt 0.072351 0.472112
vt 0.044461 0.090015
vt 0.072351 0.112326
vt 0.044461 0.135569
vt 0.072351 0.152303
vt 0.044461 0.181123
vt 0.072351 0.192279
vt 0.044461 0.226677
vt 0.072351 0.232255
vt 0.044461 0.272231
vt 0.072351 0.312208
vt 0.072351 0.272231
vt 0.072351 0.352184
vt 0.044461 0.317786
vt 0.072351 0.392160
vt 0.044461 0.363340
vt 0.044461 0.408894
vt 0.499999 0.500000
vt 0.499998 0.408893
vt 0.472109 0.392159
vt 0.499998 0.363339
vt 0.472109 0.352183
vt 0.499998 0.317785
vt 0.472109 0.312207
vt 0.499998 0.272232
vt 0.472109 0.232256
vt 0.472109 0.272232
vt 0.472109 0.192280
vt 0.499998 0.226678
vt 0.472109 0.152304
vt 0.499998 0.181124
vt 0.499999 0.135570
vt 0.545911 0.579852
vt 0.563170 0.653082
vt 0.545911 0.616467
vt 0.563170 0.689696
vt 0.545911 0.653082
vt 0.563170 0.726311
vt 0.545911 0.689696
vt 0.563170 0.762925
vt 0.545911 0.726311
vt 0.563170 0.799540
vt 0.545911 0.762925
vt 0.563170 0.836154
vt 0.545911 0.799540
vt 0.563170 0.872769
vt 0.545911 0.836154
vt 0.545911 0.872769
vt 0.440490 0.925297
vt 0.440490 0.965516
vt 0.440490 0.885077
vt 0.422006 0.873987
vt 0.440490 0.844858
vt 0.422006 0.837464
vt 0.440490 0.804638
vt 0.422006 0.800941
vt 0.440490 0.764419
vt 0.422006 0.727896
vt 0.422006 0.764419
vt 0.422006 0.691373
vt 0.440490 0.724199
vt 0.422006 0.654850
vt 0.440490 0.683980
vt 0.440490 0.643760
vt 0.581700 0.924208
vt 0.581700 0.964528
vt 0.581700 0.883887
vt 0.581700 0.843566
vt 0.581700 0.803246
vt 0.581700 0.762925
vt 0.581700 0.722605
vt 0.581700 0.682284
vt 0.581700 0.641963
vt 0.544459 0.090017
vt 0.544459 0.044463
vt 0.544459 0.135571
vt 0.544459 0.181124
vt 0.544459 0.226678
vt 0.544459 0.272232
vt 0.544459 0.317785
vt 0.544459 0.363339
vt 0.544459 0.408893
vt 0.404790 0.581805
vt 0.404790 0.618328
vt 0.404790 0.654850
vt 0.404790 0.691373
vt 0.404790 0.727896
vt 0.404790 0.764419
vt 0.404790 0.800941
vt 0.404790 0.837464
vt 0.404790 0.873987
vt 0.000001 0.044460
vt 0.000000 0.090015
vt 0.000000 0.135569
vt 0.000000 0.181123
vt 0.000000 0.226677
vt 0.000000 0.272232
vt 0.000000 0.317786
vt 0.000000 0.363340
vt 0.000000 0.408894
vt 0.254610 0.965492
vt 0.247650 0.566738
vt 0.254610 0.566732
vt 0.850952 0.970605
vt 0.957500 0.963955
vt 0.957500 0.970605
vt 0.843991 0.963949
vt 0.837031 0.565195
vt 0.843991 0.565190
vt 0.964460 0.963949
vt 0.957500 0.565195
vt 0.964460 0.565190
vt 0.127181 0.972148
vt 0.020632 0.965497
vt 0.127181 0.965497
vt 0.989566 0.499712
vt 0.981563 0.041248
vt 0.989566 0.041242
vt 0.712550 0.499712
vt 0.704547 0.041248
vt 0.712550 0.041242
vt 0.127181 0.560087
vt 0.020632 0.566738
vt 0.020632 0.560087
vt 0.375079 0.965492
vt 0.368119 0.566738
vt 0.375079 0.566732
vt 0.141101 0.566738
vt 0.247650 0.965497
vt 0.141101 0.965497
vt 0.843055 0.499718
vt 0.720552 0.041248
vt 0.843055 0.041248
vt 0.981563 0.499718
vt 0.859060 0.041248
vt 0.582044 0.041248
vt 0.704547 0.499718
vt 0.582044 0.499718
vt 0.837031 0.963955
vt 0.730483 0.565195
vt 0.127181 0.566738
vt 0.850951 0.565195
vt 0.850952 0.963955
vt 0.716562 0.963955
vt 0.610013 0.565195
vt 0.716562 0.565195
vt 0.368119 0.965497
vt 0.261570 0.566738
vt 0.723522 0.963950
vt 0.723522 0.565190
vt 0.850951 0.558545
vt 0.141101 0.972148
vt 0.247650 0.972148
vt 0.851058 0.499712
vt 0.851058 0.041242
vt 0.716562 0.558545
vt 0.610013 0.558545
vt 0.141101 0.560087
vt 0.574041 0.041255
vt 0.574041 0.499724
vt 0.716562 0.970605
vt 0.610013 0.963955
vt 0.843055 0.033602
vt 0.720552 0.033602
vt 0.843991 0.565201
vt 0.843991 0.963960
vt 0.368119 0.560087
vt 0.261570 0.560087
vt 0.843055 0.507364
vt 0.720552 0.499718
vt 0.134141 0.566743
vt 0.134141 0.965503
vt 0.368119 0.972148
vt 0.261570 0.965497
vt 0.981563 0.033602
vt 0.859060 0.033602
vt 0.013672 0.566743
vt 0.013672 0.965503
vt 0.981563 0.507365
vt 0.859060 0.499718
vt 0.254610 0.566743
vt 0.254610 0.965502
vt 0.582044 0.507365
vt 0.704547 0.507364
vt 0.851058 0.041254
vt 0.851058 0.499724
vt 0.582044 0.033602
vt 0.723522 0.565201
vt 0.730483 0.963955
vt 0.723522 0.963960
vt 0.837031 0.558545
vt 0.730483 0.558545
vt 0.603053 0.565201
vt 0.603053 0.963960
vt 0.134141 0.965492
vt 0.134141 0.566732
vt 0.837031 0.970605
vt 0.712550 0.041254
vt 0.712550 0.499724
vt 0.000001 0.500002
vt 0.404790 0.947033
vt 0.499999 0.000003
vt 0.581700 0.561322
vt 0.492822 0.571377
vt 0.545911 0.561322
vt 0.440490 0.563321
vt 0.457003 0.956376
vt 0.510122 0.945997
vt 0.545911 0.945998
vt 0.020632 0.972148
vt 0.957500 0.558545
vt 0.247650 0.560087
vt 0.610013 0.970605
vt 0.720552 0.507365
vt 0.261570 0.972148
vt 0.859060 0.507364
vt 0.704547 0.033602
vt 0.730483 0.970605
vn -1.0000 -0.0000 0.0000
vn 0.0000 0.0000 -1.0000
vn 0.0000 -0.0000 1.0000
vn 0.0000 -1.0000 -0.0000
vn 0.0000 1.0000 0.0000
vn 1.0000 0.0000 0.0000
vn 0.8748 -0.4846 -0.0000
vn 0.8747 -0.4846 -0.0000
vn -0.8748 0.4846 0.0000
vn 0.4846 0.8748 0.0000
vn -0.4846 -0.8748 -0.0000
vn -0.8747 0.4846 0.0000
s 1
f 2/1/1 4/2/1 1/3/1
f 6/4/2 8/5/2 5/6/2
f 10/7/2 12/8/2 9/9/2
f 14/10/3 16/11/3 13/12/3
f 18/13/4 20/14/4 17/15/4
f 6/4/5 14/16/5 7/17/5
f 22/18/6 23/19/6 21/20/6
f 10/21/6 18/22/6 22/23/6
f 25/24/6 14/25/6 24/26/6
f 24/27/6 13/28/6 26/29/6
f 22/23/5 11/30/5 10/21/5
f 24/26/4 29/31/4 25/24/4
f 25/32/3 31/33/3 30/34/3
f 33/35/1 20/14/1 32/36/1
f 32/36/1 35/37/1 34/38/1
f 2/1/1 6/4/1 3/39/1
f 3/39/1 5/6/1 4/2/1
f 33/35/1 37/40/1 17/15/1
f 36/41/1 39/42/1 37/40/1
f 38/43/1 41/44/1 39/42/1
f 40/45/1 43/46/1 41/44/1
f 42/47/1 45/48/1 43/46/1
f 46/49/1 45/48/1 44/50/1
f 48/51/1 47/52/1 46/49/1
f 50/53/1 49/54/1 48/51/1
f 4/2/1 51/55/1 50/53/1
f 2/1/1 16/11/1 15/56/1
f 1/3/1 53/57/1 16/11/1
f 52/58/1 55/59/1 53/57/1
f 54/60/1 57/61/1 55/59/1
f 56/62/1 59/63/1 57/61/1
f 60/64/1 59/63/1 58/65/1
f 62/66/1 61/67/1 60/64/1
f 64/68/1 63/69/1 62/66/1
f 34/38/1 65/70/1 64/68/1
f 21/20/3 27/71/3 22/18/3
f 67/72/3 66/73/3 21/20/3
f 69/74/3 68/75/3 67/72/3
f 71/76/3 70/77/3 69/74/3
f 73/78/3 72/79/3 71/76/3
f 75/80/3 74/81/3 73/78/3
f 77/82/3 76/83/3 75/80/3
f 79/84/3 78/85/3 77/82/3
f 30/34/3 80/86/3 79/84/3
f 10/7/6 81/87/6 19/88/6
f 9/9/6 83/89/6 81/87/6
f 82/90/6 85/91/6 83/89/6
f 84/92/6 87/93/6 85/91/6
f 86/94/6 89/95/6 87/93/6
f 90/96/6 89/95/6 88/97/6
f 92/98/6 91/99/6 90/96/6
f 94/100/6 93/101/6 92/98/6
f 26/29/6 95/102/6 94/100/6
f 25/32/6 8/103/6 7/104/6
f 30/34/6 96/105/6 8/103/6
f 79/84/6 97/106/6 96/105/6
f 77/82/6 98/107/6 97/106/6
f 75/80/6 99/108/6 98/107/6
f 71/76/6 99/108/6 73/78/6
f 69/74/6 100/109/6 71/76/6
f 67/72/6 101/110/6 69/74/6
f 21/20/6 102/111/6 67/72/6
f 81/112/3 20/14/3 19/113/3
f 83/114/3 35/37/3 81/112/3
f 85/115/3 65/70/3 83/114/3
f 87/116/3 63/69/3 85/115/3
f 89/117/3 61/67/3 87/116/3
f 91/118/3 59/63/3 89/117/3
f 93/119/3 57/61/3 91/118/3
f 95/120/3 55/59/3 93/119/3
f 13/12/3 53/57/3 95/120/3
f 26/29/2 28/121/2 24/27/2
f 94/100/2 103/122/2 26/29/2
f 92/98/2 104/123/2 94/100/2
f 90/96/2 105/124/2 92/98/2
f 88/97/2 106/125/2 90/96/2
f 86/94/2 107/126/2 88/97/2
f 84/92/2 108/127/2 86/94/2
f 82/90/2 109/128/2 84/92/2
f 9/9/2 110/129/2 82/90/2
f 37/40/2 18/130/2 17/15/2
f 39/42/2 23/131/2 37/40/2
f 41/44/2 102/132/2 39/42/2
f 43/46/2 101/133/2 41/44/2
f 45/48/2 100/134/2 43/46/2
f 47/52/2 99/135/2 45/48/2
f 49/54/2 98/136/2 47/52/2
f 51/55/2 97/137/2 49/54/2
f 5/6/2 96/138/2 51/55/2
f 34/38/1 33/35/1 32/36/1
f 64/68/1 36/41/1 34/38/1
f 62/66/1 38/43/1 64/68/1
f 60/64/1 40/45/1 62/66/1
f 58/65/1 42/47/1 60/64/1
f 56/62/1 44/50/1 58/65/1
f 54/60/1 46/49/1 56/62/1
f 52/58/1 48/51/1 54/60/1
f 1/3/1 50/53/1 52/58/1
f 112/139/7 114/140/7 111/141/7
f 52/142/2 117/143/2 115/144/2
f 42/145/8 119/146/8 60/147/8
f 115/148/9 121/149/9 120/150/9
f 36/151/3 123/152/3 124/153/3
f 40/154/7 126/155/7 62/156/7
f 128/157/9 130/158/9 127/159/9
f 34/160/2 133/161/2 131/162/2
f 38/163/7 135/164/7 64/165/7
f 137/166/10 113/167/10 136/168/10
f 139/169/11 141/170/11 138/171/11
f 125/172/11 143/173/11 126/155/11
f 145/174/11 129/175/11 144/176/11
f 118/177/11 147/178/11 119/146/11
f 124/153/11 133/161/11 132/179/11
f 148/180/11 117/143/11 116/181/11
f 150/182/11 152/183/11 149/184/11
f 134/185/11 154/186/11 135/164/11
f 44/187/7 149/184/7 58/188/7
f 50/189/3 121/149/3 148/180/3
f 4/190/2 113/167/2 112/191/2
f 46/192/7 138/171/7 56/193/7
f 58/194/2 152/183/2 155/195/2
f 1/196/3 114/140/3 137/166/3
f 48/197/8 144/176/8 54/198/8
f 44/199/3 151/200/3 150/182/3
f 56/201/2 141/170/2 157/202/2
f 50/203/7 116/181/7 52/204/7
f 64/205/2 154/186/2 158/206/2
f 46/207/3 140/208/3 139/169/3
f 1/209/9 136/168/9 4/210/9
f 38/211/3 153/212/3 134/185/3
f 62/213/2 143/173/2 161/214/2
f 131/215/12 123/152/12 122/216/12
f 40/217/3 142/218/3 125/172/3
f 158/219/9 153/212/9 160/220/9
f 54/221/2 129/175/2 128/222/2
f 161/223/9 142/218/9 162/224/9
f 48/225/3 130/158/3 145/174/3
f 164/226/9 146/227/9 163/228/9
f 60/229/2 147/178/2 164/230/2
f 155/231/12 151/200/12 156/232/12
f 36/233/7 132/179/7 34/234/7
f 42/235/3 146/227/3 118/177/3
f 157/236/9 140/208/9 159/237/9
f 2/1/1 3/39/1 4/2/1
f 6/4/2 7/238/2 8/5/2
f 10/7/2 11/239/2 12/8/2
f 14/10/3 15/56/3 16/11/3
f 18/13/4 19/240/4 20/14/4
f 6/4/5 15/56/5 14/16/5
f 22/18/6 18/241/6 23/19/6
f 10/21/6 19/242/6 18/22/6
f 25/24/6 7/243/6 14/25/6
f 24/27/6 14/244/6 13/28/6
f 22/23/5 27/245/5 11/30/5
f 24/26/4 28/246/4 29/31/4
f 25/32/3 29/247/3 31/33/3
f 33/35/1 17/15/1 20/14/1
f 32/36/1 20/14/1 35/37/1
f 2/1/1 15/56/1 6/4/1
f 3/39/1 6/4/1 5/6/1
f 33/35/1 36/41/1 37/40/1
f 36/41/1 38/43/1 39/42/1
f 38/43/1 40/45/1 41/44/1
f 40/45/1 42/47/1 43/46/1
f 42/47/1 44/50/1 45/48/1
f 46/49/1 47/52/1 45/48/1
f 48/51/1 49/54/1 47/52/1
f 50/53/1 51/55/1 49/54/1
f 4/2/1 5/6/1 51/55/1
f 2/1/1 1/3/1 16/11/1
f 1/3/1 52/58/1 53/57/1
f 52/58/1 54/60/1 55/59/1
f 54/60/1 56/62/1 57/61/1
f 56/62/1 58/65/1 59/63/1
f 60/64/1 61/67/1 59/63/1
f 62/66/1 63/69/1 61/67/1
f 64/68/1 65/70/1 63/69/1
f 34/38/1 35/37/1 65/70/1
f 21/20/3 66/73/3 27/71/3
f 67/72/3 68/75/3 66/73/3
f 69/74/3 70/77/3 68/75/3
f 71/76/3 72/79/3 70/77/3
f 73/78/3 74/81/3 72/79/3
f 75/80/3 76/83/3 74/81/3
f 77/82/3 78/85/3 76/83/3
f 79/84/3 80/86/3 78/85/3
f 30/34/3 31/33/3 80/86/3
f 10/7/6 9/9/6 81/87/6
f 9/9/6 82/90/6 83/89/6
f 82/90/6 84/92/6 85/91/6
f 84/92/6 86/94/6 87/93/6
f 86/94/6 88/97/6 89/95/6
f 90/96/6 91/99/6 89/95/6
f 92/98/6 93/101/6 91/99/6
f 94/100/6 95/102/6 93/101/6
f 26/29/6 13/28/6 95/102/6
f 25/32/6 30/34/6 8/103/6
f 30/34/6 79/84/6 96/105/6
f 79/84/6 77/82/6 97/106/6
f 77/82/6 75/80/6 98/107/6
f 75/80/6 73/78/6 99/108/6
f 71/76/6 100/109/6 99/108/6
f 69/74/6 101/110/6 100/109/6
f 67/72/6 102/111/6 101/110/6
f 21/20/6 23/19/6 102/111/6
f 81/112/3 35/37/3 20/14/3
f 83/114/3 65/70/3 35/37/3
f 85/115/3 63/69/3 65/70/3
f 87/116/3 61/67/3 63/69/3
f 89/117/3 59/63/3 61/67/3
f 91/118/3 57/61/3 59/63/3
f 93/119/3 55/59/3 57/61/3
f 95/120/3 53/57/3 55/59/3
f 13/12/3 16/11/3 53/57/3
f 26/29/2 103/122/2 28/121/2
f 94/100/2 104/123/2 103/122/2
f 92/98/2 105/124/2 104/123/2
f 90/96/2 106/125/2 105/124/2
f 88/97/2 107/126/2 106/125/2
f 86/94/2 108/127/2 107/126/2
f 84/92/2 109/128/2 108/127/2
f 82/90/2 110/129/2 109/128/2
f 9/9/2 12/8/2 110/129/2
f 37/40/2 23/131/2 18/130/2
f 39/42/2 102/132/2 23/131/2
f 41/44/2 101/133/2 102/132/2
f 43/46/2 100/134/2 101/133/2
f 45/48/2 99/135/2 100/134/2
f 47/52/2 98/136/2 99/135/2
f 49/54/2 97/137/2 98/136/2
f 51/55/2 96/138/2 97/137/2
f 5/6/2 8/5/2 96/138/2
f 34/38/1 36/41/1 33/35/1
f 64/68/1 38/43/1 36/41/1
f 62/66/1 40/45/1 38/43/1
f 60/64/1 42/47/1 40/45/1
f 58/65/1 44/50/1 42/47/1
f 56/62/1 46/49/1 44/50/1
f 54/60/1 48/51/1 46/49/1
f 52/58/1 50/53/1 48/51/1
f 1/3/1 4/2/1 50/53/1
f 112/139/7 113/167/7 114/140/7
f 52/142/2 116/181/2 117/143/2
f 42/145/8 118/177/8 119/146/8
f 115/148/9 117/143/9 121/149/9
f 36/151/3 122/248/3 123/152/3
f 40/154/7 125/172/7 126/155/7
f 128/157/9 129/175/9 130/158/9
f 34/160/2 132/179/2 133/161/2
f 38/163/7 134/185/7 135/164/7
f 137/166/10 114/140/10 113/167/10
f 139/169/11 140/208/11 141/170/11
f 125/172/11 142/218/11 143/173/11
f 145/174/11 130/158/11 129/175/11
f 118/177/11 146/227/11 147/178/11
f 124/153/11 123/152/11 133/161/11
f 148/180/11 121/149/11 117/143/11
f 150/182/11 151/200/11 152/183/11
f 134/185/11 153/212/11 154/186/11
f 44/187/7 150/182/7 149/184/7
f 50/189/3 120/249/3 121/149/3
f 4/190/2 136/168/2 113/167/2
f 46/192/7 139/169/7 138/171/7
f 58/194/2 149/184/2 152/183/2
f 1/196/3 111/250/3 114/140/3
f 48/197/8 145/174/8 144/176/8
f 44/199/3 156/251/3 151/200/3
f 56/201/2 138/171/2 141/170/2
f 50/203/7 148/180/7 116/181/7
f 64/205/2 135/164/2 154/186/2
f 46/207/3 159/252/3 140/208/3
f 1/209/9 137/166/9 136/168/9
f 38/211/3 160/253/3 153/212/3
f 62/213/2 126/155/2 143/173/2
f 131/215/12 133/161/12 123/152/12
f 40/217/3 162/254/3 142/218/3
f 158/219/9 154/186/9 153/212/9
f 54/221/2 144/176/2 129/175/2
f 161/223/9 143/173/9 142/218/9
f 48/225/3 127/255/3 130/158/3
f 164/226/9 147/178/9 146/227/9
f 60/229/2 119/146/2 147/178/2
f 155/231/12 152/183/12 151/200/12
f 36/233/7 124/153/7 132/179/7
f 42/235/3 163/256/3 146/227/3
f 157/236/9 141/170/9 140/208/9
