# Blender v2.90.0 OBJ File: 'LevelDesigns.blend'
# www.blender.org
o Cube.002_Cube.009
v 38.134586 16.552656 18.936287
v 38.134586 17.340067 18.936287
v 38.134590 17.340071 34.684498
v 38.134590 16.552660 34.684498
v 38.134590 16.992134 35.783180
v 38.134590 17.889412 35.783180
v 37.258846 17.889412 35.783180
v 37.258846 16.992134 35.783180
v 37.258842 10.143790 18.662331
v 37.258842 9.328985 18.662331
v 37.642921 9.328985 18.662331
v 37.642921 10.143790 18.662331
v 37.258842 16.992130 17.837605
v 37.258842 17.889408 17.837605
v 38.134586 17.889408 17.837605
v 38.134586 16.992130 17.837605
v 38.134590 8.916626 35.783180
v 37.258846 8.916626 35.783180
v 37.258842 8.916622 17.837605
v 38.134586 8.916622 17.837605
v 37.258846 10.143792 34.958454
v 37.258846 9.328987 34.958454
v 37.258846 9.813904 35.783180
v 37.258842 17.477049 18.662331
v 37.258846 17.477053 34.958454
v 37.258842 16.662243 18.662331
v 37.642925 9.328987 34.958454
v 37.642921 17.477049 18.662331
v 37.642925 17.477053 34.958454
v 37.258846 16.662247 34.958454
v 37.642925 16.662247 34.958454
v 38.134586 9.465963 18.936287
v 38.134590 9.465965 34.684498
v 38.134586 10.253375 18.936287
v 38.134586 9.813900 17.837605
v 38.134590 10.253377 34.684498
v 38.134590 9.813904 35.783180
v 38.134590 11.040784 34.684498
v 38.134590 10.711183 35.783180
v 38.134590 11.828196 34.684498
v 38.134590 11.608461 35.783180
v 38.134590 12.615606 34.684498
v 38.134590 12.505740 35.783180
v 38.134590 13.403019 34.684498
v 38.134590 13.403020 35.783180
v 38.134590 14.190430 34.684498
v 38.134590 14.300298 35.783180
v 38.134590 14.977841 34.684498
v 38.134590 15.197577 35.783180
v 38.134590 15.765248 34.684498
v 38.134590 16.094856 35.783180
v 38.134586 15.765244 18.936287
v 38.134586 16.094852 17.837605
v 38.134586 14.977839 18.936287
v 38.134586 15.197573 17.837605
v 38.134586 14.190428 18.936287
v 38.134586 14.300294 17.837605
v 38.134586 13.403017 18.936287
v 38.134586 13.403016 17.837605
v 38.134586 12.615604 18.936287
v 38.134586 12.505736 17.837605
v 38.134586 11.828194 18.936287
v 38.134586 11.608458 17.837605
v 38.134586 11.040782 18.936287
v 38.134586 10.711179 17.837605
v 37.642925 10.143792 34.958454
v 37.258846 10.958598 34.958454
v 37.642925 10.958598 34.958454
v 37.258846 11.773403 34.958454
v 37.642925 11.773403 34.958454
v 37.258846 12.588213 34.958454
v 37.642925 12.588213 34.958454
v 37.258846 13.403019 34.958454
v 37.642925 13.403019 34.958454
v 37.258846 14.217824 34.958454
v 37.642925 14.217824 34.958454
v 37.258846 15.032629 34.958454
v 37.642925 15.032629 34.958454
v 37.258846 15.847440 34.958454
v 37.642925 15.847440 34.958454
v 37.258842 9.813900 17.837605
v 37.258842 10.958596 18.662331
v 37.258842 10.711179 17.837605
v 37.258842 11.773401 18.662331
v 37.258842 11.608458 17.837605
v 37.258842 12.588211 18.662331
v 37.258842 12.505736 17.837605
v 37.258842 13.403017 18.662331
v 37.258842 13.403016 17.837605
v 37.258842 14.217822 18.662331
v 37.258842 14.300294 17.837605
v 37.258842 15.032627 18.662331
v 37.258842 15.197573 17.837605
v 37.258842 15.847436 18.662331
v 37.258842 16.094852 17.837605
v 37.258846 16.094856 35.783180
v 37.258846 15.197577 35.783180
v 37.258846 14.300298 35.783180
v 37.258846 13.403020 35.783180
v 37.258846 12.505740 35.783180
v 37.258846 11.608461 35.783180
v 37.258846 10.711183 35.783180
v 37.642921 16.662243 18.662331
v 37.642921 15.847436 18.662331
v 37.642921 15.032627 18.662331
v 37.642921 14.217822 18.662331
v 37.642921 13.403017 18.662331
v 37.642921 12.588211 18.662331
v 37.642921 11.773401 18.662331
v 37.642921 10.958596 18.662331
v 36.294147 15.533137 18.936287
v 36.294151 15.533141 34.684498
v 36.230515 15.648015 34.684498
v 36.230511 15.648011 18.936287
v 36.294147 14.745727 18.936287
v 38.070950 15.880124 18.936287
v 36.230511 14.860600 18.936287
v 38.070957 12.730480 34.684498
v 38.070950 12.730478 18.936287
v 36.294151 14.745728 34.684498
v 36.230515 14.860602 34.684498
v 36.294151 9.233858 34.684498
v 36.230515 9.348732 34.684498
v 38.070957 10.368251 34.684498
v 38.070957 11.943074 34.684498
v 38.070950 11.943072 18.936287
v 36.294151 13.958317 34.684498
v 36.294147 13.958315 18.936287
v 36.230511 14.073194 18.936287
v 36.230515 14.073195 34.684498
v 36.294147 9.233856 18.936289
v 38.070950 10.368249 18.936287
v 36.230511 9.348730 18.936289
v 38.070957 11.155663 34.684498
v 38.070950 11.155661 18.936287
v 38.070957 16.667540 34.684498
v 38.070950 16.667536 18.936287
v 38.070950 14.305302 18.936287
v 38.070957 14.305304 34.684498
v 36.230515 13.285784 34.684498
v 36.230511 13.285782 18.936287
v 36.230515 10.923554 34.684498
v 36.230511 10.923553 18.936287
v 38.070950 15.092713 18.936287
v 38.070957 15.092715 34.684498
v 36.230515 11.710961 34.684498
v 36.230511 11.710959 18.936287
v 38.070957 15.880128 34.684498
v 38.070950 13.517891 18.936287
v 38.070957 13.517893 34.684498
v 36.230515 12.498373 34.684498
v 36.230511 12.498371 18.936287
v 36.230515 10.136144 34.684498
v 36.230511 10.136142 18.936287
v 36.294147 12.383497 18.936287
v 36.294151 12.383499 34.684498
v 36.294147 13.170904 18.936287
v 36.294147 10.021262 18.936287
v 36.294151 13.170906 34.684498
v 36.294151 10.021264 34.684498
v 36.294147 10.808674 18.936287
v 36.294151 10.808676 34.684498
v 36.294151 11.596087 34.684498
v 36.294147 11.596086 18.936287
vt 0.472109 0.472111
vt 0.072351 0.432136
vt 0.472109 0.432135
vt 0.044462 0.500002
vt 0.000001 0.454448
vt 0.044461 0.454448
vt 0.422006 0.947033
vt 0.404790 0.910510
vt 0.422006 0.910510
vt 0.544459 0.500000
vt 0.499999 0.454446
vt 0.544459 0.454446
vt 0.044462 0.000000
vt 0.499999 0.044463
vt 0.044462 0.044461
vt 0.499999 0.544460
vt 0.044462 0.544462
vt 0.563170 0.579852
vt 0.581700 0.601643
vt 0.563170 0.616467
vt 0.474276 0.589922
vt 0.492822 0.974922
vt 0.474277 0.956376
vt 0.527381 0.579852
vt 0.545911 0.964527
vt 0.527381 0.945997
vt 0.422006 0.581805
vt 0.440490 0.603541
vt 0.422006 0.618328
vt 0.457002 0.589922
vt 0.510121 0.579852
vt 0.563170 0.945998
vt 0.545911 0.909383
vt 0.563170 0.909383
vt 0.072351 0.072350
vt 0.472110 0.072352
vt 0.499999 0.090017
vt 0.472109 0.112328
vt 0.072351 0.472112
vt 0.499999 0.500000
vt 0.044461 0.090015
vt 0.072351 0.112326
vt 0.044461 0.135569
vt 0.072351 0.152303
vt 0.044461 0.181123
vt 0.072351 0.192279
vt 0.044461 0.226677
vt 0.072351 0.232255
vt 0.044461 0.272231
vt 0.072351 0.312208
vt 0.072351 0.272231
vt 0.072351 0.352184
vt 0.044461 0.317786
vt 0.072351 0.392160
vt 0.044461 0.363340
vt 0.044461 0.408894
vt 0.499998 0.408893
vt 0.472109 0.392159
vt 0.499998 0.363339
vt 0.472109 0.352183
vt 0.499998 0.317785
vt 0.472109 0.312207
vt 0.499998 0.272232
vt 0.472109 0.232256
vt 0.472109 0.272232
vt 0.472109 0.192280
vt 0.499998 0.226678
vt 0.472109 0.152304
vt 0.499998 0.181124
vt 0.499999 0.135570
vt 0.545911 0.579852
vt 0.563170 0.653082
vt 0.545911 0.616467
vt 0.563170 0.689696
vt 0.545911 0.653082
vt 0.563170 0.726311
vt 0.545911 0.689696
vt 0.563170 0.762925
vt 0.545911 0.726311
vt 0.563170 0.799540
vt 0.545911 0.762925
vt 0.563170 0.836154
vt 0.545911 0.799540
vt 0.563170 0.872769
vt 0.545911 0.836154
vt 0.545911 0.872769
vt 0.440490 0.925297
vt 0.440490 0.965516
vt 0.440490 0.885077
vt 0.422006 0.873987
vt 0.440490 0.844858
vt 0.422006 0.837464
vt 0.440490 0.804638
vt 0.422006 0.800941
vt 0.440490 0.764419
vt 0.422006 0.727896
vt 0.422006 0.764419
vt 0.422006 0.691373
vt 0.440490 0.724199
vt 0.422006 0.654850
vt 0.440490 0.683980
vt 0.440490 0.643760
vt 0.581700 0.924208
vt 0.581700 0.964528
vt 0.581700 0.883887
vt 0.581700 0.843566
vt 0.581700 0.803246
vt 0.581700 0.762925
vt 0.581700 0.722605
vt 0.581700 0.682284
vt 0.581700 0.641963
vt 0.544459 0.090017
vt 0.544459 0.044463
vt 0.544459 0.135571
vt 0.544459 0.181124
vt 0.544459 0.226678
vt 0.544459 0.272232
vt 0.544459 0.317785
vt 0.544459 0.363339
vt 0.544459 0.408893
vt 0.404790 0.581805
vt 0.404790 0.618328
vt 0.404790 0.654850
vt 0.404790 0.691373
vt 0.404790 0.727896
vt 0.404790 0.764419
vt 0.404790 0.800941
vt 0.404790 0.837464
vt 0.404790 0.873987
vt 0.000001 0.044460
vt 0.000000 0.090015
vt 0.000000 0.135569
vt 0.000000 0.181123
vt 0.000000 0.226677
vt 0.000000 0.272232
vt 0.000000 0.317786
vt 0.000000 0.363340
vt 0.000000 0.408894
vt 0.254610 0.965492
vt 0.247650 0.566738
vt 0.254610 0.566732
vt 0.850952 0.970605
vt 0.957500 0.963955
vt 0.957500 0.970605
vt 0.843991 0.963949
vt 0.837031 0.565195
vt 0.843991 0.565190
vt 0.964460 0.963949
vt 0.957500 0.565195
vt 0.964460 0.565190
vt 0.127181 0.972148
vt 0.020632 0.965497
vt 0.127181 0.965497
vt 0.989566 0.499712
vt 0.981563 0.041248
vt 0.989566 0.041242
vt 0.712550 0.499712
vt 0.704547 0.041248
vt 0.712550 0.041242
vt 0.127181 0.560087
vt 0.020632 0.566738
vt 0.020632 0.560087
vt 0.375079 0.965492
vt 0.368119 0.566738
vt 0.375079 0.566732
vt 0.141101 0.566738
vt 0.247650 0.965497
vt 0.141101 0.965497
vt 0.843055 0.499718
vt 0.720552 0.041248
vt 0.843055 0.041248
vt 0.981563 0.499718
vt 0.859060 0.041248
vt 0.582044 0.041248
vt 0.704547 0.499718
vt 0.582044 0.499718
vt 0.837031 0.963955
vt 0.730483 0.565195
vt 0.127181 0.566738
vt 0.850951 0.565195
vt 0.850952 0.963955
vt 0.716562 0.963955
vt 0.610013 0.565195
vt 0.716562 0.565195
vt 0.368119 0.965497
vt 0.261570 0.566738
vt 0.723522 0.963950
vt 0.723522 0.565190
vt 0.850951 0.558545
vt 0.141101 0.972148
vt 0.247650 0.972148
vt 0.851058 0.499712
vt 0.851058 0.041242
vt 0.716562 0.558545
vt 0.610013 0.558545
vt 0.141101 0.560087
vt 0.574041 0.041255
vt 0.574041 0.499724
vt 0.716562 0.970605
vt 0.610013 0.963955
vt 0.843055 0.033602
vt 0.720552 0.033602
vt 0.843991 0.565201
vt 0.843991 0.963960
vt 0.368119 0.560087
vt 0.261570 0.560087
vt 0.843055 0.507364
vt 0.720552 0.499718
vt 0.134141 0.566743
vt 0.134141 0.965503
vt 0.368119 0.972148
vt 0.261570 0.965497
vt 0.981563 0.033602
vt 0.859060 0.033602
vt 0.013672 0.566743
vt 0.013672 0.965503
vt 0.981563 0.507365
vt 0.859060 0.499718
vt 0.254610 0.566743
vt 0.254610 0.965502
vt 0.582044 0.507365
vt 0.704547 0.507364
vt 0.851058 0.041254
vt 0.851058 0.499724
vt 0.582044 0.033602
vt 0.723522 0.565201
vt 0.730483 0.963955
vt 0.723522 0.963960
vt 0.837031 0.558545
vt 0.730483 0.558545
vt 0.603053 0.565201
vt 0.603053 0.963960
vt 0.134141 0.965492
vt 0.134141 0.566732
vt 0.837031 0.970605
vt 0.712550 0.041254
vt 0.712550 0.499724
vt 0.000001 0.500002
vt 0.404790 0.947033
vt 0.499999 0.000003
vt 0.581700 0.561322
vt 0.492822 0.571377
vt 0.545911 0.561322
vt 0.440490 0.563321
vt 0.457003 0.956376
vt 0.510122 0.945997
vt 0.545911 0.945998
vt 0.020632 0.972148
vt 0.957500 0.558545
vt 0.247650 0.560087
vt 0.610013 0.970605
vt 0.720552 0.507365
vt 0.261570 0.972148
vt 0.859060 0.507364
vt 0.704547 0.033602
vt 0.730483 0.970605
vn 1.0000 -0.0000 -0.0000
vn 0.0000 0.0000 1.0000
vn 0.0000 0.0000 -1.0000
vn 0.0000 -1.0000 0.0000
vn 0.0000 1.0000 -0.0000
vn -1.0000 0.0000 0.0000
vn -0.8748 -0.4846 0.0000
vn -0.8747 -0.4846 0.0000
vn 0.8748 0.4846 -0.0000
vn 0.8747 0.4846 -0.0000
vn -0.8748 -0.4845 0.0000
vn 0.8748 0.4845 -0.0000
vn -0.4846 0.8748 -0.0000
vn -0.4846 0.8747 0.0000
vn 0.4846 -0.8748 0.0000
vn 0.4846 -0.8747 -0.0000
s 1
f 2/1/1 4/2/1 1/3/1
f 6/4/2 8/5/2 5/6/2
f 10/7/2 12/8/2 9/9/2
f 14/10/3 16/11/3 13/12/3
f 18/13/4 20/14/4 17/15/4
f 6/4/5 14/16/5 7/17/5
f 22/18/6 23/19/6 21/20/6
f 10/21/6 18/22/6 22/23/6
f 25/24/6 14/25/6 24/26/6
f 24/27/6 13/28/6 26/29/6
f 22/23/5 11/30/5 10/21/5
f 24/26/4 29/31/4 25/24/4
f 25/32/3 31/33/3 30/34/3
f 33/35/1 20/14/1 32/36/1
f 32/36/1 35/37/1 34/38/1
f 3/39/1 15/40/1 6/4/1
f 3/39/1 5/6/1 4/2/1
f 33/35/1 37/41/1 17/15/1
f 36/42/1 39/43/1 37/41/1
f 38/44/1 41/45/1 39/43/1
f 40/46/1 43/47/1 41/45/1
f 42/48/1 45/49/1 43/47/1
f 46/50/1 45/49/1 44/51/1
f 48/52/1 47/53/1 46/50/1
f 50/54/1 49/55/1 48/52/1
f 4/2/1 51/56/1 50/54/1
f 2/1/1 16/11/1 15/40/1
f 1/3/1 53/57/1 16/11/1
f 52/58/1 55/59/1 53/57/1
f 54/60/1 57/61/1 55/59/1
f 56/62/1 59/63/1 57/61/1
f 60/64/1 59/63/1 58/65/1
f 62/66/1 61/67/1 60/64/1
f 64/68/1 63/69/1 62/66/1
f 34/38/1 65/70/1 64/68/1
f 21/20/3 27/71/3 22/18/3
f 67/72/3 66/73/3 21/20/3
f 69/74/3 68/75/3 67/72/3
f 71/76/3 70/77/3 69/74/3
f 73/78/3 72/79/3 71/76/3
f 75/80/3 74/81/3 73/78/3
f 77/82/3 76/83/3 75/80/3
f 79/84/3 78/85/3 77/82/3
f 30/34/3 80/86/3 79/84/3
f 10/7/6 81/87/6 19/88/6
f 9/9/6 83/89/6 81/87/6
f 82/90/6 85/91/6 83/89/6
f 84/92/6 87/93/6 85/91/6
f 86/94/6 89/95/6 87/93/6
f 90/96/6 89/95/6 88/97/6
f 92/98/6 91/99/6 90/96/6
f 94/100/6 93/101/6 92/98/6
f 26/29/6 95/102/6 94/100/6
f 25/32/6 8/103/6 7/104/6
f 30/34/6 96/105/6 8/103/6
f 79/84/6 97/106/6 96/105/6
f 77/82/6 98/107/6 97/106/6
f 75/80/6 99/108/6 98/107/6
f 71/76/6 99/108/6 73/78/6
f 69/74/6 100/109/6 71/76/6
f 67/72/6 101/110/6 69/74/6
f 21/20/6 102/111/6 67/72/6
f 81/112/3 20/14/3 19/113/3
f 83/114/3 35/37/3 81/112/3
f 85/115/3 65/70/3 83/114/3
f 87/116/3 63/69/3 85/115/3
f 89/117/3 61/67/3 87/116/3
f 91/118/3 59/63/3 89/117/3
f 93/119/3 57/61/3 91/118/3
f 95/120/3 55/59/3 93/119/3
f 13/12/3 53/57/3 95/120/3
f 26/29/2 28/121/2 24/27/2
f 94/100/2 103/122/2 26/29/2
f 92/98/2 104/123/2 94/100/2
f 90/96/2 105/124/2 92/98/2
f 88/97/2 106/125/2 90/96/2
f 86/94/2 107/126/2 88/97/2
f 84/92/2 108/127/2 86/94/2
f 82/90/2 109/128/2 84/92/2
f 9/9/2 110/129/2 82/90/2
f 37/41/2 18/130/2 17/15/2
f 39/43/2 23/131/2 37/41/2
f 41/45/2 102/132/2 39/43/2
f 43/47/2 101/133/2 41/45/2
f 45/49/2 100/134/2 43/47/2
f 47/53/2 99/135/2 45/49/2
f 49/55/2 98/136/2 47/53/2
f 51/56/2 97/137/2 49/55/2
f 5/6/2 96/138/2 51/56/2
f 34/38/1 33/35/1 32/36/1
f 64/68/1 36/42/1 34/38/1
f 62/66/1 38/44/1 64/68/1
f 60/64/1 40/46/1 62/66/1
f 58/65/1 42/48/1 60/64/1
f 56/62/1 44/51/1 58/65/1
f 54/60/1 46/50/1 56/62/1
f 52/58/1 48/52/1 54/60/1
f 1/3/1 50/54/1 52/58/1
f 112/139/7 114/140/8 111/141/8
f 52/142/2 117/143/2 115/144/2
f 42/145/7 119/146/8 60/147/8
f 115/148/9 121/149/10 120/150/10
f 36/151/3 123/152/3 124/153/3
f 40/154/11 126/155/8 62/156/8
f 128/157/12 130/158/10 127/159/10
f 34/160/2 133/161/2 131/162/2
f 38/163/11 135/164/8 64/165/8
f 137/166/13 113/167/14 136/168/14
f 139/169/15 141/170/15 138/171/15
f 125/172/15 143/173/15 126/155/15
f 145/174/15 129/175/15 144/176/15
f 118/177/15 147/178/15 119/146/15
f 124/153/15 133/161/15 132/179/15
f 148/180/15 117/143/16 116/181/16
f 150/182/15 152/183/15 149/184/15
f 134/185/15 154/186/15 135/164/15
f 44/187/7 149/184/8 58/188/8
f 50/189/3 121/149/3 148/180/3
f 4/190/2 113/167/2 112/191/2
f 46/192/7 138/171/8 56/193/8
f 58/194/2 152/183/2 155/195/2
f 1/196/3 114/140/3 137/166/3
f 48/197/7 144/176/8 54/198/8
f 44/199/3 151/200/3 150/182/3
f 56/201/2 141/170/2 157/202/2
f 50/203/11 116/181/8 52/204/8
f 64/205/2 154/186/2 158/206/2
f 46/207/3 140/208/3 139/169/3
f 1/209/10 136/168/10 4/210/10
f 38/211/3 153/212/3 134/185/3
f 62/213/2 143/173/2 161/214/2
f 131/215/12 123/152/10 122/216/10
f 40/217/3 142/218/3 125/172/3
f 158/219/12 153/212/10 160/220/10
f 54/221/2 129/175/2 128/222/2
f 161/223/12 142/218/10 162/224/10
f 48/225/3 130/158/3 145/174/3
f 164/226/9 146/227/10 163/228/10
f 60/229/2 147/178/2 164/230/2
f 155/231/9 151/200/10 156/232/10
f 36/233/7 132/179/8 34/234/8
f 42/235/3 146/227/3 118/177/3
f 157/236/12 140/208/10 159/237/10
f 2/1/1 3/39/1 4/2/1
f 6/4/2 7/238/2 8/5/2
f 10/7/2 11/239/2 12/8/2
f 14/10/3 15/40/3 16/11/3
f 18/13/4 19/240/4 20/14/4
f 6/4/5 15/40/5 14/16/5
f 22/18/6 18/241/6 23/19/6
f 10/21/6 19/242/6 18/22/6
f 25/24/6 7/243/6 14/25/6
f 24/27/6 14/244/6 13/28/6
f 22/23/5 27/245/5 11/30/5
f 24/26/4 28/246/4 29/31/4
f 25/32/3 29/247/3 31/33/3
f 33/35/1 17/15/1 20/14/1
f 32/36/1 20/14/1 35/37/1
f 3/39/1 2/1/1 15/40/1
f 3/39/1 6/4/1 5/6/1
f 33/35/1 36/42/1 37/41/1
f 36/42/1 38/44/1 39/43/1
f 38/44/1 40/46/1 41/45/1
f 40/46/1 42/48/1 43/47/1
f 42/48/1 44/51/1 45/49/1
f 46/50/1 47/53/1 45/49/1
f 48/52/1 49/55/1 47/53/1
f 50/54/1 51/56/1 49/55/1
f 4/2/1 5/6/1 51/56/1
f 2/1/1 1/3/1 16/11/1
f 1/3/1 52/58/1 53/57/1
f 52/58/1 54/60/1 55/59/1
f 54/60/1 56/62/1 57/61/1
f 56/62/1 58/65/1 59/63/1
f 60/64/1 61/67/1 59/63/1
f 62/66/1 63/69/1 61/67/1
f 64/68/1 65/70/1 63/69/1
f 34/38/1 35/37/1 65/70/1
f 21/20/3 66/73/3 27/71/3
f 67/72/3 68/75/3 66/73/3
f 69/74/3 70/77/3 68/75/3
f 71/76/3 72/79/3 70/77/3
f 73/78/3 74/81/3 72/79/3
f 75/80/3 76/83/3 74/81/3
f 77/82/3 78/85/3 76/83/3
f 79/84/3 80/86/3 78/85/3
f 30/34/3 31/33/3 80/86/3
f 10/7/6 9/9/6 81/87/6
f 9/9/6 82/90/6 83/89/6
f 82/90/6 84/92/6 85/91/6
f 84/92/6 86/94/6 87/93/6
f 86/94/6 88/97/6 89/95/6
f 90/96/6 91/99/6 89/95/6
f 92/98/6 93/101/6 91/99/6
f 94/100/6 95/102/6 93/101/6
f 26/29/6 13/28/6 95/102/6
f 25/32/6 30/34/6 8/103/6
f 30/34/6 79/84/6 96/105/6
f 79/84/6 77/82/6 97/106/6
f 77/82/6 75/80/6 98/107/6
f 75/80/6 73/78/6 99/108/6
f 71/76/6 100/109/6 99/108/6
f 69/74/6 101/110/6 100/109/6
f 67/72/6 102/111/6 101/110/6
f 21/20/6 23/19/6 102/111/6
f 81/112/3 35/37/3 20/14/3
f 83/114/3 65/70/3 35/37/3
f 85/115/3 63/69/3 65/70/3
f 87/116/3 61/67/3 63/69/3
f 89/117/3 59/63/3 61/67/3
f 91/118/3 57/61/3 59/63/3
f 93/119/3 55/59/3 57/61/3
f 95/120/3 53/57/3 55/59/3
f 13/12/3 16/11/3 53/57/3
f 26/29/2 103/122/2 28/121/2
f 94/100/2 104/123/2 103/122/2
f 92/98/2 105/124/2 104/123/2
f 90/96/2 106/125/2 105/124/2
f 88/97/2 107/126/2 106/125/2
f 86/94/2 108/127/2 107/126/2
f 84/92/2 109/128/2 108/127/2
f 82/90/2 110/129/2 109/128/2
f 9/9/2 12/8/2 110/129/2
f 37/41/2 23/131/2 18/130/2
f 39/43/2 102/132/2 23/131/2
f 41/45/2 101/133/2 102/132/2
f 43/47/2 100/134/2 101/133/2
f 45/49/2 99/135/2 100/134/2
f 47/53/2 98/136/2 99/135/2
f 49/55/2 97/137/2 98/136/2
f 51/56/2 96/138/2 97/137/2
f 5/6/2 8/5/2 96/138/2
f 34/38/1 36/42/1 33/35/1
f 64/68/1 38/44/1 36/42/1
f 62/66/1 40/46/1 38/44/1
f 60/64/1 42/48/1 40/46/1
f 58/65/1 44/51/1 42/48/1
f 56/62/1 46/50/1 44/51/1
f 54/60/1 48/52/1 46/50/1
f 52/58/1 50/54/1 48/52/1
f 1/3/1 4/2/1 50/54/1
f 112/139/7 113/167/11 114/140/8
f 52/142/2 116/181/2 117/143/2
f 42/145/7 118/177/11 119/146/8
f 115/148/9 117/143/12 121/149/10
f 36/151/3 122/248/3 123/152/3
f 40/154/11 125/172/11 126/155/8
f 128/157/12 129/175/12 130/158/10
f 34/160/2 132/179/2 133/161/2
f 38/163/11 134/185/11 135/164/8
f 137/166/13 114/140/13 113/167/14
f 139/169/15 140/208/15 141/170/15
f 125/172/15 142/218/15 143/173/15
f 145/174/15 130/158/15 129/175/15
f 118/177/15 146/227/15 147/178/15
f 124/153/15 123/152/15 133/161/15
f 148/180/15 121/149/15 117/143/16
f 150/182/15 151/200/15 152/183/15
f 134/185/15 153/212/15 154/186/15
f 44/187/7 150/182/11 149/184/8
f 50/189/3 120/249/3 121/149/3
f 4/190/2 136/168/2 113/167/2
f 46/192/7 139/169/11 138/171/8
f 58/194/2 149/184/2 152/183/2
f 1/196/3 111/250/3 114/140/3
f 48/197/7 145/174/11 144/176/8
f 44/199/3 156/251/3 151/200/3
f 56/201/2 138/171/2 141/170/2
f 50/203/11 148/180/11 116/181/8
f 64/205/2 135/164/2 154/186/2
f 46/207/3 159/252/3 140/208/3
f 1/209/10 137/166/10 136/168/10
f 38/211/3 160/253/3 153/212/3
f 62/213/2 126/155/2 143/173/2
f 131/215/12 133/161/12 123/152/10
f 40/217/3 162/254/3 142/218/3
f 158/219/12 154/186/12 153/212/10
f 54/221/2 144/176/2 129/175/2
f 161/223/12 143/173/12 142/218/10
f 48/225/3 127/255/3 130/158/3
f 164/226/9 147/178/12 146/227/10
f 60/229/2 119/146/2 147/178/2
f 155/231/9 152/183/12 151/200/10
f 36/233/7 124/153/11 132/179/8
f 42/235/3 163/256/3 146/227/3
f 157/236/12 141/170/12 140/208/10
