# Blender v2.92.0 OBJ File: 'LevelDesigns(Final-WithWall).blend'
# www.blender.org
mtllib LevelWall-3.mtl
o Factory-Wall.003_Plane.198
v 40.000000 10.000000 -29.999989
v 40.000000 0.000000 -29.999989
v 40.000000 0.000000 -39.999989
v 40.000000 0.000000 -19.999989
v 40.000000 0.000000 -9.999989
v 40.000000 0.000000 0.000011
v 40.000000 10.000000 10.000011
v 40.000000 10.000000 20.000011
v 40.000000 0.000000 20.000011
v 40.000000 0.000000 10.000011
v 40.000000 10.000000 30.000011
v 40.000000 0.000000 30.000011
v 40.000000 10.000000 40.000011
v 40.000000 0.000000 40.000011
v 40.000000 10.000000 -39.999989
v 40.000000 10.000000 -9.999989
v 40.000000 10.000000 -19.999989
v 40.000000 10.000000 0.000011
v 40.000000 20.000000 10.000011
v 40.000000 20.000000 0.000011
v 40.000000 20.000000 20.000011
v 40.000000 20.000000 40.000011
v 40.000000 20.000000 30.000011
v 40.000000 20.000000 -39.999989
v 40.000000 30.000000 -29.999989
v 40.000000 20.000000 -19.999989
v 40.000000 20.000000 -29.999989
v 40.000000 20.000000 -9.999989
v 40.000000 30.000000 10.000011
v 40.000000 30.000000 40.000011
v 40.000000 30.000000 30.000011
v 39.999996 40.000000 -29.999989
v 39.999996 40.000000 -39.999989
v 40.000000 30.000000 -39.999989
v 39.999996 40.000000 -19.999989
v 40.000000 30.000000 -19.999989
v 39.999996 40.000000 0.000011
v 39.999996 40.000000 -9.999989
v 40.000000 30.000000 0.000011
v 40.000000 30.000000 -9.999989
v 39.999996 40.000000 10.000011
v 39.999996 40.000000 20.000011
v 40.000000 30.000000 20.000011
v 39.999996 40.000000 40.000011
v 39.999996 40.000000 30.000011
vt 0.543091 0.058236
vt 0.963400 0.477830
vt 0.543091 0.478455
vt 0.031686 0.057501
vt 0.454041 0.479208
vt 0.031686 0.479208
vt 0.543091 0.058236
vt 0.963400 0.477830
vt 0.543091 0.478455
vt 0.031686 0.057501
vt 0.454041 0.479208
vt 0.031686 0.479208
vt 0.543091 0.058236
vt 0.963400 0.477830
vt 0.543091 0.478455
vt 0.031686 0.057501
vt 0.454041 0.479208
vt 0.031686 0.479208
vt 0.543091 0.058236
vt 0.963400 0.477830
vt 0.543091 0.478455
vt 0.031686 0.057501
vt 0.454041 0.479208
vt 0.031686 0.479208
vt 0.543091 0.058236
vt 0.963400 0.477830
vt 0.543091 0.478455
vt 0.035458 0.518619
vt 0.457813 0.940326
vt 0.035458 0.940326
vt 0.543091 0.058236
vt 0.963400 0.477830
vt 0.543091 0.478455
vt 0.035458 0.518619
vt 0.457813 0.940326
vt 0.035458 0.940326
vt 0.543091 0.058236
vt 0.963400 0.477830
vt 0.543091 0.478455
vt 0.035458 0.518619
vt 0.457813 0.940326
vt 0.035458 0.940326
vt 0.543091 0.058236
vt 0.963400 0.477830
vt 0.543091 0.478455
vt 0.035458 0.518619
vt 0.457813 0.940326
vt 0.035458 0.940326
vt 0.543091 0.058236
vt 0.963400 0.477830
vt 0.543091 0.478455
vt 0.544905 0.518738
vt 0.967260 0.940445
vt 0.544905 0.940445
vt 0.543091 0.058236
vt 0.963400 0.477830
vt 0.543091 0.478455
vt 0.035458 0.518619
vt 0.457813 0.940326
vt 0.035458 0.940326
vt 0.543091 0.058236
vt 0.963400 0.477830
vt 0.543091 0.478455
vt 0.544905 0.518738
vt 0.967260 0.940445
vt 0.544905 0.940445
vt 0.543091 0.058236
vt 0.963400 0.477830
vt 0.543091 0.478455
vt 0.035458 0.518619
vt 0.457813 0.940326
vt 0.035458 0.940326
vt 0.543091 0.058236
vt 0.963400 0.477830
vt 0.543091 0.478455
vt 0.035458 0.518619
vt 0.457813 0.940326
vt 0.035458 0.940326
vt 0.543091 0.058236
vt 0.963400 0.477830
vt 0.543091 0.478455
vt 0.544905 0.518738
vt 0.967260 0.940445
vt 0.544905 0.940445
vt 0.543091 0.058236
vt 0.963400 0.477830
vt 0.543091 0.478455
vt 0.035458 0.518619
vt 0.457813 0.940326
vt 0.035458 0.940326
vt 0.543091 0.058236
vt 0.963400 0.477830
vt 0.543091 0.478455
vt 0.544905 0.518738
vt 0.967260 0.940445
vt 0.544905 0.940445
vt 0.963400 0.057611
vt 0.454041 0.057501
vt 0.963400 0.057611
vt 0.454041 0.057501
vt 0.963400 0.057611
vt 0.454041 0.057501
vt 0.963400 0.057611
vt 0.454041 0.057501
vt 0.963400 0.057611
vt 0.457813 0.518619
vt 0.963400 0.057611
vt 0.457813 0.518619
vt 0.963400 0.057611
vt 0.457813 0.518619
vt 0.963400 0.057611
vt 0.457813 0.518619
vt 0.963400 0.057611
vt 0.967260 0.518738
vt 0.963400 0.057611
vt 0.457813 0.518619
vt 0.963400 0.057611
vt 0.967260 0.518738
vt 0.963400 0.057611
vt 0.457813 0.518619
vt 0.963400 0.057611
vt 0.457813 0.518619
vt 0.963400 0.057611
vt 0.967260 0.518738
vt 0.963400 0.057611
vt 0.457813 0.518619
vt 0.963400 0.057611
vt 0.967260 0.518738
vn 1.0000 0.0000 0.0000
usemtl Material.002
s off
f 2/1/1 15/2/1 1/3/1
f 4/4/1 1/5/1 17/6/1
f 5/7/1 17/8/1 16/9/1
f 6/10/1 16/11/1 18/12/1
f 10/13/1 18/14/1 7/15/1
f 9/16/1 7/17/1 8/18/1
f 12/19/1 8/20/1 11/21/1
f 14/22/1 11/23/1 13/24/1
f 1/25/1 24/26/1 27/27/1
f 17/28/1 27/29/1 26/30/1
f 16/31/1 26/32/1 28/33/1
f 18/34/1 28/35/1 20/36/1
f 7/37/1 20/38/1 19/39/1
f 8/40/1 19/41/1 21/42/1
f 11/43/1 21/44/1 23/45/1
f 13/46/1 23/47/1 22/48/1
f 27/49/1 34/50/1 25/51/1
f 26/52/1 25/53/1 36/54/1
f 28/55/1 36/56/1 40/57/1
f 20/58/1 40/59/1 39/60/1
f 19/61/1 39/62/1 29/63/1
f 21/64/1 29/65/1 43/66/1
f 23/67/1 43/68/1 31/69/1
f 22/70/1 31/71/1 30/72/1
f 25/73/1 33/74/1 32/75/1
f 36/76/1 32/77/1 35/78/1
f 40/79/1 35/80/1 38/81/1
f 39/82/1 38/83/1 37/84/1
f 29/85/1 37/86/1 41/87/1
f 43/88/1 41/89/1 42/90/1
f 31/91/1 42/92/1 45/93/1
f 30/94/1 45/95/1 44/96/1
f 2/1/1 3/97/1 15/2/1
f 4/4/1 2/98/1 1/5/1
f 5/7/1 4/99/1 17/8/1
f 6/10/1 5/100/1 16/11/1
f 10/13/1 6/101/1 18/14/1
f 9/16/1 10/102/1 7/17/1
f 12/19/1 9/103/1 8/20/1
f 14/22/1 12/104/1 11/23/1
f 1/25/1 15/105/1 24/26/1
f 17/28/1 1/106/1 27/29/1
f 16/31/1 17/107/1 26/32/1
f 18/34/1 16/108/1 28/35/1
f 7/37/1 18/109/1 20/38/1
f 8/40/1 7/110/1 19/41/1
f 11/43/1 8/111/1 21/44/1
f 13/46/1 11/112/1 23/47/1
f 27/49/1 24/113/1 34/50/1
f 26/52/1 27/114/1 25/53/1
f 28/55/1 26/115/1 36/56/1
f 20/58/1 28/116/1 40/59/1
f 19/61/1 20/117/1 39/62/1
f 21/64/1 19/118/1 29/65/1
f 23/67/1 21/119/1 43/68/1
f 22/70/1 23/120/1 31/71/1
f 25/73/1 34/121/1 33/74/1
f 36/76/1 25/122/1 32/77/1
f 40/79/1 36/123/1 35/80/1
f 39/82/1 40/124/1 38/83/1
f 29/85/1 39/125/1 37/86/1
f 43/88/1 29/126/1 41/89/1
f 31/91/1 43/127/1 42/92/1
f 30/94/1 31/128/1 45/95/1
